<svg xmlns="http://www.w3.org/2000/svg" version="1.1" xmlns:xlink="http://www.w3.org/1999/xlink" width="512" height="512" x="0" y="0" viewBox="0 0 32 32" style="enable-background:new 0 0 512 512" xml:space="preserve" class=""><g><path fill="#678a3b" d="M25.163 14.779a5.957 5.957 0 0 0-1.88-3.586 4.986 4.986 0 0 0-1.833-5.177 4.883 4.883 0 0 0-2.409-.958 4.885 4.885 0 0 0-1.582-2.054 5.008 5.008 0 0 0-7.017.997 4.961 4.961 0 0 0-2.591 1.773 4.88 4.88 0 0 0-.959 2.409 4.864 4.864 0 0 0-2.053 1.582 4.994 4.994 0 0 0-.947 3.785 4.067 4.067 0 0 0-1.498 1.951 4.132 4.132 0 0 0 2.461 5.292 4.138 4.138 0 0 0 4.893-1.653l6.039 1.389a5.95 5.95 0 0 0 4.265 1.023 5.957 5.957 0 0 0 3.958-2.328 5.962 5.962 0 0 0 1.153-4.445z" opacity="1" data-original="#678a3b"></path><path fill="#78a03f" d="M30 16a4.97 4.97 0 0 0-1-2.977V13c0-2.757-2.243-5-5-5a4.88 4.88 0 0 0-2.5.686A4.89 4.89 0 0 0 19 8a4.985 4.985 0 0 0-4.582 3.028A6.008 6.008 0 0 0 9 17a6.007 6.007 0 0 0 5.847 5.998l9.866 2.96c.093.028.19.042.287.042 2.757 0 5-2.243 5-5a4.88 4.88 0 0 0-.686-2.5A4.89 4.89 0 0 0 30 16z" opacity="1" data-original="#78a03f"></path><path fill="#8bba41" d="M27.058 20.934c-.565-2.613-2.835-4.521-5.487-4.521-.419 0-.841.052-1.261.154a5.547 5.547 0 0 0-4.311-2.062 5.59 5.59 0 0 0-4.196 1.929c-2.695-.245-5.08 1.521-5.836 4.064-2.334.739-3.968 2.955-3.968 5.504 0 .745.143 1.473.423 2.163C2.875 29.28 3.963 30 5.193 30h21.611c1.231 0 2.319-.72 2.771-1.834a5.717 5.717 0 0 0 .423-2.164c0-2.132-1.138-4.064-2.942-5.068z" opacity="1" data-original="#8bba41"></path><path fill="#688c3c" d="M23.353 9.929a1 1 0 0 0 0 2c.847 0 1.536.689 1.536 1.536a1 1 0 0 0 2 0 3.54 3.54 0 0 0-3.536-3.536z" opacity="1" data-original="#688c3c"></path><path fill="#78a03f" d="M21.98 18.664c-.417 0-.837.082-1.249.243a1 1 0 0 0 .73 1.862c.969-.38 1.865.302 1.979 1.255a1 1 0 1 0 1.986-.238c-.213-1.78-1.695-3.123-3.446-3.123z" opacity="1" data-original="#78a03f"></path><path fill="#5f8038" d="M15.674 3.625a3.508 3.508 0 0 0-2.51.109 3.48 3.48 0 0 0-1.7 1.604 1.002 1.002 0 0 0 1.776.922c.115-.222.334-.522.727-.694a1.489 1.489 0 0 1 1.079-.042 1 1 0 1 0 .628-1.898z" opacity="1" data-original="#5f8038"></path></g></svg>