<svg xmlns="http://www.w3.org/2000/svg" version="1.1" xmlns:xlink="http://www.w3.org/1999/xlink" width="512" height="512" x="0" y="0" viewBox="0 0 173.397 173.397" style="enable-background:new 0 0 512 512" xml:space="preserve" fill-rule="evenodd" class=""><g><g fill-rule="nonzero"><path fill="#83d460" d="M92.474 84.08a1.654 1.654 0 0 0-.938 2.142c2.554 6.537 4.16 18.769 3.03 26.504a1.655 1.655 0 0 0 1.397 1.877 16.005 16.005 0 0 0 2.34.174h53.35c3.105 0 5.916-1.259 7.952-3.294a11.212 11.212 0 0 0 3.294-7.953c0-3.105-1.26-5.917-3.294-7.952a11.213 11.213 0 0 0-6.781-3.234 11.216 11.216 0 0 0-3.182-6.356 11.21 11.21 0 0 0-7.952-3.294c-.56 0-1.137.047-1.725.139a20.44 20.44 0 0 0-6.675-10.194 20.328 20.328 0 0 0-12.968-4.656c-4.977 0-9.54 1.784-13.086 4.748a20.427 20.427 0 0 0-6.646 10.407l-.236-.033-.05-.007v.001h-.007v.006a16.018 16.018 0 0 0-1.995-.132 15.947 15.947 0 0 0-5.828 1.107z" opacity="1" data-original="#83d460"></path><path fill="#72cc4b" d="M92.474 84.08a1.654 1.654 0 0 0-.938 2.142c2.554 6.537 4.16 18.769 3.03 26.504a1.655 1.655 0 0 0 1.397 1.877 16.005 16.005 0 0 0 2.34.174h4.51a15.843 15.843 0 0 0 2.662-2.142 15.755 15.755 0 0 0 4.627-11.17c0-4.201-1.656-8.199-4.627-11.17A15.765 15.765 0 0 0 97.53 86a15.733 15.733 0 0 0-1.039-2.92 15.794 15.794 0 0 0-4.017 1.002z" opacity="1" data-original="#72cc4b"></path><path fill="#98db7c" d="M29.468 76.838c.804 0 1.599.051 2.381.15v.006h.005l.001-.006c.054.006.108.016.16.028.166.022.332.046.496.073a24.46 24.46 0 0 1 8.043-12.782 24.36 24.36 0 0 1 15.675-5.687 24.35 24.35 0 0 1 15.535 5.576 24.478 24.478 0 0 1 8.08 12.518 13.369 13.369 0 0 1 2.354-.215 13.27 13.27 0 0 1 9.413 3.899 13.272 13.272 0 0 1 3.802 7.801 13.27 13.27 0 0 1 8.305 3.854 13.27 13.27 0 0 1 3.9 9.412 13.27 13.27 0 0 1-3.9 9.413 13.27 13.27 0 0 1-9.412 3.899H29.468c-5.238 0-9.98-2.123-13.413-5.556s-5.556-8.175-5.556-13.413 2.123-9.98 5.556-13.414a18.91 18.91 0 0 1 13.413-5.556z" opacity="1" data-original="#98db7c" class=""></path><g fill="#75cf4f"><path d="M46.205 114.777h-3.809L31.684 96.223a1.65 1.65 0 0 1 2.86-1.643zM75.72 114.777h-3.81L83.571 94.58a1.65 1.65 0 0 1 2.86 1.643zM60.715 114.777H57.4V74.18a1.657 1.657 0 1 1 3.313 0z" fill="#75cf4f" opacity="1" data-original="#75cf4f"></path><path d="M69.152 80.61a1.65 1.65 0 0 0-2.2-2.46c-2.6 2.327-8.911 7.376-8.93 7.39a1.652 1.652 0 0 0 2.071 2.576c.018-.014 6.32-5.056 9.06-7.507zM69.152 96.065a1.65 1.65 0 0 0-2.2-2.46c-2.6 2.327-8.911 7.376-8.93 7.39a1.652 1.652 0 0 0 2.071 2.576c.018-.014 6.32-5.055 9.06-7.506zM51.164 83.21a1.65 1.65 0 0 0-2.2 2.459c2.739 2.45 9.04 7.492 9.059 7.506a1.652 1.652 0 0 0 2.07-2.575c-.018-.014-6.329-5.063-8.93-7.39zM36.328 101.831a1.652 1.652 0 0 0 2.343 2.33l7.28-7.314a1.652 1.652 0 0 0-2.343-2.33zM79.445 104.161a1.652 1.652 0 0 0 2.343-2.33l-7.28-7.313a1.652 1.652 0 0 0-2.343 2.33z" fill="#75cf4f" opacity="1" data-original="#75cf4f"></path></g><path fill="#72cc4b" d="M120.993 114.777h3.313V82.633a1.657 1.657 0 0 0-3.313 0zM132.781 114.777h3.826l8.424-14.591a1.657 1.657 0 0 0-2.87-1.657z" opacity="1" data-original="#72cc4b"></path><path fill="#72cc4b" d="m131.103 86.63.002.003-.078.065c-2.122 1.883-6.45 5.362-7.222 5.98l-.1.084-.002-.002-.018.015.002.003a1.657 1.657 0 0 1-2.075-2.582v.001l7.383-6.113-.001-.002a1.657 1.657 0 0 1 2.113 2.552zM131.103 99.347l.002.003-.078.065c-2.122 1.882-6.45 5.362-7.222 5.98l-.1.084-.002-.002-.018.014.002.004a1.657 1.657 0 0 1-2.075-2.582v.001l7.383-6.113-.001-.002a1.657 1.657 0 0 1 2.113 2.552z" opacity="1" data-original="#72cc4b"></path><path fill="#72cc4b" d="m121.614 96.938-.018-.015-.002.002-.098-.082c-.766-.614-5.1-4.098-7.224-5.982l-.078-.065.002-.003-.004.004a1.657 1.657 0 0 1 2.113-2.552l-.001.002 7.382 6.113.001-.001a1.657 1.657 0 0 1-2.076 2.582zM139.788 105.204l-.018-.015-.001.002-.099-.081c-.766-.615-3.168-2.498-5.292-4.383l-.078-.065.002-.002-.004.004a1.657 1.657 0 0 1 2.113-2.552l-.001.001 5.45 4.514.001-.002a1.657 1.657 0 1 1-2.076 2.582z" opacity="1" data-original="#72cc4b"></path></g></g></svg>