<svg xmlns="http://www.w3.org/2000/svg" version="1.1" xmlns:xlink="http://www.w3.org/1999/xlink" width="512" height="512" x="0" y="0" viewBox="0 0 173.397 173.397" style="enable-background:new 0 0 512 512" xml:space="preserve" fill-rule="evenodd" class=""><g><path fill="#2dc231" d="M63.001 139.599c.937 0 1.85-.102 2.728-.295L43.631 87.056a12.663 12.663 0 0 0-5.138-1.082c-7.477 0-13.31 6.411-12.653 13.835-10.651.329-16.02 12.787-9.39 20.793a10.006 10.006 0 0 0-5.613 8.991c0 5.526 4.48 10.006 10.006 10.006zM96.074 45.872c8.733.105 13.152 4.524 13.257 13.257-8.733-.105-13.152-4.524-13.257-13.257z" opacity="1" data-original="#2dc231" class=""></path><path fill="#61d08b" d="M125.45 65.373c-6.25 6.101-12.5 6.101-18.749 0 6.25-6.1 12.5-6.1 18.749 0z" opacity="1" data-original="#61d08b" class=""></path><path fill="#98c919" fill-rule="nonzero" d="M116.687 51.356a1.693 1.693 0 0 0-2.553-2.223c-3.019 3.47-5.285 6.95-7.07 10.788-1.763 3.79-3.042 7.918-4.107 12.729-.2.91.374 1.81 1.283 2.01s1.175 1.797 1.376.887c.148-.667.935-3.49 1.091-4.13.916-3.734 2.005-7.027 3.426-10.08 1.642-3.53 3.742-6.75 6.554-9.981z" opacity="1" data-original="#98c919"></path><path fill="#2dc231" d="M53.28 41.753c-8.732.105-13.151 4.524-13.257 13.257 8.733-.105 13.152-4.524 13.258-13.257z" opacity="1" data-original="#2dc231" class=""></path><path fill="#61d08b" d="M23.905 61.255c6.25 6.1 12.499 6.1 18.748 0-6.25-6.101-12.499-6.101-18.748 0z" opacity="1" data-original="#61d08b" class=""></path><path fill="#2dc231" d="M58.806 59.574c-8.733.105-13.152 4.524-13.258 13.257 8.733-.105 13.152-4.524 13.258-13.257z" opacity="1" data-original="#2dc231" class=""></path><path fill="#98c919" fill-rule="nonzero" d="M35.22 45.015a1.693 1.693 0 0 0-2.552 2.222c4.015 4.615 6.587 9.221 8.454 14.758 1.791 5.31 2.956 11.527 4.119 19.424.07.477.458 2.76.528 3.251.132.924.67-.232 1.594-.364s1.567-.987 1.436-1.911c-1.26-8.769-2.49-15.585-4.475-21.472-2.017-5.982-4.788-10.949-9.103-15.908z" opacity="1" data-original="#98c919"></path><path fill="#61d08b" d="m110.063 139.415 23.692-50.745c-4.695-9.772-16-14.406-26.146-10.854a21.21 21.21 0 0 0-3.005-4.802c-3.891-4.691-9.765-7.678-16.337-7.678-8.604 0-16.011 5.12-19.341 12.48-9.928-3.475-20.351.921-25.295 9.24-1.851 3.116-2.934 6.782-2.934 10.791 0 6.61 3.023 12.514 7.761 16.405a21.327 21.327 0 0 0-.403 4.13c0 10.51 7.643 19.236 17.675 20.923 1.152.193 2.336.294 3.543.294h37.988c.95 0 1.885-.063 2.802-.184z" opacity="1" data-original="#61d08b" class=""></path><path fill="#2dc231" fill-rule="nonzero" d="M63.425 125.612a1.69 1.69 0 0 0 3.32.635c.046-.24.08-.532.12-.892.088-.78.22-1.947.58-3.1.807-2.59 3.02-5.348 9.657-3.278v.002a1.693 1.693 0 0 0 2.12-1.112l.008-.026c.46-1.256 6.37-16.53 17.461-2.089a1.69 1.69 0 0 0 2.686-2.05c-12.96-16.873-20.66-3.133-22.77 1.628-8.214-2.015-11.198 2.096-12.39 5.92-.454 1.456-.609 2.823-.712 3.734-.032.282-.058.51-.08.628z" opacity="1" data-original="#2dc231" class=""></path><g fill="#ff0c38"><path d="M39.05 123.957a5.663 5.663 0 1 1-11.325 0 5.663 5.663 0 0 1 11.325 0zM99.027 88.949a5.663 5.663 0 1 1-11.326 0 5.663 5.663 0 0 1 11.326 0zM62.475 93.325a5.663 5.663 0 1 1 0 11.326 5.663 5.663 0 0 1 0-11.326z" fill="#ff0c38" opacity="1" data-original="#ff0c38"></path></g><path fill="#61d08b" d="M133.662 39.576c-2.901 10.328-9.55 14.167-19.945 11.515 2.901-10.328 9.55-14.167 19.945-11.515zM15.692 35.457c2.902 10.329 9.55 14.167 19.945 11.516-2.9-10.329-9.55-14.167-19.945-11.516z" opacity="1" data-original="#61d08b" class=""></path><path fill="#2dc231" d="M151.338 139.599c6.198 0 11.222-5.024 11.222-11.222 0-5.312-3.691-9.761-8.647-10.925 5.274-6.623 1.53-16.695-6.994-18.062-.178-6.043-5.131-10.887-11.217-10.887-.666 0-1.316.057-1.947.167-5.8 1.009-9.952 6.448-9.185 12.485-7.331-4.94-17.483.25-17.483 9.314 0 2.64.912 5.067 2.438 6.983-4.957 1.164-8.648 5.613-8.648 10.925 0 5.502 3.96 10.08 9.186 11.038h.001c.66.12 1.34.184 2.035.184z" opacity="1" data-original="#2dc231" class=""></path><path fill="#ff0c38" d="M142.015 111.344a5.663 5.663 0 1 1-11.326 0 5.663 5.663 0 0 1 11.326 0zM120.907 122.67a4.376 4.376 0 1 1 0 8.752 4.376 4.376 0 0 1 0-8.752z" opacity="1" data-original="#ff0c38"></path></g></svg>