<svg xmlns="http://www.w3.org/2000/svg" version="1.1" xmlns:xlink="http://www.w3.org/1999/xlink" width="512" height="512" x="0" y="0" viewBox="0 0 64 64" style="enable-background:new 0 0 512 512" xml:space="preserve" class=""><g><path fill="#80d34a" d="M61.735 43.828a6.71 6.71 0 0 1-5.21 10.937H7.475a6.71 6.71 0 0 1-5.21-10.937 6.687 6.687 0 0 1 .894-10.7 6.749 6.749 0 0 1-.69-2.962c0-3.356 2.47-6.129 5.687-6.621a6.347 6.347 0 0 1-.066-.886 6.708 6.708 0 0 1 6.704-6.712c.566 0 1.116.074 1.64.213a6.704 6.704 0 0 1 6.549-5.276c1.337 0 2.584.402 3.634 1.075A6.689 6.689 0 0 1 32 9.235a6.689 6.689 0 0 1 5.383 2.724 6.725 6.725 0 0 1 3.634-1.075 6.704 6.704 0 0 1 6.548 5.276 6.383 6.383 0 0 1 1.641-.213c3.7 0 6.704 3.003 6.704 6.712 0 .295-.025.598-.066.886 3.217.492 5.686 3.265 5.686 6.621a6.75 6.75 0 0 1-.689 2.962 6.687 6.687 0 0 1 .894 10.7z" opacity="1" data-original="#80d34a" class=""></path><g fill="#f75c81"><circle cx="24.78" cy="23.085" r="2.988" fill="#f75c81" opacity="1" data-original="#f75c81"></circle><circle cx="14.005" cy="37.155" r="2.988" fill="#f75c81" opacity="1" data-original="#f75c81"></circle><circle cx="45.004" cy="24.425" r="2.988" fill="#f75c81" opacity="1" data-original="#f75c81"></circle><circle cx="50.98" cy="43.123" r="2.988" fill="#f75c81" opacity="1" data-original="#f75c81"></circle><circle cx="35.863" cy="34.988" r="2.988" fill="#f75c81" opacity="1" data-original="#f75c81"></circle><circle cx="26.658" cy="46.111" r="2.988" fill="#f75c81" opacity="1" data-original="#f75c81"></circle></g></g></svg>