<svg xmlns="http://www.w3.org/2000/svg" version="1.1" xmlns:xlink="http://www.w3.org/1999/xlink" width="512" height="512" x="0" y="0" viewBox="0 0 1200 1200" style="enable-background:new 0 0 512 512" xml:space="preserve" class=""><g><path fill="#effaff" d="M1126.1 755.96c0 61.92-50.38 112.29-112.29 112.29H218.17c-15.2-56.9 1.33-116.24 40.09-147.7 47.16-38.28 105.67-17.78 111.32-15.69-8.2-53.03 16.33-105.57 59.49-128.66 40.1-21.45 89.05-13.62 122.84 19.88-.73-25.23-.69-119.69 62.37-195.6 44.47-53.53 108.66-83.87 177.75-87.31 117.59 39.33 199.86 153.33 193.46 283.1-.78 15.95-2.91 31.82-6.35 47.39h34.67c61.91 0 112.29 50.38 112.29 112.3z" opacity="1" data-original="#effaff"></path><path fill="#bfeeff" d="M792.03 313.17c-69.09 3.44-133.28 33.78-177.75 87.31-63.06 75.91-63.1 170.37-62.37 195.6-33.79-33.5-82.74-41.33-122.84-19.88-43.16 23.09-67.69 75.63-59.49 128.66-5.65-2.09-64.16-22.59-111.32 15.69-38.76 31.46-55.29 90.8-40.09 147.7H185.6c-61.92 0-112.3-50.37-112.3-112.29s50.38-112.3 112.3-112.3h31.41a149.98 149.98 0 0 1-1.22-19.06c0-62.45 38.32-116.11 92.68-138.71 4.42-1.84 8.94-3.47 13.55-4.88 13.9-4.26 28.64-6.55 43.91-6.55 23.76 0 46.77 5.51 67.64 16.09 32.64-95.63 114.26-165.9 211.24-186.06 23.04-4.8 46.94-6.77 71.27-5.57 26.49 1.31 51.95 6.23 75.95 14.25z" opacity="1" data-original="#bfeeff"></path></g></svg>