<svg xmlns="http://www.w3.org/2000/svg" version="1.1" xmlns:xlink="http://www.w3.org/1999/xlink" width="512" height="512" x="0" y="0" viewBox="0 0 512 512" style="enable-background:new 0 0 512 512" xml:space="preserve" class=""><g><path fill="#fe860a" d="M392.101 320.391a15.451 15.451 0 0 1-2.366-8.217v-37.907c-10.937 19.443-27.034 35.363-46.275 46.116a25.746 25.746 0 0 0 6.106 11.94l45.376 49.914v13.765c0 11.379 9.225 20.604 20.604 20.604h6.313a5.15 5.15 0 0 0 5.151-5.151v-28.051c0-4.845-1.367-9.592-3.943-13.695z" opacity="1" data-original="#fe860a" class=""></path><path fill="#fe7701" d="M392.101 320.391a15.451 15.451 0 0 1-2.366-8.217v-37.907a120.355 120.355 0 0 1-20.604 26.89v11.017c0 2.907.82 5.755 2.366 8.217l30.966 49.316a25.748 25.748 0 0 1 3.943 13.695v28.051c0 .964-.282 1.856-.742 2.627a20.507 20.507 0 0 0 9.882 2.524h6.313a5.15 5.15 0 0 0 5.151-5.151v-28.051c0-4.845-1.367-9.592-3.943-13.695z" opacity="1" data-original="#fe7701"></path><path fill="#fe860a" d="M257.382 452.102h-18.297l-16.727-50.232a10.764 10.764 0 0 1 5.432-13.045l18.628-9.236a45.091 45.091 0 0 0 25.373-40.551v-4.409h-67.774v4.409c0 15.843-8.717 30.606-22.408 38.356v10.94c0 3.164.558 6.303 1.648 9.273l21.641 58.961c8.346 4.259 14.649 12.148 16.592 21.779a4.354 4.354 0 0 1-.901 3.633 4.339 4.339 0 0 1-3.369 1.597h-2.029v1.03h68.773c3.406 0 5.954-3.125 5.281-6.464-2.999-14.855-16.125-26.041-31.863-26.041z" opacity="1" data-original="#fe860a" class=""></path><path fill="#fe7701" d="M289.244 478.143c-2.997-14.855-16.123-26.041-31.862-26.041h-15.97c15.739 0 24.231 11.186 27.228 26.041.674 3.339-1.874 6.464-5.281 6.464h20.604c3.406 0 5.954-3.125 5.281-6.464zM251.187 335.659v3.379c0 17.259-9.852 18.363-25.373 25.911l-18.628 9.236a10.765 10.765 0 0 0-5.432 13.045l19.889 57.917a10.302 10.302 0 0 0 9.743 6.956h7.698l-16.727-50.232a10.764 10.764 0 0 1 5.432-13.045l18.628-9.236a45.091 45.091 0 0 0 25.373-40.551v-3.379h-20.603z" opacity="1" data-original="#fe7701"></path><path fill="#fea95c" d="M471.341 49.264h-1l-8.945-9.134a42.419 42.419 0 0 0-30.304-12.737h-13.047c-26.21 0-47.457 21.247-47.457 47.457v2.778a155.9 155.9 0 0 1-3.678 33.666L356.648 157.7c-2.608 11.796-13.066 20.194-25.147 20.194H54.142c-12.072 0-22.524-8.385-25.142-20.169L6.108 54.677C5.307 51.071 0 51.654 0 55.347v105.176c0 38.353 31.092 69.445 69.445 69.445 12.906 0 24.012 9.122 26.52 21.783l5.967 30.13a66.542 66.542 0 0 0 13.964 29.462v-6.756c0-24.295 19.766-44.061 44.061-44.061s44.061 19.766 44.061 44.061v31.072h74.086v-46.327c0-12.353 10.049-22.403 22.402-22.403s22.403 10.05 22.403 22.403v40.135c39.932-13.341 71.089-47.118 79.863-90.222l21.895-130.727a15.453 15.453 0 0 1 15.24-12.9h31.434z" opacity="1" data-original="#fea95c"></path><path fill="#fe9738" d="M204.017 315.055h74.086v20.604h-74.086zM397.803 108.518l-21.895 130.727c-6.682 32.831-26.359 60.239-52.999 77.339v12.883c39.932-13.341 71.089-47.118 79.863-90.222l21.895-130.727a15.453 15.453 0 0 1 15.24-12.9h-26.864a15.452 15.452 0 0 0-15.24 12.9z" opacity="1" data-original="#fe9738"></path><path fill="#fe860a" d="M190.638 452.102h-18.297l-16.727-50.232a10.764 10.764 0 0 1 5.432-13.045l18.628-9.236a45.091 45.091 0 0 0 25.373-40.551v-34.451c0-24.903-20.188-45.091-45.091-45.091-24.903 0-45.091 20.188-45.091 45.091v83.747c0 3.164.558 6.303 1.648 9.273l25.459 69.361a26.912 26.912 0 0 0 25.264 17.639h49.984c3.406 0 5.954-3.125 5.281-6.464-2.998-14.855-16.124-26.041-31.863-26.041z" opacity="1" data-original="#fe860a" class=""></path><path fill="#fe7701" d="M184.444 304.587v34.451c0 17.259-9.852 18.363-25.373 25.911l-18.628 9.236a10.765 10.765 0 0 0-5.432 13.045l19.889 57.917a10.302 10.302 0 0 0 9.743 6.956h7.698l-16.727-50.232a10.764 10.764 0 0 1 5.432-13.045l18.628-9.236a45.091 45.091 0 0 0 25.373-40.551v-34.451c0-24.903-20.188-45.091-45.091-45.091-3.546 0-6.992.422-10.302 1.196 19.937 4.661 34.79 22.537 34.79 43.894zM222.5 478.143c-2.997-14.855-16.123-26.041-31.862-26.041h-15.97c15.739 0 24.231 11.186 27.228 26.041.674 3.339-1.874 6.464-5.281 6.464h20.604c3.407 0 5.955-3.125 5.281-6.464z" opacity="1" data-original="#fe7701"></path><path fill="#fe860a" d="M323.939 335.915v-46.583c0-12.942-10.491-23.433-23.433-23.433s-23.433 10.491-23.433 23.433v49.407a25.75 25.75 0 0 0 6.698 17.324l45.376 49.914v13.765c0 11.379 9.225 20.604 20.604 20.604h6.313a5.15 5.15 0 0 0 5.151-5.151v-28.051c0-4.845-1.367-9.592-3.943-13.695l-30.966-49.316a15.45 15.45 0 0 1-2.367-8.218z" opacity="1" data-original="#fe860a" class=""></path><path fill="#fe7701" d="m357.271 393.448-30.966-49.316a15.451 15.451 0 0 1-2.366-8.217v-46.583c0-12.942-10.491-23.433-23.433-23.433-3.697 0-7.192.859-10.302 2.384 7.776 3.813 13.131 11.805 13.131 21.049v46.583c0 2.907.82 5.755 2.366 8.217l30.966 49.316a25.757 25.757 0 0 1 3.943 13.695v28.051a5.1 5.1 0 0 1-.743 2.627 20.51 20.51 0 0 0 9.882 2.524h6.313a5.15 5.15 0 0 0 5.151-5.151v-28.051a25.752 25.752 0 0 0-3.942-13.695z" opacity="1" data-original="#fe7701"></path><path fill="#9e9797" d="M481.227 49.264h-10.886v46.354h36.508A5.15 5.15 0 0 0 512 90.467v-10.43c0-16.996-13.777-30.773-30.773-30.773z" opacity="1" data-original="#9e9797"></path><path fill="#766e6e" d="M481.227 49.264h-10.886v1.575c12.231 4.069 21.055 15.599 21.055 29.197v10.43a5.15 5.15 0 0 1-5.151 5.151h20.604A5.15 5.15 0 0 0 512 90.466v-10.43c0-16.995-13.777-30.772-30.773-30.772z" opacity="1" data-original="#766e6e"></path><path fill="#5b5555" d="M424.949 67.146a7.5 7.5 0 0 1-7.5-7.5v-5.151c0-4.142 3.357-7.5 7.5-7.5s7.5 3.358 7.5 7.5v5.151c0 4.143-3.357 7.5-7.5 7.5z" opacity="1" data-original="#5b5555"></path><g fill="#fe860a"><path d="M133.237 209.538v-31.643h-15v31.643a7.5 7.5 0 0 0 15 0zM289.707 177.894v31.643c0 4.142 3.357 7.5 7.5 7.5s7.5-3.358 7.5-7.5v-31.643zM228.619 217.038a7.5 7.5 0 0 0 7.5-7.5v-31.643h-15v31.643a7.5 7.5 0 0 0 7.5 7.5zM331.501 217.038a7.5 7.5 0 0 0 7.5-7.5v-31.644c0-.378-.034-.747-.088-1.109a25.682 25.682 0 0 1-7.411 1.109h-7.5v31.643a7.498 7.498 0 0 0 7.499 7.501zM255.413 177.894v52.247c0 4.142 3.357 7.5 7.5 7.5s7.5-3.358 7.5-7.5v-52.247zM167.531 230.141v-52.247h-15v52.247a7.5 7.5 0 0 0 15 0zM201.825 209.538v-31.643h-15v31.643a7.5 7.5 0 0 0 15 0z" fill="#fe860a" opacity="1" data-original="#fe860a" class=""></path></g></g></svg>