<svg xmlns="http://www.w3.org/2000/svg" version="1.1" xmlns:xlink="http://www.w3.org/1999/xlink" width="512" height="512" x="0" y="0" viewBox="0 0 512 512" style="enable-background:new 0 0 512 512" xml:space="preserve" class=""><g><path fill="#08a9f1" d="m407.139 370.003-.392.309v8.646c0 17.619-6.898 33.649-18.12 45.562 32.259-5.098 56.927-33.021 56.927-66.713v-34.84c-9.007 18-21.996 34.077-38.415 47.036zM259.286 399.738v36.871c0 17.036-6.444 32.591-17.013 44.372 29.35-7.351 51.09-33.894 51.09-65.522v-15.721z" opacity="1" data-original="#08a9f1" class=""></path><path fill="#08a9f1" d="M501.698.339h-48.836c-21.264 0-38.502 17.238-38.502 38.502v145.717c0 24.371-19.757 44.128-44.128 44.128h-76.325c-55.477 0-103.951 37.472-117.926 91.159l-10.027 38.523a77.214 77.214 0 0 1-49.653 53.58L2.397 444.436c-3.681 1.05-2.923 6.474.905 6.474H159.17a77.11 77.11 0 0 0 23.543-3.687v-29.315c0-36.68 29.841-66.522 66.521-66.522h7.992c1.136 0 2.06.924 2.06 2.06v13.737h70.886v-28.399c0-36.68 29.841-66.522 66.521-66.522h7.992c1.136 0 2.061.924 2.061 2.06v97.285c32.996-25.551 54.339-65.517 54.339-110.231V72.241c0-6.316 5.12-11.436 11.436-11.436 21.803 0 39.478-17.675 39.478-39.479V10.641C512 4.952 507.388.339 501.698.339z" opacity="1" data-original="#08a9f1" class=""></path><path fill="#0290cf" d="M501.698.339h-20.604c5.69 0 10.302 4.612 10.302 10.302v10.685c0 21.803-17.675 29.177-39.479 29.177-6.316 0-11.436 5.12-11.436 11.436v199.439c0 3.46-.132 6.891-.383 10.29a66.12 66.12 0 0 1 11.118-6.077l9.869-4.214V72.241c0-6.316 5.12-11.436 11.436-11.436C494.325 60.805 512 43.13 512 21.326V10.641C512 4.952 507.388.339 501.698.339z" opacity="1" data-original="#0290cf"></path><path fill="#c8effe" d="M330.173 366.184h-70.886v34.584h62.408c2.847 0 5.672-.097 8.478-.267zM451.216 265.591a66.09 66.09 0 0 0-21.42 14.698l-23.05 23.695v67.625c32.996-25.551 54.339-65.517 54.339-110.231z" opacity="1" data-original="#c8effe"></path><path fill="#99e6fc" d="M451.216 265.591a66.12 66.12 0 0 0-11.118 6.077c-2.214 29.966-14.016 57.372-32.322 79.153v19.991c32.411-25.581 53.309-65.185 53.309-109.434z" opacity="1" data-original="#99e6fc"></path><path fill="#62dbfb" d="M340.225 446.51h-7.992a3.091 3.091 0 0 1-3.091-3.091V338.785c0-37.308 30.244-67.552 67.552-67.552h7.992a3.091 3.091 0 0 1 3.091 3.091v104.634c0 37.308-30.244 67.552-67.552 67.552z" opacity="1" data-original="#62dbfb"></path><path fill="#01d0fb" d="M404.686 271.234h-7.991c-3.234 0-6.409.242-9.522.681v96.742c0 34.074-25.233 62.241-58.03 66.871v7.892a3.091 3.091 0 0 0 3.091 3.091h7.991c37.308 0 67.552-30.244 67.552-67.552V274.324a3.09 3.09 0 0 0-3.091-3.09z" opacity="1" data-original="#01d0fb"></path><path fill="#62dbfb" d="M192.765 504.161h-7.992a3.091 3.091 0 0 1-3.091-3.091v-83.162c0-37.308 30.244-67.552 67.552-67.552h7.992a3.091 3.091 0 0 1 3.091 3.091v83.162c-.001 37.308-30.244 67.552-67.552 67.552z" opacity="1" data-original="#62dbfb"></path><path fill="#01d0fb" d="M257.226 350.357h-7.992c-3.234 0-6.409.242-9.522.681v75.27c0 34.074-25.233 62.242-58.03 66.871v7.892a3.091 3.091 0 0 0 3.091 3.091h7.992c37.308 0 67.552-30.244 67.552-67.552v-83.162a3.092 3.092 0 0 0-3.091-3.091zM361.136 185.577c-15.728 0-30.327-6.516-40.702-17.822-10.374 11.306-24.973 17.822-40.701 17.822s-30.328-6.516-40.702-17.822c-10.374 11.306-24.973 17.822-40.701 17.822s-30.328-6.516-40.702-17.822c-10.374 11.306-24.973 17.822-40.701 17.822-4.143 0-7.5-3.358-7.5-7.5s3.357-7.5 7.5-7.5c14.068 0 26.9-7.156 34.325-19.141a7.501 7.501 0 0 1 12.752 0c7.425 11.985 20.257 19.141 34.326 19.141 14.068 0 26.9-7.156 34.325-19.141a7.499 7.499 0 0 1 12.752 0c7.425 11.985 20.257 19.141 34.326 19.141 14.068 0 26.9-7.156 34.325-19.141a7.5 7.5 0 0 1 12.752 0c7.426 11.986 20.258 19.142 34.326 19.142a7.5 7.5 0 1 1 0 14.999zM465.165 511.661c-15.729 0-30.328-6.516-40.702-17.822-10.374 11.306-24.973 17.822-40.701 17.822s-30.328-6.516-40.702-17.822c-10.374 11.306-24.973 17.822-40.701 17.822-4.143 0-7.5-3.358-7.5-7.5s3.357-7.5 7.5-7.5c14.068 0 26.9-7.156 34.325-19.141a7.5 7.5 0 0 1 12.752 0c7.425 11.985 20.257 19.141 34.326 19.141 14.068 0 26.9-7.156 34.325-19.141a7.499 7.499 0 0 1 12.752 0c7.425 11.985 20.257 19.141 34.326 19.141 4.143 0 7.5 3.358 7.5 7.5s-3.357 7.5-7.5 7.5z" opacity="1" data-original="#01d0fb"></path><path fill="#5b5555" d="M459.945 38.105a7.5 7.5 0 0 1-7.5-7.5v-5.698c0-4.142 3.357-7.5 7.5-7.5s7.5 3.358 7.5 7.5v5.698a7.5 7.5 0 0 1-7.5 7.5z" opacity="1" data-original="#5b5555"></path></g></svg>