<svg xmlns="http://www.w3.org/2000/svg" version="1.1" xmlns:xlink="http://www.w3.org/1999/xlink" width="512" height="512" x="0" y="0" viewBox="0 0 512 512" style="enable-background:new 0 0 512 512" xml:space="preserve" class=""><g><path d="M302.641 344.409v50.761c0 23.939-19.404 43.353-43.342 43.353v48.055h8.986c13.218 0 23.928 10.71 23.928 23.928h-45.181c-14.002 0-25.349-11.358-25.349-25.349V277.048" style="" fill="#ce9227" data-original="#ce9227"></path><path d="M512 70.592c0 4.932-2.006 9.394-5.235 12.633a17.815 17.815 0 0 1-12.633 5.224H398.66v.021l-.178 22.841-.867 109.349c-.303 26.739-8.662 51.534-22.758 72.056l-25.819 27.836c-22.288 17.92-50.604 28.63-81.387 28.63h-32.423L122.4 331.952C54.805 331.952 0 277.147 0 209.542V53.267l67.459 141.501 9.498 19.926 14.754-10.324a247.54 247.54 0 0 1 11.828-7.784 248.258 248.258 0 0 1 15.673-8.934 249.202 249.202 0 0 1 28.296-12.633 246.594 246.594 0 0 1 15.673-5.266 247.54 247.54 0 0 1 28.306-6.729 247.76 247.76 0 0 1 15.673-2.257 248.579 248.579 0 0 1 28.296-1.557 253.2 253.2 0 0 1 15.673.522 249.542 249.542 0 0 1 28.296 3.469 247.53 247.53 0 0 1 15.673 3.365 248.44 248.44 0 0 1 32.622 10.512L313.3 69.349c-4.817-35.924 23.134-67.856 59.382-67.856 10.104 0 20.167.805 30.104 2.393s19.749 3.971 29.341 7.126l48.232 15.872a45.972 45.972 0 0 1 28.473 26.948 45.372 45.372 0 0 1 3.009 13.009c.107 1.244.159 2.486.159 3.751z" style="" fill="#e5a933" data-original="#e5a933" class=""></path><path d="M425.386 43.547a7.782 7.782 0 0 1-1.65-.176l-9.752-2.09a7.837 7.837 0 0 1 3.284-15.326l9.752 2.09a7.837 7.837 0 0 1-1.634 15.502z" style="" fill="#665d5e" data-original="#665d5e"></path><path d="M235.214 314.722v56.4c0 37.22-30.172 67.393-67.393 67.393v48.06h8.985c13.215 0 23.927 10.712 23.927 23.927h-45.179c-14 0-25.348-11.349-25.348-25.348v-58.786a29 29 0 0 1 11.597-23.196l26.017-19.512-17.71-11.191c-37.485-23.687-38.653-77.941-2.222-103.219l42.152.144c24.974.085 45.174 20.354 45.174 45.328z" style="" fill="#e5a933" data-original="#e5a933" class=""></path><path d="m398.66 88.47-.178 22.841c-59.653-16.959-39.414-73.718-39.414-73.718 0 54.857 39.581 50.855 39.581 50.855l.011.022zM511.843 66.842l-112.034-6.593 109.025-6.416a45.35 45.35 0 0 1 3.009 13.009zM307.169 267.169l46.003 58.653a16.308 16.308 0 0 0 20.877 4.121l22.789-12.925 19.535 22.478c6.72 7.732 19.263 1.01 16.546-8.866l-8.722-31.717c-3.208-11.666-15.647-18.154-27.051-14.108l-27.475 9.749-16.191-42.728a44.027 44.027 0 0 0-11.833-17.242c-12.613-11.279-32.688-5.91-38.237 10.074a23.816 23.816 0 0 0 3.759 22.511zM76.957 214.695l-20.376 23.51 10.878-43.437zM207.161 160.766v55.087a7.833 7.833 0 0 1-7.837 7.837 7.826 7.826 0 0 1-7.837-7.837v-52.83a249.36 249.36 0 0 1 15.674-2.257zM251.131 159.732v36.415a7.84 7.84 0 0 1-7.837 7.837 7.84 7.84 0 0 1-7.837-7.837V159.21c5.225.01 10.449.188 15.674.522zM295.1 166.567v15.788c0 4.326-3.5 7.837-7.837 7.837a7.84 7.84 0 0 1-7.837-7.837v-19.153a246.17 246.17 0 0 1 15.674 3.365zM163.182 169.754v40.187c0 4.336-3.511 7.837-7.837 7.837s-7.837-3.5-7.837-7.837v-34.92a245.164 245.164 0 0 1 15.674-5.267zM119.212 187.653v30.177c0 4.326-3.511 7.837-7.837 7.837s-7.837-3.511-7.837-7.837v-21.243a246.602 246.602 0 0 1 15.674-8.934z" style="" fill="#ce9227" data-original="#ce9227"></path></g></svg>