<svg xmlns="http://www.w3.org/2000/svg" version="1.1" xmlns:xlink="http://www.w3.org/1999/xlink" width="512" height="512" x="0" y="0" viewBox="0 0 512 512" style="enable-background:new 0 0 512 512" xml:space="preserve" class=""><g><path fill="#fea95c" d="M321.9 464.293c-2.955-14.647-15.898-25.676-31.416-25.676h-18.041l-16.493-49.529a10.614 10.614 0 0 1 5.356-12.863l18.368-9.106c12.053-5.861 20.614-16.744 23.718-29.413a138.678 138.678 0 0 1-25.097 2.312H256.04c-7.691 0-15.297-.607-22.773-1.748-2.687 10-8.888 18.861-17.496 24.751v12.72c0 3.12.55 6.215 1.625 9.143l22.231 60.567c7.591 5.447 12.636 14.228 12.962 24.186v1.03h64.104c3.359 0 5.871-3.081 5.207-6.374z" opacity="1" data-original="#fea95c"></path><path fill="#fe9738" d="M289.957 438.617h-18.041l-16.493-49.529a10.614 10.614 0 0 1 5.356-12.863l18.368-9.106c11.677-5.678 20.083-16.068 23.419-28.23a138.748 138.748 0 0 1-24.272 2.16h-1.046c-4.355 7.288-10.769 13.332-18.705 17.191l-18.368 9.106a10.614 10.614 0 0 0-5.356 12.863l14.146 51.361a10.302 10.302 0 0 0 9.774 7.047h10.614c17.701 0 32.05 14.349 32.05 32.05h20.604c0-17.701-14.349-32.05-32.05-32.05z" opacity="1" data-original="#fe9738"></path><path fill="#fe9738" d="M221.587 438.617h-18.041l-16.493-49.529a10.614 10.614 0 0 1 5.356-12.863l18.368-9.106a44.46 44.46 0 0 0 25.018-39.984v-33.969c0-24.555-19.905-44.46-44.46-44.46-3.548 0-6.994.428-10.302 1.213 19.585 4.649 34.158 22.24 34.158 43.247v25.09a44.46 44.46 0 0 1-25.018 39.984l-18.368 9.106a10.614 10.614 0 0 0-5.356 12.863l14.146 51.361a10.302 10.302 0 0 0 9.774 7.047h10.614c17.701 0 32.05 14.349 32.05 32.05h20.604c0-17.701-14.349-32.05-32.05-32.05zM391.812 284.367a141.648 141.648 0 0 1-10.871 12.268 147.864 147.864 0 0 1-8.545 7.931l22.87 22.87-3.065 16.552c-1.582 8.545 8.813 14.013 14.958 7.868l8.846-8.846c9.513-9.513 9.513-24.937 0-34.45z" opacity="1" data-original="#fe9738"></path><path fill="#fe860a" d="M484.777 65.403h-12.356a32.361 32.361 0 0 1-23.119-9.718l-3.587-3.662a29.672 29.672 0 0 0-21.197-8.91H406.04c-26.998 0-48.884 21.886-48.884 48.884v66.275c0 18.152-14.715 32.866-32.867 32.866H196.245a74.172 74.172 0 0 1-50.177-19.549L5.194 42.174c-2.585-2.375-6.494.728-4.768 3.785L123.283 263.55a152.346 152.346 0 0 0 24.621 32.51v-2.894c0-23.947 19.483-43.43 43.43-43.43s43.43 19.483 43.43 43.43v33.969c0 4.16-.612 8.245-1.762 12.145a152.457 152.457 0 0 0 23.037 1.769h22.255c26.134 0 51.628-7.553 73.63-20.582L313.5 282.042c-8.244-8.245-8.244-21.66 0-29.904l25.584-25.584c3.994-3.993 9.304-6.193 14.952-6.193s10.958 2.2 14.952 6.193c3.994 3.994 6.194 9.304 6.194 14.952s-2.2 10.958-6.194 14.952l-22.186 22.186 26.493 26.493c28.371-24.399 47.024-59.146 46.804-97.652l-.131-65.962c-.012-5.87 4.744-10.635 10.614-10.635h53.509c10.198 0 18.466-8.267 18.466-18.466l.253-6.469c5.008 0 9.162-4.012 9.189-9.02.092-17.398-9.845-31.53-27.222-31.53z" opacity="1" data-original="#fe860a"></path><path fill="#fe7701" d="M430.583 130.888h-26.594c-5.87 0-10.626 4.765-10.614 10.635l.131 65.962c.183 32.032-12.694 61.464-33.361 84.5l13.151 13.151c28.371-24.399 47.024-59.146 46.804-97.652l-.131-65.962c-.012-5.869 4.744-10.634 10.614-10.634zM341.149 309.69c-24.463 19.06-55.179 30.748-86.975 31.326.622.008 1.242.031 1.866.031h22.255c26.134 0 51.628-7.553 73.63-20.582zM19.507 79.753l99.967 91.835a74.168 74.168 0 0 0 50.177 19.549h26.594a74.172 74.172 0 0 1-50.177-19.549L5.194 42.174c-2.585-2.375-6.494.728-4.768 3.785zM484.777 65.403h-12.356c-1.104 0-2.201-.057-3.29-.169 10.528 5.368 16.345 18.377 16.274 31.7-.027 5.008-4.181 9.02-9.189 9.02l-.253 6.469c0 10.198-8.267 18.466-18.466 18.466h26.594c10.198 0 18.466-8.267 18.466-18.466l.253-6.469c5.008 0 9.162-4.012 9.189-9.02.092-17.399-9.845-31.531-27.222-31.531z" opacity="1" data-original="#fe7701"></path><path fill="#fea95c" d="m378.902 309.286-30.642-30.642 21.458-21.458c8.66-8.66 8.66-22.701 0-31.361s-22.701-8.66-31.361 0l-25.584 25.584c-8.66 8.66-8.66 22.701 0 31.361l45.391 45.391-3.065 16.552c-1.582 8.545 8.813 14.013 14.958 7.868l8.846-8.846c9.512-9.512 9.512-24.936-.001-34.449zM221.587 438.617h-18.041l-16.493-49.529a10.614 10.614 0 0 1 5.356-12.863l18.368-9.106a44.46 44.46 0 0 0 25.018-39.984v-33.969c0-24.555-19.905-44.46-44.46-44.46s-44.46 19.905-44.46 44.46v82.575c0 3.12.55 6.215 1.625 9.143l25.103 68.391a26.536 26.536 0 0 0 24.91 17.392h55.125c-.001-17.701-14.35-32.05-32.051-32.05z" opacity="1" data-original="#fea95c"></path><path fill="#fe9738" d="M221.587 438.617h-18.041l-16.493-49.529a10.614 10.614 0 0 1 5.356-12.863l18.368-9.106a44.46 44.46 0 0 0 25.018-39.984v-33.969c0-24.555-19.905-44.46-44.46-44.46-3.548 0-6.994.428-10.302 1.213 19.585 4.649 34.158 22.24 34.158 43.247v25.09a44.46 44.46 0 0 1-25.018 39.984l-18.368 9.106a10.614 10.614 0 0 0-5.356 12.863l14.146 51.361a10.302 10.302 0 0 0 9.774 7.047h10.614c17.701 0 32.05 14.349 32.05 32.05h20.604c0-17.701-14.349-32.05-32.05-32.05z" opacity="1" data-original="#fe9738"></path><path fill="#5b5555" d="M427.831 82.052a7.474 7.474 0 0 1-5.303-2.197l-3.642-3.642a7.5 7.5 0 0 1 0-10.606 7.5 7.5 0 0 1 10.606 0l3.642 3.642a7.5 7.5 0 0 1-5.303 12.803z" opacity="1" data-original="#5b5555"></path><path fill="#f46700" d="m502.557 112.423.253-6.469c4.488 0 8.281-3.226 9.041-7.5h-67.598a12.657 12.657 0 0 0-9.438 4.228l-4.671 5.234a7.499 7.499 0 0 0 5.593 12.493 7.481 7.481 0 0 0 5.598-2.506l3.971-4.449h57.2c.018-.344.051-.683.051-1.031z" opacity="1" data-original="#f46700"></path><g fill="#f46700"><path d="M69.308 130.836a7.474 7.474 0 0 0 5.303-2.197L86.44 116.81l-11.056-10.157-11.379 11.379a7.5 7.5 0 0 0 0 10.606 7.47 7.47 0 0 0 5.303 2.198zM199.051 192.129v18.73a7.5 7.5 0 0 0 15 0v-18.73a7.53 7.53 0 0 0-.07-.991h-14.857a7.528 7.528 0 0 0-.073.991zM146.068 171.589l-5.18-4.758-11.468 11.468a7.5 7.5 0 0 0 0 10.606c1.464 1.465 3.384 2.197 5.303 2.197s3.839-.732 5.303-2.197l12.236-12.236a74.52 74.52 0 0 1-6.194-5.08zM230.987 192.129v18.73a7.5 7.5 0 0 0 15 0v-18.73c0-.337-.027-.666-.071-.991h-14.861a7.519 7.519 0 0 0-.068.991zM262.922 192.129v18.73a7.5 7.5 0 0 0 15 0v-18.73c0-.337-.03-.666-.073-.991h-14.854a7.528 7.528 0 0 0-.073.991zM357.156 91.997v7.5h16.638a7.5 7.5 0 0 0 0-15H357.73a49.058 49.058 0 0 0-.574 7.5zM302.358 218.359a7.5 7.5 0 0 0 7.5-7.5v-18.73c0-.338-.039-.666-.082-.991H294.93a7.529 7.529 0 0 0-.072.991v18.73a7.5 7.5 0 0 0 7.5 7.5zM373.793 165.29h-17.396a32.773 32.773 0 0 1-7.71 15h25.106a7.5 7.5 0 0 0 0-15zM381.293 145.859a7.5 7.5 0 0 0-7.5-7.5h-16.638v15h16.638a7.5 7.5 0 0 0 7.5-7.5zM119.054 146.771l-11.867 11.868a7.5 7.5 0 0 0 0 10.606c1.464 1.465 3.384 2.197 5.303 2.197s3.839-.732 5.303-2.197l12.317-12.318zM373.793 111.428h-16.638v15h16.638a7.5 7.5 0 0 0 0-15zM85.596 148.943c1.464 1.465 3.384 2.197 5.303 2.197s3.839-.732 5.303-2.197l12.073-12.073-11.056-10.157-11.623 11.624a7.497 7.497 0 0 0 0 10.606z" fill="#f46700" opacity="1" data-original="#f46700"></path></g></g></svg>