<svg xmlns="http://www.w3.org/2000/svg" version="1.1" xmlns:xlink="http://www.w3.org/1999/xlink" width="512" height="512" x="0" y="0" viewBox="0 0 512 512" style="enable-background:new 0 0 512 512" xml:space="preserve" class=""><g><path fill="#fe7701" d="M127.594 361.068 106.2 344.913l-45.589 45.589c-3.764 3.764-.055 10.07 5.063 8.611l33.394-9.519zM394.421 231.024l-3.81-19.123-31.339-12.536a19.236 19.236 0 0 1-10.89-11.195l-2.5-6.787c-.74-2.008-.47-4.155.74-5.891 1.22-1.75 3.188-2.795 5.265-2.795.688 0 1.381.114 2.062.339l58.898 19.447.411-.949-21.343-28.224a164.767 164.767 0 0 0-131.423-65.387h-42.045c-2.613 0-3.977 3.109-2.207 5.032l45.878 49.827a39.693 39.693 0 0 1 10.492 26.886v48.747l39.717 52.523c6.675 8.827 19.161 10.875 28.222 4.522a51.499 51.499 0 0 0 5.943-4.867l47.963-45.679.61-1.406a24.914 24.914 0 0 1-.644-2.484z" opacity="1" data-original="#fe7701" class=""></path><path fill="#f46700" d="m393.411 231.225-3.701-18.575-3.048-1.219-40.169 38.256a51.433 51.433 0 0 1-5.944 4.868c-9.061 6.352-21.547 4.303-28.221-4.523l-39.717-52.523v30.905l39.717 52.523c6.674 8.826 19.16 10.875 28.221 4.523a51.433 51.433 0 0 0 5.944-4.868l47.963-45.679a25.845 25.845 0 0 1-1.045-3.688z" opacity="1" data-original="#f46700"></path><path fill="#fed2a4" d="m88.998 272.788-29.183 23.07H267.78a6.154 6.154 0 0 0 5.539-3.428 6.153 6.153 0 0 0-.595-6.486L196.779 185.1c-24.219-32.028-61.138-52.135-101.291-55.168l-22.946-.002 21.042 22.852a39.693 39.693 0 0 1 10.492 26.886v61.981a39.697 39.697 0 0 1-15.078 31.139z" opacity="1" data-original="#fed2a4" class=""></path><path fill="#fed2a4" d="m88.998 272.788-29.183 23.07H267.78a6.154 6.154 0 0 0 5.539-3.428 6.153 6.153 0 0 0-.595-6.486L196.779 185.1c-24.219-32.028-61.138-52.135-101.291-55.168l-22.946-.002 21.042 22.852a39.693 39.693 0 0 1 10.492 26.886v61.981a39.697 39.697 0 0 1-15.078 31.139z" opacity="1" data-original="#fed2a4" class=""></path><path fill="#ffbd86" d="M272.724 285.944 196.779 185.1c-24.219-32.028-61.138-52.135-101.291-55.168l-22.946-.002 18.753 20.367c31.171 7.59 59.045 25.684 78.62 51.571l70.783 93.989h27.081a6.154 6.154 0 0 0 5.539-3.428 6.15 6.15 0 0 0-.594-6.485z" opacity="1" data-original="#ffbd86" class=""></path><path fill="#fe9738" d="m238.198 240.098-135.729 12.724a39.688 39.688 0 0 1-9.381 16.22l155.728-14.847zM210.079 202.76l-106.796-30.943c.518 2.568.793 5.196.793 7.851v7.812l116.347 33.894c.7.204 1.406.301 2.101.301a7.41 7.41 0 0 0 1.645-.207z" opacity="1" data-original="#fe9738" class=""></path><path fill="#fe860a" d="M418.714 250.954c-10.208 0-19.235-6.304-22.958-15.504l-1.299-.536-47.963 45.679a51.433 51.433 0 0 1-5.944 4.868c-9.061 6.352-21.547 4.303-28.221-4.523l-88.948-117.627A164.767 164.767 0 0 0 91.958 97.924H49.912c-2.613 0-3.977 3.109-2.207 5.032l25.784 28.003H95.41c39.496 2.984 76.512 22.978 100.546 54.761l75.946 100.844c2.561 3.4.135 8.264-4.122 8.264H4.269A4.27 4.27 0 0 0 0 299.097v3.818a32.105 32.105 0 0 0 18.72 13.034l65.782 16.445a25.823 25.823 0 0 1 9.292 4.441l32.234 24.343-44.07 44.07c-3.809 3.809.034 10.174 5.179 8.577l98.703-30.641a25.8 25.8 0 0 1 7.649-1.16h68.715a103.198 103.198 0 0 0 72.68-29.934l100.913-100.105-2.495-1.03h-14.588z" opacity="1" data-original="#fe860a" class=""></path><path fill="#fe7701" d="m407.384 249.346-82.802 82.14a103.2 103.2 0 0 1-72.68 29.934h-68.715c-2.594 0-5.172.391-7.649 1.16l-73.833 22.92-19.748 19.748c-3.809 3.809.034 10.174 5.178 8.577l98.704-30.641a25.8 25.8 0 0 1 7.649-1.16h68.715a103.198 103.198 0 0 0 72.68-29.934l100.913-100.105h-17.082a25.719 25.719 0 0 1-11.33-2.639z" opacity="1" data-original="#fe7701" class=""></path><path fill="#fea95c" d="m389.711 212.65 3.701 18.575c2.404 12.069 12.997 20.759 25.303 20.759h88.113c3.387 0 5.859-3.203 5.001-6.479l-4.032-15.401a15.308 15.308 0 0 0-10.009-10.659l-143.515-47.387c-5.942-1.962-11.521 3.81-9.358 9.682l2.5 6.787a20.24 20.24 0 0 0 11.475 11.795z" opacity="1" data-original="#fea95c" class=""></path><path fill="#fe9738" d="m511.829 245.505-4.032-15.401a15.308 15.308 0 0 0-10.009-10.659l-143.515-47.387c-5.942-1.962-11.521 3.81-9.358 9.682l1.818 4.933 130.451 43.073a15.308 15.308 0 0 1 10.009 10.659l3.032 11.579h16.603c3.386 0 5.859-3.202 5.001-6.479z" opacity="1" data-original="#fe9738" class=""></path><path fill="#5b5555" d="M432.161 232.311a7.5 7.5 0 0 1-7.5-7.5v-5.151c0-4.142 3.357-7.5 7.5-7.5s7.5 3.358 7.5 7.5v5.151a7.5 7.5 0 0 1-7.5 7.5z" opacity="1" data-original="#5b5555"></path></g></svg>