<svg xmlns="http://www.w3.org/2000/svg" version="1.1" xmlns:xlink="http://www.w3.org/1999/xlink" width="512" height="512" x="0" y="0" viewBox="0 0 512 512" style="enable-background:new 0 0 512 512" xml:space="preserve" class=""><g><path fill="#00818b" d="m362.987 97.372 9.079 7.636c4.903-15.208 19.185-26.244 36.003-26.244h15.301a40.432 40.432 0 0 1 17.342 3.935l3.26 1.56a42.489 42.489 0 0 0 18.231 4.137h7.635L417.84 43.295c-12.152-10.234-30.115-9.465-41.349 1.769a11.323 11.323 0 0 0-3.316 8.006v10.432a5.15 5.15 0 0 1-1.509 3.642l-9.568 9.568c-5.816 5.817-5.405 15.366.889 20.66z" opacity="1" data-original="#00818b"></path><path fill="#016a74" d="M408.538 78.764h14.833c2.345 0 4.694.218 7.009.63l-41.776-41.776a30.497 30.497 0 0 0-12.113 7.447c-.277.277-.537.569-.782.871zM382.705 88.568a37.845 37.845 0 0 1 13.362-7.851l-22.893-22.893v5.679a5.15 5.15 0 0 1-1.509 3.642l-5.192 5.192z" opacity="1" data-original="#016a74"></path><path fill="#00818b" d="M331.111 321.428c-8.366 5.696-17.719 10.013-27.68 12.6l-1.742.452 19.481 19.481c5.065 5.065 7.039 12.053 5.964 18.635l11.689-11.689c8.772-8.772 8.772-22.995 0-31.767zM264.771 445.449H247.63l-15.669-47.056a10.085 10.085 0 0 1 5.088-12.221l17.451-8.652a42.24 42.24 0 0 0 23.769-37.987v-2.64h-66.487v2.64c0 13.641-6.907 26.43-17.993 34.031v12.149c0 2.964.523 5.904 1.544 8.687l21.151 57.626c7.153 5.159 11.907 13.447 12.232 22.843v1.03h66.504c0-16.817-13.633-30.45-30.449-30.45z" opacity="1" data-original="#00818b"></path><path fill="#016a74" d="M270.061 337.924h-12.396v1.61c0 16.168-9.229 23.891-23.769 30.961l-17.451 8.652a10.083 10.083 0 0 0-5.088 12.221l17.764 47.396a10.301 10.301 0 0 0 9.647 6.686h8.862l-15.669-47.056a10.085 10.085 0 0 1 5.088-12.221l17.451-8.652a42.237 42.237 0 0 0 23.315-31.843zM264.77 445.449h-10.29c11.74 4.767 20.136 17.254 20.136 30.45h20.604c0-16.817-13.633-30.45-30.45-30.45z" opacity="1" data-original="#016a74"></path><path fill="#2abcc8" d="M483.081 87.366h-20.878a41.206 41.206 0 0 1-17.786-4.036l-3.26-1.56a41.206 41.206 0 0 0-17.786-4.036h-15.302c-21.458 0-38.853 17.395-38.853 38.853v14.341l-45.287 65.975a30.905 30.905 0 0 1-25.48 13.415H171.136a30.906 30.906 0 0 1-21.437-8.643L5.362 62.689c-2.602-2.506-6.687.629-4.94 3.791l129.45 234.323c3.108-19.666 20.174-34.753 40.7-34.753 22.723 0 41.21 18.486 41.21 41.21v30.663h59.736l-9.87-9.87c-7.571-7.571-7.571-19.89 0-27.462l37.907-37.907c3.668-3.668 8.544-5.687 13.731-5.687s10.063 2.02 13.731 5.687c7.571 7.571 7.571 19.891 0 27.462l-34.831 34.831 10.352 10.352c30.059-7.38 54.425-29.856 64.082-58.887 9.241-27.781 21.094-54.623 36.479-79.532l19.034-30.815a15.455 15.455 0 0 1 11.347-7.227l58.678-6.882a15.849 15.849 0 0 0 12.399-15.469v-5.589h2.292a5.15 5.15 0 0 0 5.151-5.151v-9.492c0-15.972-12.947-28.919-28.919-28.919z" opacity="1" data-original="#2abcc8"></path><path fill="#0cacba" d="M5.362 62.689c-2.602-2.506-6.687.629-4.94 3.791l129.45 234.323c1.633-10.331 7.121-19.393 14.935-25.673L19.421 76.228zM256.019 313.278h-44.238v24.645h59.736l-9.87-9.87c-4.05-4.05-5.912-9.46-5.628-14.775zM483.081 87.366h-19.667c12.962 3.864 22.531 17.202 22.531 31.219v9.892a5.368 5.368 0 0 1-5.368 5.368h-2.388v5.825c0 6.646-3.968 12.517-9.872 15.111l23.842-2.796a15.849 15.849 0 0 0 12.399-15.469v-5.589h2.292a5.15 5.15 0 0 0 5.151-5.151v-9.492c-.001-15.971-12.948-28.918-28.92-28.918zM404.111 162.965a16.106 16.106 0 0 0-11.826 7.532l-19.837 32.116c-16.035 25.96-28.388 53.936-38.019 82.889-6.338 19.054-18.76 35.395-34.912 46.807l3.021 3.021c30.059-7.38 54.425-29.856 64.082-58.887 9.241-27.781 21.094-54.623 36.479-79.532l19.034-30.815c1.697-2.748 4.2-4.84 7.107-6.077z" opacity="1" data-original="#0cacba"></path><path fill="#00818b" d="m321.898 353.232-28.255-28.255 34.102-34.102c7.986-7.986 7.986-20.933 0-28.918-7.986-7.986-20.933-7.986-28.918 0l-37.907 37.907c-7.986 7.986-7.986 20.933 0 28.918l41.856 41.856-6.317 34.113c-.394 2.129 2.196 3.492 3.727 1.961l21.713-21.713c8.771-8.772 8.771-22.994-.001-31.767z" opacity="1" data-original="#00818b"></path><path fill="#016a74" d="m293.643 324.977 34.102-34.102c7.986-7.986 7.986-20.933 0-28.918-6.715-6.715-16.929-7.76-24.761-3.181a20.42 20.42 0 0 1 4.157 3.181c7.986 7.986 7.986 20.933 0 28.918l-26.817 26.818c-4.023 4.023-4.023 10.546 0 14.569l20.971 20.971c8.772 8.772 8.772 22.994 0 31.766l-1.447 1.447a12.577 12.577 0 0 1-12.366 10.286h-8.573c-4.107 0-7.688 3.164-7.811 7.269a7.5 7.5 0 0 0 7.496 7.731h10.358c3.978 0 7.794-1.58 10.607-4.393l22.34-22.34c8.772-8.772 8.772-22.995 0-31.767z" opacity="1" data-original="#016a74"></path><path fill="#00818b" d="M199.314 445.449h-17.141l-15.669-47.056a10.086 10.086 0 0 1 5.088-12.221l17.451-8.652a42.24 42.24 0 0 0 23.769-37.987V307.26c0-23.329-18.911-42.24-42.24-42.24s-42.24 18.911-42.24 42.24v78.452c0 2.964.523 5.904 1.544 8.687l23.849 64.976a25.21 25.21 0 0 0 23.666 16.524h52.372c0-16.817-13.632-30.45-30.449-30.45z" opacity="1" data-original="#00818b"></path><path fill="#016a74" d="M199.314 445.449h-10.29c11.74 4.767 20.136 17.254 20.136 30.45h20.604c-.001-16.817-13.633-30.45-30.45-30.45zM171.593 386.172l17.451-8.652a42.24 42.24 0 0 0 23.769-37.987V307.26c0-23.328-18.911-42.24-42.24-42.24-3.554 0-7.004.444-10.302 1.271 18.348 4.599 31.938 21.195 31.938 40.969v24.192a42.24 42.24 0 0 1-23.769 37.987l-17.451 8.652a10.083 10.083 0 0 0-5.088 12.221l17.016 48.261a10.303 10.303 0 0 0 9.716 6.876h9.541l-15.669-47.056a10.084 10.084 0 0 1 5.088-12.221z" opacity="1" data-original="#016a74"></path><path fill="#5b5555" d="M416.271 116.202a7.5 7.5 0 0 1-7.5-7.5v-5.151a7.5 7.5 0 0 1 15 0v5.151a7.5 7.5 0 0 1-7.5 7.5z" opacity="1" data-original="#5b5555"></path><path fill="#00818b" d="M437.312 123.428a7.5 7.5 0 0 0 0 15h67.117c.076-.629.129-1.264.129-1.911v-5.589h2.292a5.15 5.15 0 0 0 5.151-5.151v-2.349zM35.903 130.708 51.975 159.8l26.606-26.606-23.008-22.155z" opacity="1" data-original="#00818b"></path><path fill="#016a74" d="m46.859 119.753-10.956 10.955L51.975 159.8l12.346-12.346z" opacity="1" data-original="#016a74"></path><path fill="#00818b" d="m71.096 194.412 16.072 29.092 41.796-41.796-23.009-22.155z" opacity="1" data-original="#00818b"></path><path fill="#016a74" d="m85.097 180.411-14.001 14.001 16.072 29.092 15.392-15.391z" opacity="1" data-original="#016a74"></path></g></svg>