<svg xmlns="http://www.w3.org/2000/svg" version="1.1" xmlns:xlink="http://www.w3.org/1999/xlink" width="512" height="512" x="0" y="0" viewBox="0 0 300.742 300.742" style="enable-background:new 0 0 512 512" xml:space="preserve" class=""><g><path d="m90.248 107.082.181 16.613c4.674-.913 10.677-4.366 10.633-8.424s-6.121-7.38-10.814-8.189zM101.248 132.319c-.044-4.057-6.121-7.379-10.814-8.19l.181 16.613c4.674-.911 10.677-4.366 10.633-8.423zM90.062 90.033l.181 16.613c4.674-.912 10.677-4.366 10.633-8.423-.045-4.057-6.121-7.38-10.814-8.19zM89.403 29.692l.096 8.762c4.674-.912 10.677-4.366 10.633-8.423-.045-4.119-6.308-7.487-11.027-8.231.171 2.591.269 5.223.298 7.892zM89.504 38.888l.181 16.613c4.674-.912 10.677-4.366 10.633-8.424-.045-4.057-6.121-7.379-10.814-8.189zM89.876 72.985l.181 16.613c4.674-.912 10.677-4.366 10.633-8.424s-6.121-7.38-10.814-8.189zM89.69 55.936l.181 16.613c4.674-.911 10.677-4.366 10.633-8.423-.045-4.057-6.121-7.379-10.814-8.19z" style="" fill="#8fb346" data-original="#8fb346"></path><path d="M110.732 300.742h-4.063c-7.293 0-13.205-5.912-13.205-13.205v-41.231h30.473v41.231c0 7.293-5.912 13.205-13.205 13.205z" style="" fill="#a4c867" data-original="#a4c867" class=""></path><path d="M167.57 300.742h-4.063c-7.293 0-13.205-5.912-13.205-13.205v-41.231h30.473v41.231c0 7.293-5.912 13.205-13.205 13.205zM198.043 300.742h-4.063c-7.293 0-13.205-5.912-13.205-13.205v-41.231h30.473v41.231c0 7.293-5.912 13.205-13.205 13.205z" style="" fill="#9bc35c" data-original="#9bc35c" class=""></path><path d="m64.196 287.454-3.78-1.49c-6.785-2.674-10.117-10.342-7.443-17.127l15.119-38.359 28.35 11.174-15.119 38.359c-2.674 6.784-10.342 10.117-17.127 7.443z" style="" fill="#a4c867" data-original="#a4c867" class=""></path><path d="M271.248 190.742c8-27 8.25-32.75 20-50 4.946-7.261-18.667 1.333-28.297 30-6.491 19.322-21.393 32.36-41.703-10-5.868-12.239-14-41.5-60-40-22.706.74-50.136 27.304-59.875 20-12-9-10.204-29.624-10-60 .208-31 3.875-76.667-20.125-80C32.243-4.675 8.821 20.845 8.821 35.505c0 21.01 10.859 27.351 32.426 25.237 18.042-1.769 0 72 17.932 144.383 17.785 71.79 34.711 55.617 112.068 55.617 58.651 0 47.302-31.104 60-30 11.501 1 28.82-2.264 40.001-40z" style="" fill="#a4c867" data-original="#a4c867" class=""></path><circle cx="37.177" cy="31.321" r="10" style="" fill="#272525" data-original="#272525"></circle><circle cx="100.949" cy="220.949" r="9.421" style="" fill="#ffe477" data-original="#ffe477"></circle><circle cx="79.794" cy="200.949" r="9.421" style="" fill="#ffe477" data-original="#ffe477"></circle><path d="M262.951 170.742c-6.491 19.322-21.393 32.36-41.703-10-5.868-12.239-14-41.5-60-40-3.539.115-7.193.859-10.877 2.003v138.36a634.22 634.22 0 0 1 20.877-.363c58.651 0 47.302-31.104 60-30 11.5 1 28.819-2.264 40-40 8-27 8.25-32.75 20-50 4.945-7.26-18.667 1.334-28.297 30z" style="" fill="#9bc35c" data-original="#9bc35c" class=""></path><circle cx="198.043" cy="161.23" r="12.327" style="" fill="#f6d563" data-original="#f6d563" class=""></circle><circle cx="171.495" cy="152.325" r="9.421" style="" fill="#f6d563" data-original="#f6d563" class=""></circle><circle cx="187.425" cy="190.949" r="9.421" style="" fill="#f6d563" data-original="#f6d563" class=""></circle></g></svg>