<svg xmlns="http://www.w3.org/2000/svg" version="1.1" xmlns:xlink="http://www.w3.org/1999/xlink" width="512" height="512" x="0" y="0" viewBox="0 0 512 512" style="enable-background:new 0 0 512 512" xml:space="preserve" class=""><g><path fill="#fe860a" d="m99.68 187.458 15.358 10.957c10.29-13.105 22.972-24.656 37.787-34.239l-2.782-11.072a5.15 5.15 0 0 0-3.046-3.513l-43.053-17.601c-3.418-1.398-7.153 1.15-7.1 4.843l.676 46.507a5.153 5.153 0 0 0 2.16 4.118z" opacity="1" data-original="#fe860a"></path><path fill="#fe7701" d="M129.829 163.329a5.15 5.15 0 0 1 3.046 3.513l2.592 10.319a160.628 160.628 0 0 1 17.357-12.985l-2.782-11.072a5.15 5.15 0 0 0-3.046-3.513l-43.053-17.601c-3.418-1.398-7.153 1.15-7.1 4.843l.19 13.089z" opacity="1" data-original="#fe7701"></path><path fill="#fe860a" d="M58.53 268.301a5.15 5.15 0 0 0 3.929 2.487l22.663 2.184c1.699-16.822 6.163-32.771 13.13-47.466l-9.353-9.651a5.153 5.153 0 0 0-4.395-1.519l-46.086 6.283c-3.659.499-5.62 4.573-3.727 7.744z" opacity="1" data-original="#fe860a"></path><path fill="#fe7701" d="m42.07 240.725 42.434-5.785a5.153 5.153 0 0 1 4.395 1.519l3.439 3.549a141.977 141.977 0 0 1 5.914-14.501l-9.353-9.651a5.153 5.153 0 0 0-4.395-1.519l-46.086 6.283c-3.659.499-5.62 4.573-3.727 7.744z" opacity="1" data-original="#fe7701"></path><path fill="#fe860a" d="M183.585 148.386a155.239 155.239 0 0 1 47.347-10.497l.339-21.607a5.152 5.152 0 0 0-2.033-4.182l-37.03-28.144c-2.94-2.235-7.207-.74-8.111 2.84l-11.384 45.097a5.154 5.154 0 0 0 1.019 4.537z" opacity="1" data-original="#fe860a"></path><path fill="#fe7701" d="m229.237 112.1-37.03-28.144c-2.94-2.235-7.207-.74-8.111 2.84l-3.591 14.227 28.129 21.379a5.15 5.15 0 0 1 2.033 4.182l-.219 13.944a155.704 155.704 0 0 1 20.484-2.639l.339-21.607a5.155 5.155 0 0 0-2.034-4.182z" opacity="1" data-original="#fe7701"></path><path fill="#fe860a" d="M261.794 139.001a155.693 155.693 0 0 1 38.75 10.469l4.392 1.49 13.184-22.03a5.151 5.151 0 0 0 .33-4.638l-17.997-42.889c-1.429-3.405-5.871-4.245-8.444-1.596l-32.407 33.364a5.153 5.153 0 0 0-1.386 4.439z" opacity="1" data-original="#fe860a"></path><path fill="#fe7701" d="m318.45 124.292-17.997-42.889c-1.429-3.405-5.871-4.245-8.444-1.596l-8.959 9.223 14.797 35.262a5.15 5.15 0 0 1-.33 4.638l-9.555 15.967a157.2 157.2 0 0 1 12.582 4.573l4.392 1.49 13.184-22.03a5.148 5.148 0 0 0 .33-4.638z" opacity="1" data-original="#fe7701"></path><path fill="#fe860a" d="M360.118 169.68a35.517 35.517 0 0 0 11.437 1.89c7.963 0 15.669-2.653 22.036-7.448l5.604-5.431-6.635-48.667c-.499-3.659-4.573-5.62-7.744-3.727l-39.938 23.839a5.15 5.15 0 0 0-2.487 3.929l-2.763 28.664z" opacity="1" data-original="#fe860a"></path><path fill="#fe7701" d="M392.56 110.023c-.499-3.659-4.573-5.62-7.744-3.727l-12.262 7.319a5.086 5.086 0 0 1 2.096 3.476l5.853 53.343a37.076 37.076 0 0 0 13.087-6.313l5.604-5.431z" opacity="1" data-original="#fe7701"></path><path fill="#a2e62e" d="M397.272 407.297v-85.399a102.645 102.645 0 0 1-2.9 3.087c-11.143 11.348-24.55 19.753-39.195 24.784v78.745a5.243 5.243 0 0 0 5.243 5.243h40.738c3.813 0 6.351-3.941 4.773-7.412z" opacity="1" data-original="#a2e62e"></path><path fill="#97d729" d="m405.93 426.345-8.658-19.048v-85.399a102.645 102.645 0 0 1-2.9 3.087 101.644 101.644 0 0 1-17.703 14.383v65.698c0 1.471.315 2.924.923 4.263l7.735 17.016c1.578 3.471-.96 7.412-4.773 7.412h20.604c3.813 0 6.35-3.941 4.772-7.412z" opacity="1" data-original="#97d729"></path><path fill="#a2e62e" d="M200.5 355.224v73.29a5.243 5.243 0 0 0 5.243 5.243h40.738c3.813 0 6.351-3.941 4.773-7.412l-8.658-19.048v-28.865l15.729-13.597a34.934 34.934 0 0 0 7.763-9.611z" opacity="1" data-original="#a2e62e"></path><path fill="#97d729" d="M245.483 355.224a34.93 34.93 0 0 1-7.763 9.611l-12.164 10.515a10.301 10.301 0 0 0-3.565 7.794v21.922c0 1.471.315 2.924.923 4.263l7.735 17.016c1.578 3.471-.96 7.412-4.773 7.412h20.604c3.813 0 6.351-3.941 4.773-7.412l-8.658-19.048v-28.865l15.729-13.597a34.934 34.934 0 0 0 7.763-9.611z" opacity="1" data-original="#97d729"></path><path fill="#8bc727" d="M469.626 143.067h-38.714c-12.837 0-24.336 5.719-32.092 14.747-9.504 11.062-24.56 15.575-38.371 10.89l-59.51-20.186a157.44 157.44 0 0 0-121.886.604C121.451 173.64 83.915 224.404 83.3 286.905l-.029 5.52c0 39.022-21.267 74.943-55.48 93.709L1.638 400.48c-2.854 1.565-1.742 5.904 1.513 5.904h66.746c23.671 0 45.099-9.548 60.677-24.992v-67.825c0-18.71 15.221-33.931 33.931-33.931s33.931 15.221 33.931 33.931v24.818a33.895 33.895 0 0 1-5.097 17.868h92.55v-28.938c0-11.038 8.98-20.018 20.017-20.018s20.017 8.98 20.017 20.018v28.874c53.907-1.805 97.937-46.036 97.937-100.345l-.384-26.632h29.59a32.114 32.114 0 0 0 29.678-19.845l2.814-6.806h9.322c9.455 0 17.12-7.665 17.12-17.12 0-23.403-18.971-42.374-42.374-42.374z" opacity="1" data-original="#8bc727"></path><path fill="#81b823" d="M460.719 202.595a10.3 10.3 0 0 0-8.698 6.332l-.182.44c-4.965 12.011-13.985 19.845-26.982 19.845h28.209c12.741 0 24.234-7.539 29.36-19.151h-14.209a7.5 7.5 0 0 1-7.498-7.466zM469.626 143.067h-30.905c23.402 0 42.374 18.971 42.374 42.374 0 3.567-1.093 6.878-2.96 9.62h30.905a17.034 17.034 0 0 0 2.96-9.62c0-23.403-18.971-42.374-42.374-42.374zM423.477 229.213h-20.454c-5.748 0-10.384 4.703-10.301 10.45l.233 16.182c0 43.439-28.17 80.433-67.031 94.426v5.919c53.907-1.805 97.937-46.036 97.937-100.345zM130.574 356.254h-6.946a10.284 10.284 0 0 0-9.016 5.335c-14.658 26.693-43.017 44.794-75.62 44.794h30.905c23.671 0 45.099-9.548 60.677-24.992z" opacity="1" data-original="#81b823" class=""></path><path fill="#a2e62e" d="M330.839 433.757h-40.738a5.243 5.243 0 0 1-5.243-5.243V327.316c0-11.624 9.423-21.048 21.048-21.048 11.624 0 21.048 9.423 21.048 21.048v79.981l8.658 19.048c1.578 3.471-.96 7.412-4.773 7.412z" opacity="1" data-original="#a2e62e"></path><path fill="#97d729" d="m335.612 426.345-8.658-19.048v-79.981c0-11.624-9.423-21.048-21.048-21.048-3.745 0-7.255.989-10.302 2.704 6.409 3.608 10.746 10.465 10.746 18.344v77.749c0 1.471.315 2.924.923 4.263l7.735 17.016c1.578 3.471-.96 7.412-4.773 7.412h20.604c3.813.001 6.351-3.94 4.773-7.411z" opacity="1" data-original="#97d729"></path><path fill="#a2e62e" d="M129.544 313.567v114.947a5.243 5.243 0 0 0 5.243 5.243h40.856c3.825 0 6.362-3.963 4.762-7.437l-8.765-19.023v-28.865l15.729-13.597a34.96 34.96 0 0 0 12.098-26.449v-24.819c0-19.309-15.653-34.961-34.961-34.961-19.31 0-34.962 15.653-34.962 34.961z" opacity="1" data-original="#a2e62e"></path><path fill="#97d729" d="M164.505 278.606c-3.586 0-7.045.542-10.302 1.545 14.28 4.397 24.659 17.694 24.659 33.416v24.818a34.96 34.96 0 0 1-12.098 26.449L154.6 375.35a10.301 10.301 0 0 0-3.565 7.794v21.894c0 1.488.323 2.959.945 4.311l7.82 16.971c1.601 3.474-.937 7.437-4.762 7.437h20.604c3.825 0 6.362-3.963 4.762-7.437l-8.765-19.023v-28.865l15.729-13.597a34.96 34.96 0 0 0 12.098-26.449v-24.818c0-19.309-15.652-34.962-34.961-34.962z" opacity="1" data-original="#97d729"></path><path fill="#5b5555" d="M442.59 184.426a7.5 7.5 0 0 1-7.5-7.5v-5.151c0-4.142 3.357-7.5 7.5-7.5s7.5 3.358 7.5 7.5v5.151a7.5 7.5 0 0 1-7.5 7.5z" opacity="1" data-original="#5b5555"></path><ellipse cx="232.821" cy="183.314" fill="#fe860a" rx="28.33" ry="20.378" opacity="1" data-original="#fe860a"></ellipse><path fill="#fe7701" d="M232.821 162.937c-3.636 0-7.108.498-10.302 1.396 10.551 2.965 18.028 10.343 18.028 18.982s-7.478 16.017-18.028 18.982a38.112 38.112 0 0 0 10.302 1.396c15.646 0 28.33-9.124 28.33-20.378s-12.684-20.378-28.33-20.378z" opacity="1" data-original="#fe7701"></path><ellipse cx="320.675" cy="199.961" fill="#fe860a" rx="14.423" ry="20.051" transform="rotate(-76.77 320.574 199.841)" opacity="1" data-original="#fe860a"></ellipse><path fill="#fe7701" d="M323.973 185.921c-4.92-1.156-9.713-.889-13.653.466 9.136 3.227 14.965 10.723 13.314 17.754-.99 4.215-4.471 7.377-9.164 8.991.94.332 1.903.634 2.909.87 10.78 2.532 20.996-1.702 22.817-9.456 1.82-7.755-5.443-16.094-16.223-18.625z" opacity="1" data-original="#fe7701"></path><ellipse cx="156.072" cy="215.765" fill="#fe860a" rx="20.051" ry="14.423" transform="rotate(-30 156.06 215.77)" opacity="1" data-original="#fe860a"></ellipse><path fill="#fe7701" d="M173.437 205.74c-3.983-6.898-14.986-8.002-24.576-2.465-5.449 3.146-9.262 7.758-10.815 12.42.368-.236.73-.477 1.115-.699 9.59-5.537 20.593-4.433 24.576 2.465 1.72 2.979 1.842 6.552.662 10.096 8.812-5.653 12.861-15.196 9.038-21.817z" opacity="1" data-original="#fe7701"></path><path fill="#fe860a" d="M175.998 184.377a7.5 7.5 0 0 1-3.757-13.996l4.461-2.576a7.5 7.5 0 0 1 7.5 12.99l-4.461 2.576a7.465 7.465 0 0 1-3.743 1.006zM287.15 176.857a7.493 7.493 0 0 1-2.103-.302l-4.945-1.442c-3.977-1.16-6.26-5.323-5.101-9.299s5.316-6.264 9.3-5.101l4.945 1.442a7.5 7.5 0 0 1-2.096 14.702z" opacity="1" data-original="#fe860a"></path><path fill="#78a91f" d="M468.218 195.061c-4.143 0-7.5 3.358-7.5 7.5s3.357 7.5 7.5 7.5h14.209c.103-.233.22-.457.318-.694l2.814-6.806h9.322c5.888 0 11.079-2.974 14.16-7.5z" opacity="1" data-original="#78a91f"></path></g></svg>