<svg xmlns="http://www.w3.org/2000/svg" version="1.1" xmlns:xlink="http://www.w3.org/1999/xlink" width="512" height="512" x="0" y="0" viewBox="0 0 3000 3000" style="enable-background:new 0 0 512 512" xml:space="preserve" class=""><g><path fill="#99dddf" d="M2528.1 2074.3c-59.2 147-161.8 317-303.5 461-3 3-5.9 6-8.9 9-40.4 40.3-83.8 78.4-130.3 113.2-2.9 2.2-5.8 4.4-8.7 6.5-1.5 1.1-2.9 2.2-4.4 3.2-2.9 2.1-5.9 4.3-8.8 6.4-4.5 3.2-8.9 6.3-13.4 9.4-6 4.1-12 8.2-18.1 12.3l-13.8 9c-3.1 2-6.2 3.9-9.3 5.9-3.1 1.9-6.2 3.9-9.4 5.8-7.8 4.8-15.7 9.5-23.6 14.1-3.2 1.8-6.4 3.7-9.6 5.5l-9.6 5.4c-1.6.9-3.2 1.8-4.9 2.7-3.2 1.8-6.5 3.5-9.7 5.2-3.3 1.7-6.5 3.4-9.8 5.1s-6.6 3.4-9.9 5-6.6 3.3-10 4.9c-3.3 1.6-6.7 3.2-10 4.8-115.7 54.7-244.7 88.1-386.3 89.4h-1.2c-133.4 1.2-256.4-26.6-367.9-74-15-6.4-29.8-13.1-44.3-20.2-7.3-3.5-14.5-7.1-21.7-10.8h-.7c-5.1-2.6-10.2-5.3-15.2-8h.6c-4.8-2.6-9.6-5.2-14.3-7.8s-9.5-5.3-14.2-8-9.4-5.4-14-8.2h.1c-2-1.2-4-2.4-5.9-3.6l-7.8-4.8c-9.1-5.6-18.2-11.4-27.1-17.3-4.5-2.9-8.9-5.9-13.3-8.9-24.3-16.5-47.9-33.9-70.8-52-6.2-4.9-12.4-9.9-18.5-15-4.1-3.4-8.1-6.8-12.2-10.2-6-5.1-12-10.3-17.9-15.5-2-1.7-3.9-3.5-5.9-5.2l-11.7-10.5c-9.7-8.8-19.2-17.8-28.6-26.9-3.7-3.6-7.4-7.3-11.1-10.9-18.5-18.3-36.3-37.1-53.4-56.2-109.2-121.6-191.4-256.4-243.1-377-57.1-133-88.8-264.7-101.2-393-11.7-121.7-6.1-240.5 12-354.4 49.7-313.9 193.1-591.2 323.8-794.9 8.9-13.9 17.8-27.5 26.6-40.8 198.7-299.3 449.5-370.8 547.1-391.8 208.5-45 402.9 59.4 537.7 155.7h.4c31.2 22.3 59.2 44.2 83.4 63.7 2.2 1.8 4.4 3.5 6.5 5.2l6.3 5.1c2.1 1.7 4.1 3.3 6.1 5h.2c2.1 1.7 4.1 3.4 6.1 5h-.3c2.1 1.7 4.1 3.4 6.1 5h-.2c40.3 33 82 70.7 123.9 112.6 14 14 27.9 28.4 41.9 43.3 1.3 1.4 2.6 2.8 3.9 4.1 6.5 6.9 12.9 13.9 19.4 21.1 5.1 5.7 10.3 11.4 15.4 17.3 28.3 32 56.3 65.7 83.7 101 276.4 356.6 492.6 878.2 283.3 1398z" opacity="1" data-original="#99dddf" class=""></path><path fill="#23beab22" d="M2528.1 2074.3c-59.2 147-161.8 317-303.5 461l-9 9c-40.4 40.3-83.8 78.4-130.3 113.2-2.9 2.2-5.8 4.4-8.7 6.5-1.5 1.1-2.9 2.2-4.4 3.2-2.9 2.1-5.9 4.3-8.8 6.4-4.5 3.2-8.9 6.3-13.4 9.4-6 4.2-12 8.2-18.1 12.3l-13.8 9c-3.1 2-6.2 3.9-9.3 5.9-3.1 1.9-6.2 3.9-9.4 5.8-7.8 4.8-15.7 9.5-23.6 14.1-3.2 1.8-6.4 3.7-9.6 5.5l-9.6 5.4c-1.6.9-3.2 1.8-4.9 2.7-3.2 1.8-6.5 3.5-9.7 5.2-3.3 1.7-6.5 3.4-9.8 5.1s-6.6 3.4-9.9 5-6.6 3.3-10 4.9c-3.3 1.6-6.7 3.2-10 4.8-115.7 54.7-244.7 88.1-386.3 89.4h.9c-134.6 1.2-258.8-26.8-371.4-74.7-15.1-6.4-30.1-13.2-44.8-20.4-7.4-3.6-14.6-7.2-21.9-10.9h.6c-4.7-2.4-9.5-4.9-14.2-7.4-4.7-2.5-9.4-5.1-14-7.7-4.7-2.6-9.3-5.2-13.9-7.9s-9.2-5.3-13.8-8.1h-.3c-2-1.2-4-2.4-5.9-3.6l-7.8-4.8c-9.1-5.6-18.2-11.4-27.1-17.3-4.5-2.9-8.9-5.9-13.3-8.9-24.3-16.5-47.9-33.9-70.8-52-6.2-4.9-12.4-9.9-18.5-15-4.1-3.4-8.1-6.8-12.2-10.2-6-5.1-12-10.3-17.9-15.5-2-1.7-3.9-3.5-5.9-5.2l-11.7-10.5c-9.7-8.8-19.2-17.8-28.6-26.9-3.7-3.6-7.4-7.3-11.1-10.9-18.4-18.3-36.2-37.1-53.4-56.2-109.2-121.6-191.4-256.4-243.1-377 84.6 163.2 276.1 249.8 504.4 264.3 33.6 2.1 68 2.7 102.9 1.7 252.8-7 535.7-94.9 764.3-258.1 114.5-81.7 215.4-182.4 292.1-301.2 176.2-273.1 131.9-606.3 28.7-891.6-57.7-159.6-133.8-304.3-200-415-80.8-134.7-146.6-219.1-146.6-219.1h.2c31.3 22.4 59.3 44.3 83.5 63.8 2.2 1.8 4.4 3.5 6.5 5.2s4.3 3.4 6.3 5.1c2.1 1.7 4.1 3.3 6.1 5 2 1.6 4 3.2 5.9 4.8h.1c2.1 1.7 4.1 3.4 6.1 5h-.2c40.3 33 82 70.7 123.9 112.6 14 14 28 28.4 41.9 43.3 1.3 1.4 2.6 2.8 3.9 4.1 6.5 6.9 12.9 13.9 19.4 21.1 5.2 5.7 10.3 11.4 15.4 17.3 28.3 32 56.3 65.7 83.7 101 276.8 356.6 493.1 878.2 283.7 1398z" opacity="1" data-original="#23beab22" class=""></path><g fill="#23beaa"><path d="m2224.8 2535.1-9 9c-40.4 40.3-83.9 78.4-130.3 113.3-2.9 2.2-5.8 4.4-8.7 6.5-1.5 1.1-2.9 2.2-4.4 3.2-2.9 2.1-5.9 4.3-8.8 6.4-4.5 3.2-8.9 6.3-13.4 9.4-6 4.2-12 8.3-18.1 12.3l-13.8 9c-3.1 2-6.2 3.9-9.3 5.9-3.1 1.9-6.2 3.9-9.4 5.8-7.8 4.8-15.7 9.5-23.7 14.1-3.2 1.8-6.4 3.7-9.6 5.5l-9.6 5.4c-1.6.9-3.2 1.8-4.9 2.7-3.2 1.8-6.5 3.5-9.7 5.2-3.3 1.7-6.5 3.4-9.8 5.1s-6.6 3.4-9.9 5c-3.3 1.7-6.6 3.3-10 4.9-3.3 1.6-6.7 3.2-10 4.8-115.7 54.7-244.8 88.2-386.4 89.4h.9c-134.6 1.2-258.8-26.8-371.4-74.7-15.1-6.4-30.1-13.2-44.8-20.4-7.4-3.6-14.7-7.2-21.9-10.9h.6c-4.8-2.4-9.5-4.9-14.2-7.4-4.7-2.5-9.4-5.1-14-7.7-4.7-2.6-9.3-5.2-13.9-7.9-4.6-2.6-9.2-5.3-13.8-8.1h-.6l-6-3.6c-5.8-12-11-24.5-15.7-37.5-36-99.5-33.3-208.4-1.4-308.7 32.2-101.1 94-193.4 175.9-258.5 252.5-200.6 580.4-50.8 643.8-21.9 14.9 6.8 31 14.8 48 23.9 140.5 75.5 338.6 227.7 357.3 420.5zM1941.5 1912.1c-144.1-112.5-54.5-646.6 211.9-702.7 178.5-37.6 414.7 143.9 423.3 321.9 13.1 267.4-489.2 494.8-635.2 380.8zM1042 979.5c0 238.3-193.2 431.5-431.5 431.5-73.8 0-143.3-18.5-204-51.2 49.7-313.9 193.1-591.2 323.8-794.9 180 51.9 311.7 217.9 311.7 414.6zM1046.5 609.7c-24.4-111.2 53-221.3 160.9-245.8 101.7-23.1 212.8 33.7 245.8 135.4 35.6 109.8-33 231-143.9 262.8-112.7 32.2-237.5-37-262.8-152.4z" fill="#23beaa" opacity="1" data-original="#23beaa"></path></g></g></svg>