<svg xmlns="http://www.w3.org/2000/svg" version="1.1" xmlns:xlink="http://www.w3.org/1999/xlink" width="512" height="512" x="0" y="0" viewBox="0 0 384 384.035" style="enable-background:new 0 0 512 512" xml:space="preserve" class=""><g><path fill="#ecb86f" d="M296.078 224c.035 9.953-.61 19.895-1.918 29.762-6.16 47.199-27.12 81.597-56.96 103.117A149.458 149.458 0 0 1 148.077 384a168.496 168.496 0 0 1-43.117-5.441 132.891 132.891 0 0 1-84-64.637v-.082A183.237 183.237 0 0 1 .078 224a281.964 281.964 0 0 1 4.32-48.16A292.753 292.753 0 0 1 45.441 69.12C72 28.078 108.161 0 148.078 0c81.762 0 148 118 148 224zm0 0" opacity="1" data-original="#ecb86f" class=""></path><path fill="#b8aa7a" d="M294.16 253.762c-6.16 47.199-27.12 81.597-56.96 103.117-22.895-7.535-39.052-28.055-41.005-52.078-1.953-24.024 10.672-46.883 32.051-58.02 21.375-11.136 47.344-8.39 65.914 6.98zM68.078 116c0 33.137-26.86 60-60 60a28.261 28.261 0 0 1-3.68-.16A292.753 292.753 0 0 1 45.441 69.12 59.648 59.648 0 0 1 68.078 116zm0 0" opacity="1" data-original="#b8aa7a"></path><g fill="#b18a53"><path d="M236.078 108c0 19.883-16.117 36-36 36-19.879 0-36-16.117-36-36s16.121-36 36-36c19.883 0 36 16.117 36 36zM148.078 180c0 15.465-12.535 28-28 28-15.46 0-28-12.535-28-28s12.54-28 28-28c15.465 0 28 12.535 28 28zM140.078 324a59.921 59.921 0 0 1-35.117 54.559 132.891 132.891 0 0 1-84-64.637v-.082c5.312-30.672 33.2-52.192 64.219-49.543 31.015 2.644 54.86 28.574 54.898 59.703zm0 0" fill="#b18a53" opacity="1" data-original="#b18a53"></path></g></g></svg>