<svg xmlns="http://www.w3.org/2000/svg" version="1.1" xmlns:xlink="http://www.w3.org/1999/xlink" width="512" height="512" x="0" y="0" viewBox="0 0 512.032 512.032" style="enable-background:new 0 0 512 512" xml:space="preserve" class=""><g><path d="M146.208 333.744c0 60.656 49.168 109.808 109.808 109.808 0-60.64-49.168-109.808-109.808-109.808zM365.824 360.144c0 60.656-49.168 109.808-109.808 109.808 0-60.64 49.168-109.808 109.808-109.808z" style="" fill="#8cc63e" data-original="#8cc63e"></path><path d="M246.016 208.32h20v303.712h-20z" style="" fill="#9a795f" data-original="#9a795f" class=""></path><path d="M353.216 186.496C331.184 116.64 253.984 0 253.984 0s-77.2 116.64-99.232 186.496h198.464z" style="" fill="#bf3332" data-original="#bf3332"></path><path d="M341.536 161.632c33.744 47.232 22.8 112.864-24.416 146.608s-112.864 22.8-146.608-24.416-40.496-237.488-40.496-237.488 177.792 68.064 211.52 115.296z" style="" fill="#d03f3e" data-original="#d03f3e"></path><path d="M170.496 161.632c-33.744 47.232-22.8 112.864 24.416 146.608s112.864 22.8 146.608-24.416 40.496-237.472 40.496-237.472-177.792 68.048-211.52 115.28z" style="" fill="#e14b4b" data-original="#e14b4b" class=""></path></g></svg>