<svg xmlns="http://www.w3.org/2000/svg" version="1.1" xmlns:xlink="http://www.w3.org/1999/xlink" width="512" height="512" x="0" y="0" viewBox="0 0 512.048 512.048" style="enable-background:new 0 0 512 512" xml:space="preserve" class=""><g><path d="M354.984 159.52c-40.16 40.32-98.88 46.88-98.88 46.88s6.56-58.72 46.88-99.04 99.04-46.88 99.04-46.88-6.72 58.72-47.04 99.04zM209.064 107.36c40.32 40.32 47.04 99.04 47.04 99.04s-58.72-6.56-99.04-46.88-47.04-99.04-47.04-99.04 58.72 6.56 99.04 46.88z" style="" fill="#f4c534" data-original="#f4c534" class=""></path><path d="M354.984 253.44c40.32 40.32 47.04 98.88 47.04 98.88s-58.72-6.56-99.04-46.88-46.88-99.04-46.88-99.04 58.72 6.72 98.88 47.04zM157.064 253.44c40.32-40.32 99.04-47.04 99.04-47.04s-6.72 58.72-47.04 99.04-99.04 46.88-99.04 46.88 6.72-58.56 47.04-98.88z" style="" fill="#f4c534" data-original="#f4c534" class=""></path><path d="M365.848 379.616c0 60.656-49.168 109.808-109.808 109.808-.016-60.64 49.152-109.808 109.808-109.808zM146.216 379.616c0 60.656 49.168 109.808 109.808 109.808 0-60.64-49.152-109.808-109.808-109.808z" style="" fill="#8cc63e" data-original="#8cc63e"></path><path d="M246.024 208.336h20v303.712h-20z" style="" fill="#8f6d52" data-original="#8f6d52"></path><path d="M359.304 243.2c-53.6 0-97.44-32.32-102.72-36.32 4 5.28 36.32 49.28 36.32 102.72 0 57.12-36.8 103.2-36.8 103.2s-36.96-46.08-36.96-103.2c0-53.44 32.48-97.44 36.48-102.72-5.28 4-49.28 36.32-102.88 36.32-56.96 0-103.2-36.8-103.2-36.8s46.24-36.8 103.2-36.8c53.6 0 97.6 32.32 102.88 36.32-4-5.28-36.48-49.28-36.48-102.72 0-56.96 36.96-103.2 36.96-103.2s36.8 46.24 36.8 103.2c0 53.44-32.32 97.44-36.32 102.72 5.28-4 49.12-36.32 102.72-36.32 56.96 0 103.2 36.8 103.2 36.8s-46.24 36.8-103.2 36.8z" style="" fill="#ffd93b" data-original="#ffd93b"></path><circle cx="256.024" cy="206.448" r="62.528" style="" fill="#e9b02c" data-original="#e9b02c"></circle><circle cx="256.024" cy="206.448" r="40.096" style="" fill="#5a5f63" data-original="#5a5f63" class=""></circle></g></svg>