<svg xmlns="http://www.w3.org/2000/svg" version="1.1" xmlns:xlink="http://www.w3.org/1999/xlink" width="512" height="512" x="0" y="0" viewBox="0 0 511.92 511.92" style="enable-background:new 0 0 512 512" xml:space="preserve" class=""><g><path d="M136.232 360.272c0 64.304 52.128 116.416 116.416 116.416.016-64.304-52.112-116.416-116.416-116.416zM375.688 360.272c0 64.304-52.128 116.416-116.416 116.416-.016-64.304 52.112-116.416 116.416-116.416z" style="" fill="#8cc63e" data-original="#8cc63e"></path><path d="M245.352 190h21.2v321.92h-21.2z" style="" fill="#9a795f" data-original="#9a795f"></path><path d="M435.384 179.424c0-26.64-17.616-49.12-41.696-57.056 11.408-22.624 7.968-50.976-10.864-69.824S335.64 30.272 313 41.68C305.08 17.616 282.6 0 255.96 0s-49.12 17.616-57.056 41.696c-22.624-11.424-50.976-7.984-69.808 10.848s-22.272 47.2-10.864 69.824c-24.08 7.92-41.696 30.416-41.696 57.056s17.616 49.12 41.696 57.056c-11.408 22.624-7.968 50.976 10.864 69.824 18.832 18.832 47.184 22.272 69.824 10.864 7.92 24.08 30.416 41.696 57.056 41.696 26.64 0 49.12-17.616 57.056-41.696 22.624 11.408 50.976 7.968 69.824-10.864 18.832-18.832 22.272-47.184 10.864-69.824 24.048-7.936 41.664-30.432 41.664-57.056z" style="" fill="#e84d88" data-original="#e84d88" class=""></path><circle cx="255.96" cy="179.424" r="73.248" style="" fill="#ffffff" data-original="#ffffff" class=""></circle><circle cx="255.96" cy="179.424" r="45.696" style="" fill="#e84d88" data-original="#e84d88" class=""></circle></g></svg>