<svg xmlns="http://www.w3.org/2000/svg" version="1.1" xmlns:xlink="http://www.w3.org/1999/xlink" width="512" height="512" x="0" y="0" viewBox="0 0 64 64" style="enable-background:new 0 0 512 512" xml:space="preserve" class=""><g><path fill="#80d34a" d="M10.506 55.492c-.944 0-1.773-.63-2.016-1.543-.815-3.061-1.848-6.74-3.518-10.963-2.009-5.08-3.736-8.636-4.877-10.798-.374-.708.431-1.45 1.105-1.017 4.023 2.584 11.883 8.161 17.023 15.223 2.523 3.501 4.201 6.656 5.307 9.098z" opacity="1" data-original="#80d34a"></path><path fill="#66a53d" d="M51.515 55.492c.948 0 1.774-.632 2.017-1.548.986-3.714 2.231-8.209 4.28-13.389 2.56-6.475 4.736-10.875 6.09-13.393.382-.711-.426-1.453-1.108-1.021-4.635 2.935-14.46 9.762-20.809 18.486-3.013 4.18-5.017 7.949-6.338 10.865z" opacity="1" data-original="#66a53d"></path><path fill="#66a53d" d="M15.578 55.492c-.304-5.217-.642-11.79-2.05-19.536-1.718-9.446-3.49-15.516-4.5-18.56-.244-.732.604-1.319 1.22-.855 4.615 3.471 15.832 12.731 21.779 24.74a68.046 68.046 0 0 1 5.102 14.21z" opacity="1" data-original="#66a53d"></path><path fill="#80d34a" d="M45.145 55.492c.363-6.23.766-14.082 2.448-23.333 2.14-11.766 4.35-19.146 5.526-22.615.247-.73-.585-1.335-1.203-.876-5.231 3.888-19.134 15.144-26.417 29.85-3.19 6.532-5.018 12.419-6.093 16.974z" opacity="1" data-original="#80d34a"></path></g></svg>