<svg xmlns="http://www.w3.org/2000/svg" version="1.1" xmlns:xlink="http://www.w3.org/1999/xlink" width="512" height="512" x="0" y="0" viewBox="0 0 512 512" style="enable-background:new 0 0 512 512" xml:space="preserve" class=""><g><path d="M394.172 47.444c-70.711 63.193-115.177 158.871-140.233 242.108 27.863 92.561 34.269 169.736 34.269 169.736h46.478c0-205.012 47.326-340.496 74.313-401.088 4.11-9.229-7.293-17.489-14.827-10.756z" style="" fill="#8dce55" data-original="#8dce55"></path><path d="M264.821 256.265a746.557 746.557 0 0 0-10.882 33.286c27.863 92.561 34.27 169.736 34.27 169.736h21.659c-.001-.006-8.008-96.452-45.047-203.022z" style="" fill="#6dc82a" data-original="#6dc82a"></path><path d="M332.022 459.288s17.166-206.893 128.16-306.085c5.599-5.004 14.074 1.135 11.019 7.994-20.056 45.032-55.229 145.725-55.229 298.091h-83.95z" style="" fill="#8dce55" data-original="#8dce55"></path><path d="M471.2 161.197c3.055-6.859-5.42-12.998-11.019-7.994-110.993 99.192-128.159 306.085-128.159 306.085h24.206s15.386-185.41 111.192-289.34a436.523 436.523 0 0 1 3.78-8.751z" style="" fill="#6dc82a" data-original="#6dc82a"></path><path d="M419.152 459.288s11.399-137.384 85.102-203.251c3.718-3.322 9.346.754 7.317 5.308-13.318 29.903-36.674 96.766-36.674 197.943h-55.745z" style="" fill="#8dce55" data-original="#8dce55"></path><path d="M511.571 261.345c2.029-4.555-3.599-8.631-7.317-5.308-73.703 65.867-85.102 203.251-85.102 203.251h20.605s9.298-111.972 65.339-182.206a314.107 314.107 0 0 1 6.475-15.737z" style="" fill="#6dc82a" data-original="#6dc82a"></path><path d="M290.269 459.288S267.172 180.909 117.828 47.444c-7.533-6.732-18.937 1.527-14.826 10.756 26.986 60.591 74.312 196.076 74.312 401.088h112.955z" style="" fill="#8dce55" data-original="#8dce55"></path><path d="M124.091 53.201a321.422 321.422 0 0 0-6.263-5.758c-7.533-6.732-18.937 1.527-14.826 10.756 26.986 60.591 74.312 196.076 74.312 401.088h21.893c0-205.012-47.326-340.496-74.312-401.088-.772-1.73-.997-3.427-.804-4.998z" style="" fill="#6dc82a" data-original="#6dc82a"></path><path d="M179.978 459.288s-17.166-206.893-128.16-306.085c-5.599-5.004-14.074 1.135-11.019 7.994 20.056 45.032 55.229 145.725 55.229 298.091h83.95z" style="" fill="#8dce55" data-original="#8dce55"></path><path d="M51.818 153.203c-5.599-5.004-14.074 1.135-11.019 7.994 20.056 45.032 55.229 145.725 55.229 298.091h21.635c0-148.225-33.285-247.54-53.56-294.288a241.508 241.508 0 0 0-12.285-11.797z" style="" fill="#6dc82a" data-original="#6dc82a"></path><path d="M92.848 459.288S81.449 321.904 7.746 256.037c-3.718-3.322-9.346.754-7.317 5.308 13.318 29.903 36.674 96.766 36.674 197.943h55.745z" style="" fill="#8dce55" data-original="#8dce55"></path><path d="M7.746 256.037c-3.718-3.322-9.346.754-7.317 5.308 13.318 29.903 36.674 96.766 36.674 197.943h20.862c0-85.65-16.736-146.702-29.953-181.566-6.171-7.801-12.903-15.104-20.266-21.685z" style="" fill="#6dc82a" data-original="#6dc82a"></path><path d="M497.892 467.014H14.959a7.727 7.727 0 0 1 0-15.454h482.932a7.727 7.727 0 0 1 .001 15.454z" style="" fill="#6dc82a" data-original="#6dc82a"></path></g></svg>