<svg xmlns="http://www.w3.org/2000/svg" version="1.1" xmlns:xlink="http://www.w3.org/1999/xlink" width="512" height="512" x="0" y="0" viewBox="0 0 128 128" style="enable-background:new 0 0 512 512" xml:space="preserve" class=""><g><path fill="#436b2c" d="M9.4 122.173h26.155c-2.882-39.43-24.091-71.546-32.592-78.86C17 84.508 9.4 122.173 9.4 122.173z" opacity="1" data-original="#436b2c" class=""></path><path fill="#56913a" d="M75.64 122.172H37.051a194.5 194.5 0 0 1 6.029-34.956c.32-1.2.649-2.395.988-3.573C55.288 44.2 76.049 14.791 85.142 5.827 64.431 66.605 75.64 122.172 75.64 122.172zM123.085 122.173h-11.958c.423-19.093 11.025-32.629 14.873-35.965a68.16 68.16 0 0 0-2.915 35.965z" opacity="1" data-original="#56913a"></path><path fill="#a9e863" d="m29.324 66.348-.039-.038" opacity="1" data-original="#a9e863"></path><path fill="#56913a" d="M111.279 122.173H80.691c1.081-48.482 28.2-82.852 38.045-91.323-17.861 49.106-7.457 91.323-7.457 91.323z" opacity="1" data-original="#56913a"></path><path fill="#436b2c" d="M115.905 122.173H99.8c.569-25.724 14.853-43.96 20.037-48.454-9.412 26.054-3.932 48.454-3.932 48.454zM82.639 122.173H61.1C63.472 89.7 80.941 63.242 87.943 57.218c-11.564 33.931-5.304 64.955-5.304 64.955z" opacity="1" data-original="#436b2c" class=""></path><path fill="#56913a" d="M33.894 122.173H52.42C50.379 94.241 35.355 71.491 29.333 66.31a118.643 118.643 0 0 1 4.561 55.863z" opacity="1" data-original="#56913a"></path><path d="M55.148 122.172h-2.725a101.44 101.44 0 0 0-9.343-34.956c.32-1.2.649-2.395.988-3.573a102.509 102.509 0 0 1 11.08 38.529z" opacity="1" fill="#00000008" data-original="#00000008"></path><path fill="#56913a" d="M5.409 122.173h13.846C17.729 101.3 6.5 84.294 2 80.421a88.673 88.673 0 0 1 3.409 41.752z" opacity="1" data-original="#56913a"></path></g></svg>