<svg xmlns="http://www.w3.org/2000/svg" version="1.1" xmlns:xlink="http://www.w3.org/1999/xlink" width="512" height="512" x="0" y="0" viewBox="0 0 512 512" style="enable-background:new 0 0 512 512" xml:space="preserve" class=""><g><path fill="#e7e7e7" d="M512 256c0 141.387-114.613 256-256 256S0 397.387 0 256 114.613 0 256 0s256 114.613 256 256zm0 0" opacity="1" data-original="#e7e7e7" class=""></path><path fill="#cecece" d="M31.25 256C31.25 119.863 137.52 8.566 271.625.488A258.933 258.933 0 0 0 256 0C114.613 0 0 114.613 0 256s114.613 256 256 256c5.246 0 10.453-.176 15.625-.488C137.52 503.434 31.25 392.137 31.25 256zM473.445 391.137c-9.914-20.89-31.191-35.34-55.855-35.34-34.125 0-61.793 27.664-61.793 61.793 0 24.664 14.45 45.941 35.34 55.855a257.316 257.316 0 0 0 82.308-82.308zm0 0" opacity="1" data-original="#cecece"></path><path fill="#bfbfbf" d="M387.047 417.59c0-28.73 19.61-52.88 46.176-59.8a61.922 61.922 0 0 0-15.633-1.993c-34.125 0-61.793 27.664-61.793 61.793 0 24.664 14.45 45.941 35.34 55.855a256.723 256.723 0 0 0 15.648-10.593c-12.14-11.282-19.738-27.383-19.738-45.262zm0 0" opacity="1" data-original="#bfbfbf"></path><path fill="#cecece" d="M316.7 111.156c0 34.13-27.669 61.793-61.798 61.793-34.125 0-61.793-27.664-61.793-61.793s27.668-61.797 61.793-61.797c34.13 0 61.797 27.668 61.797 61.797zm0 0" opacity="1" data-original="#cecece"></path><path fill="#bfbfbf" d="M224.36 111.156c0-28.73 19.605-52.879 46.167-59.797-4.988-1.3-10.222-2-15.62-2-34.13 0-61.798 27.668-61.798 61.797s27.668 61.793 61.797 61.793c5.399 0 10.633-.695 15.621-1.996-26.562-6.922-46.168-31.066-46.168-59.797zm0 0" opacity="1" data-original="#bfbfbf"></path><path fill="#cecece" d="M503.52 190.465C485.66 122.84 440.828 66.184 381.227 32.687c-12.106 17.032-19.22 37.856-19.22 60.34 0 57.594 46.688 104.285 104.286 104.285 13.117 0 25.664-2.43 37.227-6.847zm0 0" opacity="1" data-original="#cecece"></path><path fill="#bfbfbf" d="M393.254 93.027c0-16.496 3.844-32.09 10.664-45.957a257.086 257.086 0 0 0-22.691-14.382c-12.106 17.03-19.22 37.855-19.22 60.34 0 57.593 46.688 104.284 104.286 104.284 5.289 0 10.48-.414 15.559-1.175-50.153-7.567-88.598-50.848-88.598-103.11zm0 0" opacity="1" data-original="#bfbfbf"></path><path fill="#cecece" d="M440.555 269.844c0 17.062-13.836 30.894-30.899 30.894s-30.898-13.832-30.898-30.894c0-17.067 13.836-30.899 30.898-30.899s30.899 13.832 30.899 30.899zm0 0" opacity="1" data-original="#cecece"></path><g fill="#bfbfbf"><path d="M410.008 269.844c0-11.364 6.137-21.285 15.273-26.656a30.767 30.767 0 0 0-15.625-4.243c-17.062 0-30.898 13.832-30.898 30.895 0 17.066 13.836 30.898 30.898 30.898 5.703 0 11.04-1.55 15.625-4.246-9.136-5.363-15.273-15.289-15.273-26.648zM297.93 259.281c0 10.254-8.313 18.567-18.563 18.567-10.254 0-18.562-8.313-18.562-18.567 0-10.25 8.308-18.562 18.562-18.562 10.25 0 18.563 8.312 18.563 18.562zM307.535 417.59c0 7.781-6.305 14.086-14.082 14.086-7.781 0-14.086-6.305-14.086-14.086 0-7.777 6.305-14.082 14.086-14.082 7.777 0 14.082 6.305 14.082 14.082zm0 0" fill="#bfbfbf" opacity="1" data-original="#bfbfbf"></path></g></g></svg>