<svg xmlns="http://www.w3.org/2000/svg" version="1.1" xmlns:xlink="http://www.w3.org/1999/xlink" width="512" height="512" x="0" y="0" viewBox="0 0 500 500" style="enable-background:new 0 0 512 512" xml:space="preserve" class=""><g><path fill="#946c45" d="M27.137 255.581a2.134 2.134 0 0 1-1.019-4.012c10.288-5.576 13.94-19.705 13.977-19.846.286-1.147 1.451-1.852 2.588-1.551a2.134 2.134 0 0 1 1.556 2.586c-.162.651-4.123 16.081-16.085 22.566a2.154 2.154 0 0 1-1.017.257z" opacity="1" data-original="#946c45"></path><path fill="#c4996d" d="M333.369 126.885a2.137 2.137 0 0 1-2.135-2.085 2.137 2.137 0 0 1 2.085-2.185c.406-.009 40.658-.959 51.203-3.236a2.133 2.133 0 1 1 .901 4.171c-10.939 2.364-50.334 3.299-52.004 3.336l-.05-.001z" opacity="1" data-original="#c4996d"></path><path fill="#946c45" d="M426.711 326.114c-.023.028-23.717 35.226-47.503 48.977-25.036 14.447-55.89 22.972-87.902 27.604-30.22 4.374-62.169 6.116-92.39 1.743-32.012-4.632-62.501-15.097-87.537-29.544-25.452-14.69-43.032-32.509-50.932-51.384-38.136-57.396-27.485-126.572 18.212-164.02 0 27.929-2.428 104.492 34.426 125.802 25.036 14.447 54.252 24.866 86.263 29.498 30.22 4.374 61.311 2.703 91.532-1.67 32.012-4.633 64.428-8.262 89.464-22.71 36.768-21.267 48.415-66.271 48.501-94.156 2.947 3.288 49.41 65.888-2.134 129.86z" opacity="1" data-original="#946c45"></path><path fill="#c4996d" d="M435.439 210.636c-.086 27.885-16.47 65.248-53.239 86.516-25.036 14.447-58.61 16.154-90.621 20.787-30.221 4.374-64.83 3.578-95.051-.796-32.012-4.632-64.289-8.698-89.326-23.145-36.854-21.31-47.141-55.607-47.141-83.536 0-27.844 14.364-56.647 51.218-77.914 25.036-14.447 55.427-26.092 87.439-30.725 30.221-4.374 62.735-3.836 92.955.538 32.012 4.633 61.367 17.67 86.404 32.117 36.94 21.352 57.405 48.229 57.362 76.158z" opacity="1" data-original="#c4996d"></path><path fill="#946c45" d="M378.096 236.434c-6.577 11.487-17.423 23.614-33.224 32.71-27.245 15.736-63.946 22.206-99.658 22.206s-71.513-8.029-98.758-23.765c-15.8-9.096-24.889-21.203-31.465-32.69-16.313-28.014-7.502-59.7 31.188-82.035 27.246-15.715 63.323-24.035 99.035-24.035s70.197 11.08 97.442 26.795c38.691 22.333 51.752 52.8 35.44 80.814z" opacity="1" data-original="#946c45"></path><path fill="#c4996d" d="M371.355 231.994c-6.157 10.756-18.391 21.83-33.185 30.347-25.509 14.733-59.521 20.83-92.956 20.83-33.436 0-65.835-8.892-91.344-23.625-14.794-8.516-26.973-16.796-33.13-27.551 6.157-10.755 16.141-22.842 30.935-31.359 25.509-14.714 60.104-19.327 93.539-19.327s66.293 7.627 91.803 22.341c14.794 8.516 28.181 17.589 34.338 28.344z" opacity="1" data-original="#c4996d"></path><path fill="#946c45" d="M56.525 300.012h-.043v-2.861c0 .94.043 1.922.043 2.861zM219.378 302.603c-59.094.004-100.068-27.812-110.923-42.738-12.184-16.752-18.885-51.987-15.191-67.072 10.73-43.81 90.18-65.149 93.558-66.034l3.735-.988c22.505-5.959 60.178-15.943 92.955-9.521 33.276 6.51 100.426 33.501 115.785 64.099 13.247 26.39 2.654 45.04-7.588 63.081-1.654 2.911-3.305 5.817-4.848 8.749-14.242 27.074-94.127 42.021-140.478 48.518a194.19 194.19 0 0 1-27.005 1.906zm41.189-184.159c-25.675 0-51.769 6.914-68.918 11.456l-3.743.988c-27.756 7.29-82.387 29.822-90.492 62.922-3.415 13.941 3.126 47.909 14.494 63.544 11.967 16.452 62.28 49.135 133.883 39.113 77.496-10.868 127.536-27.733 137.293-46.274 1.564-2.973 3.236-5.922 4.913-8.874 10.136-17.849 19.707-34.706 7.486-59.052-14.734-29.355-80.252-55.462-112.791-61.829-7.185-1.406-14.637-1.994-22.125-1.994zM95.339 193.302h.042z" opacity="1" data-original="#946c45"></path><path fill="#946c45" d="M241.984 312.307c-36.712 0-77.55-3.957-92.507-9.83-24.165-9.496-37.66-15.409-56.673-36.065C76.408 248.6 76.341 235.31 76.27 221.239c-.015-2.54-.027-5.13-.133-7.82-1.545-38.597 33.609-69.499 50.876-78.419 17.084-8.825 75.162-23.817 100.161-26.936 24.444-3.049 84.437 2.21 110.688 9.713 24.868 7.106 56.973 24.155 72.503 50.695 13.491 23.062 13.122 26.094 10.722 45.82a977.925 977.925 0 0 0-.798 6.71c-2.767 24.217-19.396 39.205-35.479 53.693-1.76 1.589-3.524 3.178-5.273 4.78-13.46 12.344-33.311 16.748-56.297 21.852-8.247 1.831-16.773 3.724-25.477 6.097-12.508 3.411-33.376 4.883-55.779 4.883zm2.944-200.836c-6.762 0-12.673.263-17.223.83-24.136 3.015-82.311 18.012-98.731 26.494-15.823 8.17-50.018 38.263-48.57 74.458.111 2.736.123 5.38.138 7.965.069 13.796.13 25.706 15.404 42.3 18.378 19.967 31.53 25.727 55.092 34.981 23.623 9.283 113.158 13.649 145.604 4.804 8.799-2.402 17.378-4.304 25.673-6.147 22.386-4.967 41.722-9.262 54.337-20.827a702.323 702.323 0 0 1 5.301-4.804c16.206-14.605 31.513-28.396 34.097-51.008.282-2.46.553-4.696.801-6.739 2.35-19.313 2.596-21.331-10.169-43.147-14.909-25.481-47.021-42.187-69.989-48.751-20.45-5.842-63.519-10.409-91.765-10.409z" opacity="1" data-original="#946c45"></path><path fill="#784f36" d="M127.991 206.568a2.135 2.135 0 0 1-1.764-3.337c2.733-4.02 4.804-7.49 6.633-10.547 6.673-11.176 10.349-17.332 30.736-25.126 7.236-2.765 12.665-5.434 17.457-7.786 12.021-5.901 20.706-10.167 44.902-10.167 25.981 0 41.622 5.417 58.181 11.151 5.04 1.748 10.251 3.554 15.912 5.267 8.505 2.577 17.249 3.599 25.704 4.583 15.336 1.789 29.824 3.474 37.074 14.867.634.996.34 2.314-.654 2.948a2.149 2.149 0 0 1-2.949-.654c-6.159-9.68-19.046-11.181-33.967-12.92-8.641-1.009-17.576-2.048-26.447-4.738-5.74-1.739-10.993-3.557-16.073-5.317-16.913-5.859-31.517-10.918-56.781-10.918-23.204 0-31.088 3.87-43.019 9.729-4.873 2.394-10.399 5.104-17.814 7.941-19.006 7.265-22.211 12.632-28.596 23.325-1.858 3.115-3.964 6.639-6.767 10.764a2.125 2.125 0 0 1-1.768.935z" opacity="1" data-original="#784f36"></path><path fill="#784f36" d="M376.611 219.183a2.128 2.128 0 0 1-1.662-.793c-6.03-7.461-16.904-16.373-28.381-23.258-6.685-4.012-30.074-17.302-50.378-19.88-8.672-1.101-18.962-2.602-28.831-4.041-11.281-1.647-21.936-3.203-29.022-3.991-13.068-1.48-57.874 9.725-67.643 15.893a2.125 2.125 0 0 1-2.946-.667 2.134 2.134 0 0 1 .665-2.944c10.441-6.589 56.4-18.045 70.396-16.527 7.16.796 17.849 2.356 29.165 4.008 9.844 1.439 20.105 2.936 28.755 4.033 21.129 2.681 45.171 16.335 52.037 20.455 11.877 7.123 23.181 16.411 29.503 24.234a2.135 2.135 0 0 1-1.658 3.478zM313.53 153.876c-.19 0-.382-.025-.574-.08-4.516-1.255-8.357-2.423-11.92-3.512-6.865-2.089-12.795-3.895-20.554-5.35a2.135 2.135 0 0 1-1.708-2.49 2.144 2.144 0 0 1 2.492-1.706c7.992 1.497 14.027 3.332 21.015 5.463 3.532 1.076 7.339 2.235 11.818 3.482a2.136 2.136 0 0 1-.569 4.193zM259.879 338.351c-14.809 0-29.48-.663-43.405-1.293-4.869-.217-9.66-.433-14.35-.617-38.357-1.506-105.159-28.108-125.194-43.393-20.023-15.276-26.223-62.15-22.515-76.534a2.145 2.145 0 0 1 2.602-1.534 2.138 2.138 0 0 1 1.535 2.602c-3.407 13.207 2.573 58.034 20.968 72.072 19.601 14.951 86.333 41.09 122.771 42.516 4.698.188 9.498.405 14.378.622 33.982 1.547 72.493 3.278 105.996-5.013 8.287-2.052 15.829-3.703 23.122-5.3 25.627-5.614 44.145-9.671 55.925-23.383 15.23-17.724 31.659-50.031 31.822-50.357a2.152 2.152 0 0 1 2.869-.943 2.137 2.137 0 0 1 .943 2.869c-.68 1.343-16.823 33.096-32.393 51.216-12.711 14.792-31.813 18.975-58.251 24.768-7.267 1.593-14.78 3.24-23.01 5.275-20.252 5.014-42.173 6.427-63.813 6.427z" opacity="1" data-original="#784f36"></path><path fill="#784f36" d="M224.762 364.733c-34.919 0-64.432-4.596-92.278-14.312-22.795-7.949-33.265-19.151-41.678-28.154-3.586-3.836-6.973-7.461-10.847-10.363-13.645-10.222-29.678-45.72-30.354-47.225a2.137 2.137 0 0 1 1.074-2.824c1.072-.496 2.338-.004 2.822 1.072.16.358 16.256 35.994 29.019 45.557 4.177 3.132 7.688 6.889 11.408 10.868 8.514 9.108 18.164 19.434 39.963 27.041 29.622 10.334 61.187 14.809 99.442 13.979 19.449-.404 36.63-5.225 53.245-9.888 13.27-3.724 25.806-7.244 37.965-7.915 5.491-.304 10.499-.425 15.149-.534 18.045-.425 29.966-.704 44.025-10.939 17.1-12.444 33.765-30.64 41.47-45.278a2.132 2.132 0 0 1 2.883-.896 2.132 2.132 0 0 1 .895 2.881c-7.982 15.168-25.156 33.951-42.734 46.746-15.139 11.018-28.267 11.327-46.437 11.756-4.61.109-9.573.225-15.013.526-11.694.65-24.009 4.103-37.049 7.765-16.085 4.512-34.318 9.63-54.311 10.046a444.6 444.6 0 0 1-8.659.091z" opacity="1" data-original="#784f36"></path><path fill="#784f36" d="M219.215 350.391c-32.062 0-77.71-11.544-79.874-12.098a2.136 2.136 0 0 1-1.541-2.598 2.123 2.123 0 0 1 2.596-1.539c.59.15 59.34 14.988 89.761 11.389 1.186-.159 2.233.696 2.373 1.864a2.133 2.133 0 0 1-1.868 2.373c-3.516.421-7.374.609-11.447.609zM273.08 375.034a2.138 2.138 0 0 1-2.092-1.714 2.138 2.138 0 0 1 1.672-2.515c.436-.088 43.816-8.77 66.697-10.338 22.176-1.514 29.789-4.504 44.454-14.009 8.728-5.655 16.583-15.71 23.515-24.576 4.389-5.617 8.182-10.467 11.535-13.316a2.135 2.135 0 0 1 2.765 3.253c-3.022 2.569-6.689 7.26-10.935 12.69-6.785 8.683-15.228 19.488-24.557 25.535-15.142 9.809-23.529 13.115-46.484 14.684-22.606 1.547-65.715 10.176-66.146 10.263-.143.03-.285.043-.424.043zM212.043 377.861c-8.816 0-18.272-.726-27.397-2.886-10.818-2.56-18.264-3.795-24.833-4.879-10.603-1.751-18.264-3.02-32.591-8.566-23.421-9.066-31.674-15.843-40.029-23.754a2.135 2.135 0 0 1-.082-3.019 2.132 2.132 0 0 1 3.017-.083c8.011 7.586 15.941 14.087 38.636 22.878 13.914 5.384 21.394 6.618 31.744 8.332 6.637 1.097 14.159 2.34 25.12 4.938 20.693 4.892 43.459 2.102 55.695.601 5.069-.621 7.179-.875 8.359-.609a2.133 2.133 0 1 1-.901 4.17c-.663-.083-3.858.3-6.938.68-7.176.879-17.907 2.197-29.8 2.197zM210.206 393.179c-4.077 0-8.558-.467-14.434-1.877a2.137 2.137 0 0 1-1.578-2.577c.273-1.143 1.431-1.864 2.575-1.577 10.296 2.473 15.795 1.872 23.404 1.03 5.722-.625 12.828-1.397 23.928-1.088 24.794.717 40.431.133 62.249-5.138 17.484-4.221 33.99-8.441 41.145-10.267l3.363-.859c1.151-.279 2.302.413 2.59 1.556s-.409 2.302-1.552 2.59l-3.344.851c-7.165 1.831-23.692 6.055-41.201 10.284-22.286 5.38-38.178 5.972-63.375 5.254-10.786-.317-17.455.421-23.335 1.064-3.613.395-6.868.754-10.435.754zM165.101 387.649c-.198 0-.403-.029-.603-.088-13.944-4.099-25.454-8.657-32.41-12.832a2.132 2.132 0 0 1-.732-2.928 2.129 2.129 0 0 1 2.93-.734c6.654 3.991 17.811 8.395 31.417 12.399a2.13 2.13 0 0 1 1.445 2.648 2.132 2.132 0 0 1-2.047 1.535z" opacity="1" data-original="#784f36"></path><path fill="#946c45" d="M441.683 268.477a2.135 2.135 0 0 1-2.073-2.653c1.952-7.807 3.957-13.85 5.897-19.692 1.754-5.284 3.568-10.747 5.301-17.432a2.139 2.139 0 0 1 2.602-1.535 2.135 2.135 0 0 1 1.53 2.602c-1.768 6.827-3.603 12.361-5.38 17.712-1.916 5.767-3.895 11.731-5.809 19.38a2.132 2.132 0 0 1-2.068 1.618zM437.081 239.051a2.135 2.135 0 0 1-2.073-2.652c1.939-7.774 7.379-28.546 7.379-28.546l4.133 1.085c-.002 0-5.432 20.739-7.371 28.496a2.13 2.13 0 0 1-2.068 1.617z" opacity="1" data-original="#946c45"></path><path fill="#c4996d" d="M444.456 190.141c-.1 0-.202-.009-.304-.021-17.007-2.427-29.883-16.998-30.496-19.455a2.14 2.14 0 0 1 1.556-2.589 2.144 2.144 0 0 1 2.535 1.372c1.147 2.152 12.442 14.367 27.009 16.444a2.134 2.134 0 0 1 1.812 2.415 2.133 2.133 0 0 1-2.112 1.834zM72.699 183.443a2.136 2.136 0 0 1-2.123-2.39c.507-4.195 1.272-8.745 2.01-13.149 2.004-11.932 4.272-25.456.54-28.905a2.133 2.133 0 0 1-.119-3.015 2.126 2.126 0 0 1 3.017-.121c5.428 5.013 3.167 18.488.773 32.75-.732 4.354-1.487 8.854-1.981 12.949a2.135 2.135 0 0 1-2.117 1.881zM83.969 285.308c-.496 0-.997-.171-1.399-.521-12.444-10.806-9.836-36.157-9.719-37.233.128-1.172 1.172-2.001 2.354-1.889a2.135 2.135 0 0 1 1.891 2.352c-.027.242-2.484 24.205 8.272 33.542.89.776.986 2.123.212 3.015a2.13 2.13 0 0 1-1.611.734zM199.98 329.789h-.05c-7.327-.175-12.457-2.268-15.245-6.217-3.707-5.251-1.664-11.652-1.576-11.923a2.132 2.132 0 0 1 2.696-1.359 2.135 2.135 0 0 1 1.364 2.686c-.025.083-1.443 4.7 1.023 8.162 1.973 2.769 5.956 4.241 11.838 4.383a2.138 2.138 0 0 1 2.085 2.185 2.136 2.136 0 0 1-2.135 2.083zM278.393 329.819c-.365 0-.72-.013-1.061-.033a2.138 2.138 0 0 1-1.985-2.277c.083-1.176 1.111-2.102 2.277-1.985 10.67.634 37.437-14.004 46.232-18.85 2.16-1.188 3.601-1.968 4.025-2.135a2.139 2.139 0 0 1 2.775 1.189 2.138 2.138 0 0 1-1.184 2.773c-.415.175-1.675.88-3.556 1.914-16.512 9.094-36.655 19.404-47.523 19.404zM145.488 120.108c-5.766 0-11.262-.488-16.404-.943-4.241-.379-8.246-.734-11.769-.734-1.18 0-2.135-.955-2.135-2.135s.955-2.135 2.135-2.135c3.712 0 7.809.363 12.146.751 9.669.859 20.633 1.835 32.012-.701a2.157 2.157 0 0 1 2.548 1.622 2.14 2.14 0 0 1-1.622 2.548c-5.826 1.298-11.488 1.727-16.911 1.727zM216.888 105.278c-7.941 0-15.317-3.649-20.199-6.064-1.689-.834-3.793-1.877-4.414-1.918-1.147-.08-2.092-1.059-2.05-2.206.04-1.151.915-2.064 2.067-2.064 1.516 0 3.415.938 6.291 2.36 4.525 2.239 11.365 5.622 18.306 5.622a2.134 2.134 0 1 1-.001 4.27z" opacity="1" data-original="#c4996d"></path><path fill="#946c45" d="M83.971 367.364a2.129 2.129 0 0 1-1.687-.826c-13.149-16.902-17.534-38.697-19.407-48.001-.382-1.897-.776-3.862-.972-4.308-.628-1.001-.298-2.264.701-2.89 1.001-.63 2.344-.28 2.973.725.494.784.749 1.977 1.485 5.63 1.814 9.012 6.06 30.114 18.589 46.224.724.93.557 2.272-.373 2.994a2.11 2.11 0 0 1-1.309.452zM312.801 406.912c-11.819 0-25.11-1.247-37.221-2.382-9.707-.909-18.875-1.772-26.394-1.939a2.138 2.138 0 0 1-2.087-2.185c.029-1.172.92-2.119 2.183-2.085 7.669.175 16.913 1.038 26.697 1.956 16.379 1.543 34.937 3.274 48.712 1.814 1.151-.133 2.225.725 2.348 1.897a2.133 2.133 0 0 1-1.897 2.348c-3.826.409-7.983.576-12.341.576zM403.332 387.649a2.137 2.137 0 0 1-2.123-2.377c1.172-10.243 7.278-37.859 9.577-48.251.438-1.985.728-3.299.805-3.678.23-1.16 1.343-1.931 2.513-1.677a2.134 2.134 0 0 1 1.674 2.511c-.077.392-.375 1.735-.823 3.765-2.285 10.335-8.356 37.792-9.504 47.813a2.135 2.135 0 0 1-2.119 1.894zM47.33 325.561a2.138 2.138 0 0 1-1.95-3.003c3.822-8.599 3.795-20.114 3.779-26.294-.011-3.924.012-5.096.565-6.013a2.135 2.135 0 0 1 3.794 1.939c-.096.571-.092 2.423-.088 4.062.017 6.502.048 18.608-4.146 28.042a2.136 2.136 0 0 1-1.954 1.267zM441.679 285.308a2.135 2.135 0 0 1-.25-4.254c.267-.033 26.826-3.378 29.334-17.624.202-1.159 1.314-1.964 2.473-1.73a2.13 2.13 0 0 1 1.73 2.473c-3.057 17.362-31.812 20.977-33.033 21.119a1.824 1.824 0 0 1-.254.016zM146.906 231.369a2.136 2.136 0 0 1-1.595-3.557c9.949-11.164 52.753-30.486 76.574-32.387 23.988-1.935 69.322 10.334 82.06 16.014a2.136 2.136 0 0 1-1.739 3.903c-12.444-5.554-56.686-17.457-79.979-15.664-22.551 1.802-64.446 20.556-73.725 30.978a2.142 2.142 0 0 1-1.596.713zM245.274 268.902c-19.436 0-34.345-2.807-35.367-3.003a2.137 2.137 0 0 1-1.691-2.502c.223-1.155 1.328-1.901 2.501-1.693.409.088 41.19 7.749 75.761-2.327 34.33-9.992 52.432-37.604 52.611-37.879a2.125 2.125 0 0 1 2.95-.638 2.133 2.133 0 0 1 .641 2.949c-.765 1.188-19.161 29.234-55.009 39.673-14.284 4.157-29.361 5.42-42.397 5.42z" opacity="1" data-original="#946c45"></path><path fill="#946c45" d="M204.592 239.051a2.134 2.134 0 0 1-1.018-4.013c1.12-.609 27.545-14.779 49.504-14.521a2.135 2.135 0 0 1-.025 4.271c-.175.041-.382-.009-.572-.004-20.701 0-46.616 13.87-46.876 14.008a2.11 2.11 0 0 1-1.013.259zM257.754 249.885c-.328 0-.559-.02-.684-.062a2.18 2.18 0 0 1-1.456-2.035c0-1.297 1.22-2.298 2.473-2.11 3.654-.171 33.855-5.438 41.197-14.759a2.135 2.135 0 0 1 3.353 2.645c-8.29 10.525-39.505 16.321-44.883 16.321zm2.131-2.097h.041z" opacity="1" data-original="#946c45"></path></g></svg>