<svg xmlns="http://www.w3.org/2000/svg" version="1.1" xmlns:xlink="http://www.w3.org/1999/xlink" width="512" height="512" x="0" y="0" viewBox="0 0 64 64" style="enable-background:new 0 0 512 512" xml:space="preserve" class=""><g><path fill="#a0d468" d="M37.98 57.998H25.99v-3c0-1.1.89-1.99 2-1.99 1.1 0 2 .891 2 1.99H30v-1c0-1.1.9-2 2-2s2 .9 2 2v1c0-1.1.9-1.99 2-1.99s2 .891 2 1.99h-.02zM48 47.008c-7.73 0-14-6.27-14-14 0-7.729 6.27-28.01 14-28.01s14 20.28 14 28.01-6.27 14-14 14zM16.01 45.008H16c-7.73 0-14-6.27-14-14 0-7.729 6.27-14 14-14s14 6.271 14 14c0 7.73-6.26 13.99-13.99 14z" opacity="1" data-original="#a0d468" class=""></path><path fill="#844747" d="M16.006 40.002a.999.999 0 0 1-.707-1.707l4.997-4.998a.999.999 0 1 1 1.414 1.414l-4.997 4.998a.997.997 0 0 1-.707.293zM47.995 40.002a.997.997 0 0 1-.707-.293l-4.997-4.998a.999.999 0 1 1 1.414-1.414l4.997 4.998a.999.999 0 0 1-.707 1.707z" opacity="1" data-original="#844747"></path><path fill="#965353" d="M16.006 59.002a1 1 0 0 1-1-1v-27a1 1 0 1 1 2 0v27a1 1 0 0 1-1 1zM47.995 59.002a1 1 0 0 1-1-1v-27a1 1 0 1 1 2 0v27a1 1 0 0 1-1 1z" opacity="1" data-original="#965353"></path><path fill="#8cc152" d="M2.002 59.002a1 1 0 0 1-1-1v-1a1 1 0 1 1 2 0v1a1 1 0 0 1-1 1zM6 59.002a1 1 0 0 1-1-1v-1a1 1 0 1 1 2 0v1a1 1 0 0 1-1 1zM9.998 59.002a1 1 0 0 1-1-1v-1a1 1 0 1 1 2 0v1a1 1 0 0 1-1 1zM13.996 59.002a1 1 0 0 1-1-1v-1a1 1 0 1 1 2 0v1a1 1 0 0 1-1 1zM17.994 59.002a1 1 0 0 1-1-1v-1a1 1 0 1 1 2 0v1a1 1 0 0 1-1 1zM21.992 59.002a1 1 0 0 1-1-1v-1a1 1 0 1 1 2 0v1a1 1 0 0 1-1 1zM25.99 59.002a1 1 0 0 1-1-1v-1a1 1 0 1 1 2 0v1a1 1 0 0 1-1 1zM41.982 59.002a1 1 0 0 1-1-1v-1a1 1 0 1 1 2 0v1a1 1 0 0 1-1 1zM38 59.002a1 1 0 0 1-1-1v-1a1 1 0 1 1 2 0v1a1 1 0 0 1-1 1zM34 59.002a1 1 0 0 1-1-1v-1a1 1 0 1 1 2 0v1a1 1 0 0 1-1 1zM30 59.002a1 1 0 0 1-1-1v-1a1 1 0 1 1 2 0v1a1 1 0 0 1-1 1zM45.98 59.002a1 1 0 0 1-1-1v-1a1 1 0 1 1 2 0v1a1 1 0 0 1-1 1zM49.979 59.002a1 1 0 0 1-1-1v-1a1 1 0 1 1 2 0v1a1 1 0 0 1-1 1zM53.977 59.002a1 1 0 0 1-1-1v-1a1 1 0 1 1 2 0v1a1 1 0 0 1-1 1zM57.975 59.002a1 1 0 0 1-1-1v-1a1 1 0 1 1 2 0v1a1 1 0 0 1-1 1zM61.973 59.002a1 1 0 0 1-1-1v-1a1 1 0 1 1 2 0v1a1 1 0 0 1-1 1z" opacity="1" data-original="#8cc152"></path><path fill="#a0d468" d="M63 59.002H1a1 1 0 1 1 0-2h62a1 1 0 1 1 0 2z" opacity="1" data-original="#a0d468" class=""></path></g></svg>