<svg xmlns="http://www.w3.org/2000/svg" version="1.1" xmlns:xlink="http://www.w3.org/1999/xlink" width="512" height="512" x="0" y="0" viewBox="0 0 512 512" style="enable-background:new 0 0 512 512" xml:space="preserve" class=""><g><path fill="#f5a871" d="M237.777 499.165c-29.268-72.717-60.469-188.413-60.469-351.309h-24.705s-30.938 190.311 18.074 354.719a5.188 5.188 0 0 0 4.974 3.693h57.314c3.664 0 6.18-3.703 4.812-7.103z" opacity="1" data-original="#f5a871"></path><path fill="#e89a5e" d="M232.963 506.271h-17.349c-29.938-71.85-63.066-189.01-63.371-356.068.231-1.553.357-2.351.357-2.351h24.702c0 162.897 31.21 278.6 60.473 351.316 1.369 3.4-1.147 7.103-4.812 7.103z" opacity="1" data-original="#e89a5e"></path><path fill="#2db181" d="M158.075 106.901c-17.361 6.305-110.621 45.853-115.076 169.188-.17 4.693 5.001 7.636 8.974 5.132 11.421-7.199 31.777-23.165 50.716-54.004.952-1.55 3.216-1.524 4.127.051l3.123 5.396c1.967 3.399 6.653 3.949 9.338 1.083 14.247-15.206 50.524-60.943 41.978-124.93-.202-1.504-1.753-2.434-3.18-1.916z" opacity="1" data-original="#2db181"></path><path fill="#1ca56f" d="M119.273 233.748c-2.686 2.865-7.367 2.319-9.339-1.081l-3.115-5.393c-.91-1.575-3.175-1.604-4.126-.055-18.942 30.835-39.289 46.796-50.715 54.001-3.977 2.508-9.15-.472-8.983-5.173.22-5.918.64-11.648 1.249-17.189 11.018-7.818 26.948-21.879 42.331-45.406 2.518-3.851 8.216-3.704 10.515.283a5.837 5.837 0 0 0 5.079 2.928 5.782 5.782 0 0 0 4.26-1.847c12.687-13.537 42.814-51.261 43.255-104.506a131.587 131.587 0 0 1 8.394-3.407c1.428-.519 2.981.41 3.182 1.916 8.538 63.984-27.739 109.719-41.987 124.929z" opacity="1" data-original="#1ca56f"></path><path fill="#a3e440" d="M164.186 106.901c16.933 6.15 106.07 43.923 114.587 160.221.632 8.632-9.119 14.063-16.054 8.884-11.687-8.728-27.878-23.924-43.147-48.788-.952-1.55-3.216-1.524-4.127.051l-3.123 5.396c-1.967 3.399-6.653 3.949-9.338 1.083-14.247-15.206-50.524-60.943-41.978-124.93.201-1.505 1.753-2.435 3.18-1.917z" opacity="1" data-original="#a3e440"></path><path fill="#99d53b" d="M262.72 276.006a137.082 137.082 0 0 1-5.341-4.208c-8.71-90.392-66.718-131.757-97.611-147.571.133-5.004.538-10.143 1.238-15.404.201-1.509 1.76-2.435 3.191-1.915 16.966 6.165 106.066 43.95 114.578 160.221.63 8.625-9.119 14.061-16.055 8.877z" opacity="1" data-original="#99d53b"></path><path fill="#1ca56f" d="M164.45 109.321c-2.07-.133-3.02-2.641-1.536-4.09 10.759-10.499 45.881-37.658 106.047-17.862 66.113 21.753 66.103 93.07 62.07 126.949-.672 5.647-8.211 7.11-10.946 2.125-17.58-32.045-65.732-101.362-155.635-107.122z" opacity="1" data-original="#1ca56f"></path><path fill="#158f5e" d="M331.028 214.317c-.672 5.656-8.206 7.115-10.945 2.12a238.987 238.987 0 0 0-12.97-20.966c-1.112-35.594-13.169-80.759-63.423-97.286-27.462-9.035-49.708-8.29-66.792-3.809 17.482-10.85 48.082-21.48 92.06-7.01 66.12 21.753 66.11 93.078 62.07 126.951z" opacity="1" data-original="#158f5e"></path><path fill="#a3e440" d="M160.012 104.939c-7.549-13.667-34.743-49.01-110.352-38.004-5.632.82-7.722 7.866-3.435 11.61l.006.005a2.403 2.403 0 0 1-.508 3.962C33.208 88.775-9.721 116.308 2.009 194.998c.797 5.349 7.832 6.801 10.734 2.237 20.221-31.801 77.194-108.736 144.503-88.86 2.038.602 3.794-1.576 2.766-3.436z" opacity="1" data-original="#a3e440"></path><path fill="#99d53b" d="M160.008 104.935c1.033 1.869-.727 4.043-2.775 3.439C89.932 88.512 32.965 165.436 12.74 197.231c-2.896 4.565-9.937 3.117-10.735-2.235A180.994 180.994 0 0 1 .41 180.484c.944-.441 1.794-1.165 2.445-2.183C23.17 146.359 80.581 68.853 148.296 89.735c5.894 5.773 9.583 11.347 11.712 15.2z" opacity="1" data-original="#99d53b"></path><path fill="#1ca56f" d="M163.724 107.312c-.934 1.881-3.657 1.769-4.389-.199-5.85-15.726-19.128-64.238 27.418-90.097 53.366-29.648 82.007 6.227 93.069 26.236 2.422 4.38-1.356 9.585-6.263 8.603-23.883-4.778-78.532-7.596-109.835 55.457z" opacity="1" data-original="#1ca56f"></path><path fill="#158f5e" d="M273.56 51.859c-23.883-4.781-78.535-7.604-109.836 55.45-.939 1.891-3.664 1.761-4.4-.218a105.193 105.193 0 0 1-4.541-16.113c27.105-63.455 81.115-64.368 105.062-61.272 3.452.441 6.149-2.057 6.559-5.026 5.929 6.254 10.347 13.022 13.421 18.574 2.413 4.376-1.354 9.581-6.265 8.605z" opacity="1" data-original="#158f5e"></path><path fill="#d68a5a" d="M169.281 313.864a7.776 7.776 0 0 1-7.773 7.773h-17.972c-.176-5.244-.311-10.427-.404-15.547h18.376a7.777 7.777 0 0 1 7.773 7.774zM177.531 360.504a7.77 7.77 0 0 1-7.773 7.773h-23.444a755.152 755.152 0 0 1-1.192-15.547h24.636a7.777 7.777 0 0 1 7.773 7.774zM208.262 408.823h-30.855c-4.301 0-7.773-3.483-7.773-7.773s3.472-7.773 7.773-7.773h26.989a895.27 895.27 0 0 0 3.866 15.546zM184.185 276.034h-17.433a7.769 7.769 0 0 1-7.773-7.773 7.775 7.775 0 0 1 7.773-7.773h15.816a862.712 862.712 0 0 0 1.617 15.546zM185.18 457.888a7.775 7.775 0 0 1-7.773 7.773h-16.355a626.91 626.91 0 0 1-3.306-15.547h19.661a7.77 7.77 0 0 1 7.773 7.774z" opacity="1" data-original="#d68a5a"></path><path fill="#e89a5e" d="M388.181 502.089c23.055-118.478 3.61-238.116 3.61-238.116h-19.663c0 100.633-14.962 178.636-32.552 235.576-1.031 3.338 1.454 6.719 4.948 6.719h38.567a5.183 5.183 0 0 0 5.09-4.179z" opacity="1" data-original="#e89a5e"></path><path fill="#d68a5a" d="M383.093 506.271h-20.757c15.835-77.915 12.949-156.953 8.993-202.705.525-12.781.798-25.982.798-39.592h19.665s19.446 119.641-3.608 238.118a5.183 5.183 0 0 1-5.091 4.179z" opacity="1" data-original="#d68a5a"></path><path fill="#2db181" d="M388.026 231.828c15.212 5.66 87.492 37.595 90.998 134.423.135 3.732-3.974 6.097-7.133 4.106-8.564-5.397-23.448-16.991-37.753-38.853-2.013-3.077-6.546-2.985-8.388.198l-.002.004c-1.57 2.713-5.305 3.133-7.448.845-11.301-12.066-39.945-48.198-33.481-98.757.196-1.536 1.756-2.506 3.207-1.966z" opacity="1" data-original="#2db181"></path><path fill="#1ca56f" d="M479.024 366.232c.136 3.746-3.988 6.107-7.146 4.113-4.082-2.571-9.612-6.559-15.824-12.403-8.269-63.423-47.567-95.03-72.164-108.85-.035-4.933.258-10.037.931-15.301.197-1.539 1.754-2.508 3.208-1.967 15.214 5.663 87.485 37.599 90.995 134.408z" opacity="1" data-original="#1ca56f"></path><path fill="#a3e440" d="M381.981 231.828c-15.212 5.66-87.492 37.595-90.998 134.423-.135 3.732 3.974 6.097 7.133 4.106 8.564-5.397 23.448-16.991 37.753-38.853 2.013-3.077 6.546-2.985 8.388.198l.002.004c1.57 2.713 5.305 3.133 7.448.845 11.301-12.066 39.945-48.198 33.481-98.757-.197-1.536-1.756-2.506-3.207-1.966z" opacity="1" data-original="#a3e440"></path><path fill="#99d53b" d="M351.695 332.569c-2.141 2.277-5.866 1.847-7.44-.86-1.839-3.185-6.375-3.28-8.389-.202-14.297 21.85-29.169 33.443-37.741 38.84-3.159 1.994-7.283-.367-7.146-4.113.21-5.761.661-11.291 1.333-16.601 7.955-6.661 17.626-16.613 27.036-31.01 2.001-3.061 6.537-2.922 8.37.243 1.564 2.697 5.289 3.138 7.429.861 10.032-10.714 33.779-40.421 34.419-82.375 5.416-2.768 9.773-4.542 12.412-5.525 1.453-.541 3.01.43 3.207 1.969 6.471 50.581-22.206 86.717-33.49 98.773z" opacity="1" data-original="#99d53b"></path><path fill="#2db181" d="M381.677 234.018c2.093-.057 3.132-2.56 1.668-4.057-9.046-9.246-35.837-30.305-82.896-17.088-53.335 14.98-55.824 71.695-53.804 98.771.337 4.517 6.276 5.94 8.627 2.069 15.024-24.734 55.401-77.746 126.405-79.695z" opacity="1" data-original="#2db181"></path><path fill="#1ca56f" d="M383.332 229.949c1.468 1.5.443 4.009-1.655 4.067-70.998 1.954-111.379 54.962-126.402 79.7-2.351 3.872-8.29 2.445-8.626-2.078-.388-5.247-.619-11.595-.336-18.553 16.916-25.993 56.078-72.227 121.746-74.735 7.165 4.031 12.224 8.483 15.273 11.599z" opacity="1" data-original="#1ca56f"></path><path fill="#a3e440" d="M385.287 228.735c6.706-11.355 28.207-36.684 84.147-29.54 5.689.727 7.844 7.848 3.525 11.621s48.335 17.644 37.441 90.722c-.634 4.256-6.23 5.417-8.538 1.786-15.974-25.124-60.787-85.671-113.858-71.06-2.097.577-3.823-1.657-2.717-3.529z" opacity="1" data-original="#a3e440"></path><path fill="#99d53b" d="M512 281.017c0 6.296-.493 13.117-1.595 20.515-.64 4.26-6.233 5.415-8.552 1.784a260.183 260.183 0 0 0-7.902-11.711c-1.383-42.381-25.703-59.487-35.203-64.573-1.634-.875-2.453-2.82-1.838-4.569 1.312-3.736-.975-8.247-5.447-8.815-28.543-3.641-48.113 1.165-61.335 8.259 10.231-12.246 32.939-28.627 79.31-22.708 4.266.543 6.542 4.687 5.59 8.314-.572 2.177.571 4.435 2.535 5.535C487.892 218.835 512 237.053 512 281.017z" opacity="1" data-original="#99d53b"></path><path fill="#a3e440" d="M382.932 230.726c.361 2.063 3.021 2.702 4.268 1.02 8.556-11.537 28.011-44.346-.581-74.027-33.71-34.993-63.863-14.361-76.942-1.709-2.863 2.77-1.206 7.61 2.759 8.005 19.161 1.912 60.99 12.368 70.496 66.711z" opacity="1" data-original="#a3e440"></path><path fill="#99d53b" d="M382.927 230.731a104.243 104.243 0 0 0-2.445-10.729c4.628-14.754 4.68-33.579-12.382-51.292-20.316-21.092-39.34-21.973-54.115-16.569 14.691-12.277 42.216-26.003 72.637 5.583 28.597 29.681 9.131 62.489.574 74.023-1.248 1.679-3.908 1.045-4.269-1.016z" opacity="1" data-original="#99d53b"></path><path fill="#c97d53" d="M377.357 452.944a7.776 7.776 0 0 1-7.773 7.773h-19.35a668.736 668.736 0 0 0 3.565-15.547h15.785a7.778 7.778 0 0 1 7.773 7.774zM398.697 410.015a690.735 690.735 0 0 1-.85 15.547h-13.816a7.776 7.776 0 0 1-7.773-7.773 7.77 7.77 0 0 1 7.773-7.773h14.666zM399.443 378.32a792.916 792.916 0 0 1-.197 15.547h-9.97a7.776 7.776 0 0 1-7.773-7.773 7.775 7.775 0 0 1 7.773-7.773h10.167zM374.237 483.363a7.769 7.769 0 0 1-7.773 7.773h-24.346a602.186 602.186 0 0 0 4.332-15.547h20.014a7.77 7.77 0 0 1 7.773 7.774z" opacity="1" data-original="#c97d53"></path></g></svg>