<svg xmlns="http://www.w3.org/2000/svg" version="1.1" xmlns:xlink="http://www.w3.org/1999/xlink" width="512" height="512" x="0" y="0" viewBox="0 0 512 512" style="enable-background:new 0 0 512 512" xml:space="preserve" class=""><g><path fill="#22b27f" d="M396.707 256.112c0-14.531 6.213-27.704 16.287-37.368a38.065 38.065 0 0 1-2.312-13.05c0-22.456 19.552-40.66 43.672-40.66 24.119 0 43.672 18.204 43.672 40.66 0 4.567-.821 8.953-2.312 13.05C505.787 228.408 512 241.581 512 256.112c0 9.444-2.629 18.313-7.229 26.022 4.6 7.709 7.229 16.578 7.229 26.022 0 29.642-25.809 53.671-57.647 53.671s-57.647-24.029-57.647-53.671c0-9.444 2.629-18.313 7.229-26.022-4.599-7.709-7.228-16.578-7.228-26.022z" opacity="1" data-original="#22b27f"></path><path fill="#09a76d" d="M512 256.112c0-14.531-6.213-27.704-16.287-37.367a38.066 38.066 0 0 0 2.312-13.051c0-22.456-19.553-40.66-43.672-40.66-3.01 0-5.948.284-8.786.824 21.293 16.597 36.043 52.561 36.043 94.263 0 46.724-18.514 86.253-44.005 99.398a61.57 61.57 0 0 0 16.749 2.309c31.837 0 57.647-24.029 57.647-53.671 0-9.444-2.629-18.313-7.229-26.022 4.599-7.709 7.228-16.579 7.228-26.023z" opacity="1" data-original="#09a76d"></path><path fill="#dd7f66" d="M461.854 419.598V272.906c0-4.143-3.357-7.5-7.5-7.5s-7.5 3.357-7.5 7.5v134.829a231.02 231.02 0 0 1 15 11.863z" opacity="1" data-original="#dd7f66"></path><path fill="#22b27f" d="M149.979 204.819c0-14.531 6.213-27.704 16.287-37.368a38.065 38.065 0 0 1-2.312-13.05c0-22.456 19.552-40.66 43.672-40.66s43.672 18.204 43.672 40.66c0 4.567-.821 8.953-2.312 13.05 10.074 9.664 16.287 22.837 16.287 37.368 0 9.444-2.629 18.313-7.229 26.022 4.6 7.709 7.229 16.578 7.229 26.022 0 29.642-25.809 53.671-57.647 53.671s-57.647-24.029-57.647-53.671c0-9.444 2.629-18.313 7.229-26.022-4.601-7.709-7.229-16.578-7.229-26.022z" opacity="1" data-original="#22b27f"></path><path fill="#09a76d" d="M265.272 204.819c0-14.531-6.213-27.704-16.287-37.367a38.066 38.066 0 0 0 2.312-13.051c0-22.456-19.553-40.66-43.672-40.66-3.447 0-6.796.383-10.012 1.086 21.676 16.344 36.753 52.65 36.753 94.814 0 45.996-17.943 85.016-42.82 98.761a61.629 61.629 0 0 0 16.079 2.132c31.837 0 57.647-24.029 57.647-53.671 0-9.444-2.629-18.313-7.229-26.022 4.6-7.709 7.229-16.578 7.229-26.022z" opacity="1" data-original="#09a76d"></path><path fill="#dd7f66" d="m210.721 407.599.451.113.377-.272a224.991 224.991 0 0 1 3.576-2.526v-183.3c0-4.143-3.357-7.5-7.5-7.5s-7.5 3.357-7.5 7.5v183.641c3.552.694 7.089 1.463 10.596 2.344z" opacity="1" data-original="#dd7f66"></path><path fill="#f6a96c" d="M510.216 473.641c-42.617-64.827-107.977-106.323-181.267-106.323-43.07 0-83.399 14.336-117.985 39.311l2.534 1.76a207.35 207.35 0 0 1 115.45 80.183l2.406 1.671h169.943c8.524-.001 13.602-9.478 8.919-16.602z" opacity="1" data-original="#f6a96c"></path><path fill="#ea9b58" d="M510.216 473.641c-29.258-44.505-69.234-78.012-115.137-94.647 23.553 17.348 44.389 39.654 61.54 65.743 4.683 7.123-.395 16.601-8.92 16.601H307.242a209.188 209.188 0 0 1 24.111 28.904h169.943c8.525 0 13.603-9.477 8.92-16.601z" opacity="1" data-original="#ea9b58"></path><path fill="#ffbd86" d="M160.142 400.365c-62.961 0-119.379 27.984-157.52 72.183-5.983 6.934-1.065 17.695 8.093 17.695h320.638c-37.532-54.296-100.211-89.878-171.211-89.878z" opacity="1" data-original="#ffbd86" class=""></path><path fill="#f6a96c" d="M214.734 461.338H13.049a209.22 209.22 0 0 0-10.427 11.209c-5.983 6.934-1.065 17.695 8.093 17.695h228.149c-6.83-9.881-14.994-19.626-24.13-28.904z" opacity="1" data-original="#f6a96c"></path><path fill="#97d729" d="M160.142 400.365c-11.695 0-23.163.97-34.332 2.825 44.219 15.595 87.737 50.427 113.054 87.052h92.489c-37.532-54.295-100.211-89.877-171.211-89.877z" opacity="1" data-original="#97d729"></path><path fill="#8bc727" d="M307.242 461.338h-92.509c9.136 9.277 17.3 19.023 24.13 28.904h92.489a209.11 209.11 0 0 0-24.11-28.904z" opacity="1" data-original="#8bc727" class=""></path><circle cx="86.793" cy="275.805" r="86.793" fill="#a2e62e" opacity="1" data-original="#a2e62e"></circle><path fill="#97d729" d="M97.431 189.685c26.104 14.965 43.704 43.083 43.704 75.329 0 47.934-38.858 86.793-86.793 86.793-3.604 0-7.149-.245-10.638-.672a86.36 86.36 0 0 0 43.089 11.464c47.934 0 86.793-38.859 86.793-86.793 0-44.331-33.243-80.872-76.155-86.121z" opacity="1" data-original="#97d729"></path><circle cx="353.036" cy="320.311" r="72.113" fill="#a2e62e" opacity="1" data-original="#a2e62e"></circle><path fill="#97d729" d="M360.371 248.568c20.227 12.773 33.673 35.311 33.673 61.002 0 39.827-32.286 72.113-72.113 72.113-2.476 0-4.923-.126-7.335-.369a71.749 71.749 0 0 0 38.44 11.111c39.827 0 72.113-32.286 72.113-72.113 0-37.351-28.396-68.069-64.778-71.744z" opacity="1" data-original="#97d729"></path><path fill="#dff6fd" d="M302.734 42.066c-2.414-11.596-12.689-20.308-25-20.308-12.312 0-22.587 8.713-25 20.308-10.26.716-18.367 9.244-18.367 19.686 0 10.911 8.845 19.756 19.756 19.756h47.222c10.911 0 19.756-8.845 19.756-19.756 0-10.442-8.107-18.97-18.367-19.686z" opacity="1" data-original="#dff6fd"></path><path fill="#c8effe" d="M306.356 42.664c-1.075 9.896-9.451 17.601-19.634 17.601h-52.288a18.72 18.72 0 0 0-.068 1.486c0 10.911 8.845 19.756 19.756 19.756h47.222c10.911 0 19.756-8.845 19.756-19.756.001-9.176-6.262-16.87-14.744-19.087z" opacity="1" data-original="#c8effe"></path><path fill="#dff6fd" d="M112.29 81.508H99.305c-2.609-12.357-13.573-21.634-26.707-21.634S48.5 69.15 45.891 81.508h-5.713c-11.663 0-21.119 9.455-21.119 21.119s9.455 21.119 21.119 21.119h72.113c11.663 0 21.119-9.455 21.119-21.119s-9.457-21.119-21.12-21.119z" opacity="1" data-original="#dff6fd"></path><path fill="#c8effe" d="M112.29 81.508h-5.672c-.067 11.606-9.491 20.995-21.112 20.995h-66.44c0 .042-.006.082-.006.124 0 11.663 9.455 21.119 21.119 21.119h72.113c11.663 0 21.119-9.455 21.119-21.119-.003-11.664-9.458-21.119-21.121-21.119z" opacity="1" data-original="#c8effe"></path><path fill="#dff6fd" d="M407.952 79.448h12.985c2.609-12.357 13.573-21.634 26.707-21.634s24.098 9.276 26.707 21.634h5.713c11.663 0 21.119 9.455 21.119 21.119s-9.455 21.119-21.119 21.119h-72.113c-11.663 0-21.119-9.455-21.119-21.119s9.456-21.119 21.12-21.119z" opacity="1" data-original="#dff6fd"></path><path fill="#c8effe" d="M480.064 79.448h-5.672c-.067 11.606-9.491 20.995-21.112 20.995h-66.44c0 .042-.006.082-.006.124 0 11.663 9.455 21.119 21.119 21.119h72.113c11.663 0 21.119-9.455 21.119-21.119-.002-11.664-9.457-21.119-21.121-21.119z" opacity="1" data-original="#c8effe"></path><g fill="#dd7f66"><path d="M119.909 285.178a7.502 7.502 0 0 0-10.607 0l-15.009 15.009v-51.654c0-4.143-3.357-7.5-7.5-7.5s-7.5 3.357-7.5 7.5v27.611l-15.009-15.009a7.5 7.5 0 0 0-10.607 10.607l25.616 25.616v148.834c0 4.143 3.357 7.5 7.5 7.5s7.5-3.357 7.5-7.5V321.401l25.616-25.616a7.5 7.5 0 0 0 0-10.607zM382.375 327.691a7.5 7.5 0 0 0-10.606-.001l-11.232 11.232v-42.18c0-4.143-3.357-7.5-7.5-7.5s-7.5 3.357-7.5 7.5v21.401l-11.23-11.23A7.5 7.5 0 0 0 323.7 317.52l21.838 21.838v106.834c0 4.143 3.357 7.5 7.5 7.5s7.5-3.357 7.5-7.5v-86.058l21.838-21.837a7.5 7.5 0 0 0-.001-10.606z" fill="#dd7f66" opacity="1" data-original="#dd7f66"></path></g></g></svg>