<svg xmlns="http://www.w3.org/2000/svg" version="1.1" xmlns:xlink="http://www.w3.org/1999/xlink" width="512" height="512" x="0" y="0" viewBox="0 0 512 512" style="enable-background:new 0 0 512 512" xml:space="preserve" class=""><g><path fill="#22b27f" d="m454.984 245.935-44.956-44.956a40.32 40.32 0 0 0-28.51-11.809h-17.01c-10.693 0-20.949-4.248-28.51-11.809s-17.817-11.809-28.51-11.809h-88.131a40.32 40.32 0 0 0-28.51 11.809l-13.853 13.853a40.32 40.32 0 0 1-28.51 11.809h-31.855a40.32 40.32 0 0 0-28.51 11.809l-31.102 31.103z" opacity="1" data-original="#22b27f"></path><path fill="#09a76d" d="M410.028 200.979a40.32 40.32 0 0 0-28.51-11.809h-16.341l15.801 15.801c5.906 5.906 1.723 16.003-6.629 16.003H81.976l-24.961 24.961h397.968z" opacity="1" data-original="#09a76d"></path><path fill="#a2e62e" d="M501.698 492.865H10.302C4.612 492.865 0 488.252 0 482.563V255.207c0-5.69 4.612-10.302 10.302-10.302h491.396c5.69 0 10.302 4.612 10.302 10.302v227.356c0 5.689-4.612 10.302-10.302 10.302z" opacity="1" data-original="#a2e62e"></path><path fill="#97d729" d="M501.698 244.905h-21.119V450.39c0 5.69-4.612 10.302-10.302 10.302H0v21.87c0 5.69 4.612 10.302 10.302 10.302h491.396c5.69 0 10.302-4.612 10.302-10.302V255.206c0-5.689-4.612-10.301-10.302-10.301z" opacity="1" data-original="#97d729"></path><path fill="#8bc727" d="M276.291 319.244c0 66.637-24.938 127.44-65.972 173.621h134.232c10.689-29.725 16.527-61.764 16.527-95.171 0-56.336-16.569-108.798-45.094-152.789h-50.422c6.978 23.563 10.729 48.511 10.729 74.339z" opacity="1" data-original="#8bc727"></path><path fill="#81b823" d="M234.752 460.692a262.715 262.715 0 0 1-24.433 32.172h134.232a279.34 279.34 0 0 0 9.417-32.172z" opacity="1" data-original="#81b823"></path><circle cx="155.267" cy="55.192" r="36.056" fill="#fedf30" opacity="1" data-original="#fedf30"></circle><path fill="#fed402" d="M167.856 21.399a35.962 35.962 0 0 1 2.349 12.806c0 19.913-16.143 36.056-36.056 36.056a35.97 35.97 0 0 1-12.589-2.263c5.166 13.59 18.305 23.251 33.707 23.251 19.913 0 36.056-16.143 36.056-36.056.001-15.486-9.762-28.686-23.467-33.794z" opacity="1" data-original="#fed402"></path><path fill="#dff6fd" d="M93.679 119.167H80.631C78.01 106.75 66.993 97.429 53.796 97.429s-24.214 9.321-26.836 21.738h-5.74c-11.719 0-21.22 9.501-21.22 21.22 0 11.72 9.501 21.22 21.22 21.22h72.459c11.719 0 21.22-9.501 21.22-21.22 0-11.72-9.501-21.22-21.22-21.22z" opacity="1" data-original="#dff6fd"></path><path fill="#c8effe" d="M93.768 119.171c.001.077.012.151.012.228 0 11.72-9.501 21.22-21.22 21.22H.101c-.03 0-.059-.004-.09-.005.124 11.613 9.566 20.992 21.208 20.992h72.459c11.719 0 21.22-9.501 21.22-21.22.001-11.688-9.452-21.166-21.13-21.215z" opacity="1" data-original="#c8effe"></path><path fill="#dff6fd" d="M315.777 65.473c-2.569-12.34-13.504-21.613-26.606-21.613s-24.038 9.272-26.606 21.613c-10.919.762-19.547 9.838-19.547 20.951 0 11.612 9.413 21.025 21.025 21.025h50.256c11.612 0 21.025-9.413 21.025-21.025 0-11.113-8.628-20.19-19.547-20.951z" opacity="1" data-original="#dff6fd"></path><path fill="#c8effe" d="M324.812 68.249c-1.378 10.279-10.16 18.213-20.816 18.213h-60.977c.021 11.594 9.424 20.987 21.023 20.987h50.256c11.612 0 21.025-9.413 21.025-21.025.001-7.777-4.232-14.545-10.511-18.175z" opacity="1" data-original="#c8effe"></path><path fill="#dff6fd" d="M418.321 107.835h13.047c2.621-12.417 13.638-21.738 26.835-21.738s24.214 9.321 26.836 21.738h5.741c11.719 0 21.22 9.501 21.22 21.22s-9.501 21.22-21.22 21.22h-72.459c-11.719 0-21.22-9.501-21.22-21.22s9.501-21.22 21.22-21.22z" opacity="1" data-original="#dff6fd"></path><path fill="#c8effe" d="M490.87 107.839c.001.077.012.151.012.228 0 11.72-9.5 21.22-21.22 21.22h-72.459c-.03 0-.059-.004-.09-.005.124 11.613 9.566 20.992 21.208 20.992h72.459c11.72 0 21.22-9.501 21.22-21.22 0-11.688-9.453-21.166-21.13-21.215z" opacity="1" data-original="#c8effe"></path><path fill="#8bc727" d="M108.684 390.439c-2.686 0-5.222-.625-7.5-1.708v104.133h15V388.732a17.412 17.412 0 0 1-7.5 1.707zM158.133 444.242c-2.686 0-5.222-.625-7.5-1.708v50.33h15v-50.33a17.401 17.401 0 0 1-7.5 1.708z" opacity="1" data-original="#8bc727"></path><path fill="#81b823" d="M150.633 460.692h15v32.172h-15z" opacity="1" data-original="#81b823"></path><g fill="#8bc727"><path d="M59.235 444.242c-2.686 0-5.222-.625-7.5-1.708v50.33h15v-50.33a17.395 17.395 0 0 1-7.5 1.708zM462.036 390.439c-2.686 0-5.222-.625-7.5-1.708v104.133h15V388.731a17.398 17.398 0 0 1-7.5 1.708zM412.588 444.242c-2.686 0-5.222-.625-7.5-1.708v50.33h15v-50.33a17.401 17.401 0 0 1-7.5 1.708z" fill="#8bc727" opacity="1" data-original="#8bc727"></path></g><path fill="#8bc727" d="M206.551 360.414h-11.332c-4.142 0-7.5-3.357-7.5-7.5s3.358-7.5 7.5-7.5h11.332c4.142 0 7.5 3.357 7.5 7.5s-3.358 7.5-7.5 7.5zM469.247 316.116h-11.332c-4.143 0-7.5-3.357-7.5-7.5s3.357-7.5 7.5-7.5h11.332c4.143 0 7.5 3.357 7.5 7.5s-3.357 7.5-7.5 7.5zM402.286 292.422h-11.332c-4.143 0-7.5-3.357-7.5-7.5s3.357-7.5 7.5-7.5h11.332c4.143 0 7.5 3.357 7.5 7.5s-3.357 7.5-7.5 7.5zM157.103 301.693h-11.332c-4.142 0-7.5-3.357-7.5-7.5s3.358-7.5 7.5-7.5h11.332c4.142 0 7.5 3.357 7.5 7.5s-3.358 7.5-7.5 7.5zM61.296 334.659H49.964c-4.142 0-7.5-3.357-7.5-7.5s3.358-7.5 7.5-7.5h11.332c4.142 0 7.5 3.357 7.5 7.5s-3.358 7.5-7.5 7.5z" opacity="1" data-original="#8bc727"></path><circle cx="108.684" cy="372.896" r="18.543" fill="#fedf30" opacity="1" data-original="#fedf30"></circle><circle cx="158.133" cy="426.699" r="18.543" fill="#fedf30" opacity="1" data-original="#fedf30"></circle><circle cx="59.235" cy="426.699" r="18.543" fill="#fedf30" opacity="1" data-original="#fedf30"></circle><circle cx="462.036" cy="372.896" r="18.543" fill="#fedf30" opacity="1" data-original="#fedf30"></circle><circle cx="412.588" cy="426.699" r="18.543" fill="#fedf30" opacity="1" data-original="#fedf30"></circle><g fill="#81b823"><path d="M454.536 460.692h15v32.172h-15zM405.088 460.692h15v32.172h-15zM101.184 460.692h15v32.172h-15zM51.735 460.692h15v32.172h-15z" fill="#81b823" opacity="1" data-original="#81b823"></path></g></g></svg>