<svg xmlns="http://www.w3.org/2000/svg" version="1.1" xmlns:xlink="http://www.w3.org/1999/xlink" width="512" height="512" x="0" y="0" viewBox="0 0 512 512" style="enable-background:new 0 0 512 512" xml:space="preserve" class=""><g><path fill="#22b27f" d="M494.513 144.396c10.582-7.568 17.487-19.95 17.487-33.952 0-23.044-18.681-41.724-41.724-41.724-2.588 0-5.117.248-7.574.699-2.111-21.066-19.891-37.514-41.513-37.514s-39.402 16.448-41.513 37.514a41.912 41.912 0 0 0-7.574-.699c-23.044 0-41.724 18.681-41.724 41.724 0 14.002 6.904 26.384 17.487 33.952-10.582 7.568-17.487 19.95-17.487 33.952 0 23.044 18.681 41.724 41.724 41.724 9.176 0 17.655-2.97 24.544-7.99a41.527 41.527 0 0 0 24.544 7.99c9.176 0 17.655-2.97 24.544-7.99a41.527 41.527 0 0 0 24.544 7.99c23.044 0 41.724-18.681 41.724-41.724-.002-14.002-6.906-26.384-17.489-33.952z" opacity="1" data-original="#22b27f" class=""></path><path fill="#09a76d" d="M494.513 144.396c10.582-7.568 17.487-19.95 17.487-33.952 0-22.913-18.472-41.505-41.336-41.714 3.744 10.033 5.795 20.89 5.795 32.228 0 50.921-41.28 92.201-92.201 92.201-20.082 0-38.661-6.424-53.803-17.323a42.675 42.675 0 0 0-.077 2.512c0 23.044 18.681 41.724 41.724 41.724 9.176 0 17.655-2.97 24.544-7.99 6.888 5.02 15.367 7.99 24.544 7.99s17.655-2.97 24.544-7.99a41.527 41.527 0 0 0 24.544 7.99c23.044 0 41.724-18.681 41.724-41.724-.002-14.002-6.906-26.384-17.489-33.952z" opacity="1" data-original="#09a76d" class=""></path><path fill="#dd7f66" d="M413.689 160.184v126.82a161.526 161.526 0 0 1 15 7.775V188.12l30.119-30.119a7.5 7.5 0 0 0-10.606-10.607l-19.512 19.512v-32.493l21.733-21.733a7.5 7.5 0 0 0-10.606-10.607l-11.126 11.126V87.536c0-4.143-3.358-7.5-7.5-7.5s-7.5 3.357-7.5 7.5v51.434l-19.513-19.513a7.501 7.501 0 0 0-10.606 10.607z" opacity="1" data-original="#dd7f66" class=""></path><path fill="#22b27f" d="M164.136 165.839c10.582-7.568 17.487-19.95 17.487-33.952 0-23.044-18.681-41.724-41.724-41.724-2.588 0-5.117.248-7.574.699-2.111-21.066-19.891-37.514-41.513-37.514S51.409 69.795 49.298 90.861a41.912 41.912 0 0 0-7.574-.699C18.681 90.163 0 108.843 0 131.887c0 14.002 6.904 26.384 17.487 33.952C6.904 173.407 0 185.789 0 199.791c0 23.044 18.681 41.724 41.724 41.724 9.176 0 17.655-2.97 24.544-7.99a41.527 41.527 0 0 0 24.544 7.99c9.176 0 17.655-2.97 24.544-7.99a41.527 41.527 0 0 0 24.544 7.99c23.044 0 41.724-18.681 41.724-41.724-.001-14.002-6.906-26.384-17.488-33.952z" opacity="1" data-original="#22b27f" class=""></path><path fill="#09a76d" d="M164.136 165.839c10.582-7.568 17.487-19.95 17.487-33.952 0-22.342-17.561-40.582-39.633-41.671a92.22 92.22 0 0 1 3.781 26.195c0 50.921-41.28 92.201-92.201 92.201-19.655 0-37.871-6.155-52.834-16.636A41.825 41.825 0 0 0 0 199.791c0 23.044 18.681 41.724 41.724 41.724 9.176 0 17.655-2.97 24.544-7.99a41.527 41.527 0 0 0 24.544 7.99c9.176 0 17.655-2.97 24.544-7.99a41.527 41.527 0 0 0 24.544 7.99c23.044 0 41.724-18.681 41.724-41.724-.001-14.002-6.906-26.384-17.488-33.952z" opacity="1" data-original="#09a76d" class=""></path><path fill="#dd7f66" d="M83.311 181.626v156.5a162.537 162.537 0 0 1 15-7.59V209.563l30.119-30.119a7.5 7.5 0 0 0-10.606-10.607l-19.513 19.512v-32.493l21.733-21.733a7.5 7.5 0 0 0-10.606-10.607l-11.127 11.127V108.98c0-4.143-3.358-7.5-7.5-7.5s-7.5 3.357-7.5 7.5v51.433L63.799 140.9a7.501 7.501 0 0 0-10.606 10.607z" opacity="1" data-original="#dd7f66" class=""></path><path fill="#22b27f" d="M164.524 316.602c20.598 0 40.682 3.783 59.694 11.243l.668.263.477-.536c27.175-30.507 64.702-49.614 104.908-53.883-6.202-16.35-23.295-26.543-41.16-23.425a37.032 37.032 0 0 0-19.233 9.682c-4.439-19.094-23.081-31.613-42.631-28.2-19.852 3.465-33.252 22.068-30.432 41.878a37.118 37.118 0 0 0-15.618.014c-19.612 4.216-32.05 23.647-28.696 43.406a165.58 165.58 0 0 1 12.023-.442z" opacity="1" data-original="#22b27f" class=""></path><path fill="#97d729" d="M346.963 271.747c-48.661.149-92.341 21.43-122.369 55.14l1.085 1.592c59.496 24.083 101.703 82.203 102.326 150.088l1.043 1.529h172.651c5.69 0 10.302-4.612 10.302-10.302v-32.022c-.001-90.773-74.267-166.303-165.038-166.025z" opacity="1" data-original="#97d729"></path><path fill="#8bc727" d="M401.847 281.202c34.326 30.596 56.069 75.233 56.069 124.341v32.022c0 5.689-4.612 10.302-10.302 10.302H324.82a163.492 163.492 0 0 1 3.184 30.699l1.043 1.529h172.651c5.69 0 10.302-4.612 10.302-10.302v-32.022c0-71.552-46.152-133.623-110.153-156.569zM347.476 271.746c-5.558 0-11.051.28-16.468.818-25.385 20.566-47.36 48.037-63.601 80.564 20.617 16.738 37.096 38.382 47.634 63.143 14.064-58.538 32.206-109.526 71.534-139.838a164.905 164.905 0 0 0-39.099-4.687z" opacity="1" data-original="#8bc727"></path><path fill="#a2e62e" d="M164.524 315.572c-87.156 0-158.484 67.771-164.16 153.49-.395 5.964 4.306 11.033 10.282 11.033h318.401c0-90.863-73.659-164.523-164.523-164.523z" opacity="1" data-original="#a2e62e" class=""></path><path fill="#97d729" d="M3.167 447.867a164.642 164.642 0 0 0-2.803 21.195c-.395 5.964 4.306 11.033 10.282 11.033h318.401c0-11.031-1.094-21.806-3.165-32.229H3.167z" opacity="1" data-original="#97d729"></path><path fill="#8bc727" d="M148.903 480.096c0-63.817 23.288-120.811 59.804-158.514a164.65 164.65 0 0 0-44.183-6.009c-4.048 0-8.059.153-12.034.44-39.725 37.528-65.398 97.056-65.398 164.083z" opacity="1" data-original="#8bc727"></path><path fill="#81b823" d="M89.116 447.867a257.614 257.614 0 0 0-2.023 32.229h61.811c0-10.968.704-21.727 2.028-32.229z" opacity="1" data-original="#81b823"></path><path fill="#22b27f" d="M324.927 432.063a33.397 33.397 0 0 1 21.966 7.072c1.238-17.396 15.734-31.127 33.445-31.127 6.872 0 13.26 2.07 18.579 5.617.982-17.643 15.596-31.649 33.485-31.649 18.165 0 32.947 14.443 33.514 32.47a33.444 33.444 0 0 1 13.416-2.422c17.981.46 32.668 16.239 32.668 34.225v23.544c0 5.69-4.612 10.302-10.302 10.302H292.731v-13.784c0-18.128 14.081-33.538 32.196-34.248z" opacity="1" data-original="#22b27f" class=""></path><path fill="#09a76d" d="M479.332 412.023a33.464 33.464 0 0 0-13.416 2.422c-.256-8.135-3.413-15.533-8.462-21.211.303 4.067.461 8.171.461 12.308v32.022c0 5.689-4.612 10.302-10.302 10.302H298.038a34.681 34.681 0 0 0-5.307 18.445v13.784h208.968c5.69 0 10.302-4.612 10.302-10.302v-23.544c-.001-17.986-14.688-33.765-32.669-34.226z" opacity="1" data-original="#09a76d" class=""></path><path fill="#8bc727" d="M228.185 383.001h-5.151c-4.142 0-7.5-3.357-7.5-7.5s3.358-7.5 7.5-7.5h5.151c4.142 0 7.5 3.357 7.5 7.5s-3.358 7.5-7.5 7.5z" opacity="1" data-original="#8bc727"></path><path fill="#81b823" d="M403.316 330.462h-5.151c-4.142 0-7.5-3.357-7.5-7.5s3.358-7.5 7.5-7.5h5.151c4.142 0 7.5 3.357 7.5 7.5s-3.358 7.5-7.5 7.5zM375.501 372.699h-5.151c-4.142 0-7.5-3.357-7.5-7.5s3.358-7.5 7.5-7.5h5.151c4.142 0 7.5 3.357 7.5 7.5s-3.358 7.5-7.5 7.5z" opacity="1" data-original="#81b823"></path><path fill="#8bc727" d="M195.219 439.661h-5.151c-4.142 0-7.5-3.357-7.5-7.5s3.358-7.5 7.5-7.5h5.151c4.142 0 7.5 3.357 7.5 7.5s-3.358 7.5-7.5 7.5zM266.302 439.661h-5.151c-4.142 0-7.5-3.357-7.5-7.5s3.358-7.5 7.5-7.5h5.151c4.142 0 7.5 3.357 7.5 7.5s-3.358 7.5-7.5 7.5zM54.084 439.661h-5.151c-4.142 0-7.5-3.357-7.5-7.5s3.358-7.5 7.5-7.5h5.151c4.142 0 7.5 3.357 7.5 7.5s-3.357 7.5-7.5 7.5zM72.628 393.303h-5.151c-4.142 0-7.5-3.357-7.5-7.5s3.358-7.5 7.5-7.5h5.151c4.142 0 7.5 3.357 7.5 7.5s-3.358 7.5-7.5 7.5z" opacity="1" data-original="#8bc727"></path></g></svg>