<svg xmlns="http://www.w3.org/2000/svg" version="1.1" xmlns:xlink="http://www.w3.org/1999/xlink" width="512" height="512" x="0" y="0" viewBox="0 0 512 512" style="enable-background:new 0 0 512 512" xml:space="preserve" class=""><g><path fill="#97d729" d="M119.007 258.181c4.241-3.129 9.348-4.82 14.717-4.82h31.12c4.302-5.112 6.874-11.547 6.874-18.544 0-5.297-1.474-10.271-4.054-14.595 2.58-4.324 4.054-9.298 4.054-14.595 0-8.15-3.484-15.538-9.135-20.958a21.352 21.352 0 0 0 1.297-7.319c0-12.595-10.966-22.804-24.494-22.804s-24.494 10.21-24.494 22.804c0 2.561.46 5.021 1.297 7.319-5.65 5.42-9.135 12.808-9.135 20.958 0 5.297 1.474 10.271 4.055 14.595-2.58 4.324-4.055 9.298-4.055 14.595.001 9.43 4.662 17.845 11.953 23.364zM9.826 205.627c0-8.15 3.484-15.538 9.135-20.958a21.352 21.352 0 0 1-1.297-7.319c0-12.595 10.966-22.804 24.494-22.804s24.494 10.21 24.494 22.804c0 2.561-.46 5.021-1.297 7.319 5.65 5.42 9.135 12.808 9.135 20.958 0 5.297-1.474 10.271-4.055 14.595 2.58 4.324 4.055 9.298 4.055 14.595 0 16.625-14.475 30.102-32.332 30.102S9.826 251.441 9.826 234.817c0-5.297 1.474-10.271 4.055-14.595-2.58-4.324-4.055-9.298-4.055-14.595z" opacity="1" data-original="#97d729" class=""></path><path fill="#8bc727" d="M74.489 205.627c0-8.15-3.484-15.538-9.135-20.958a21.352 21.352 0 0 0 1.297-7.319c0-12.594-10.966-22.804-24.494-22.804-1.847 0-3.643.196-5.373.557 6.627 13.425 10.727 31.981 10.727 52.479 0 22.642-5.008 42.9-12.893 56.506 2.42.538 4.942.831 7.539.831 17.856 0 32.331-13.477 32.331-30.102 0-5.297-1.474-10.271-4.054-14.595 2.581-4.324 4.055-9.298 4.055-14.595z" opacity="1" data-original="#8bc727" class=""></path><path fill="#dd7f66" d="M49.658 314.815v-99.982c0-4.142-3.357-7.5-7.5-7.5s-7.5 3.358-7.5 7.5v99.982z" opacity="1" data-original="#dd7f66" class=""></path><path fill="#8bc727" d="M136.925 253.361h27.919c4.302-5.112 6.874-11.547 6.874-18.544 0-5.297-1.474-10.271-4.054-14.595 2.58-4.324 4.054-9.298 4.054-14.595 0-8.15-3.484-15.538-9.135-20.958a21.352 21.352 0 0 0 1.297-7.319c0-12.595-10.966-22.804-24.494-22.804-1.847 0-3.643.196-5.373.557 6.627 13.425 10.728 31.981 10.728 52.479-.001 17.285-2.926 33.171-7.816 45.779z" opacity="1" data-original="#8bc727" class=""></path><path fill="#dd7f66" d="M133.724 253.361h13.162v-38.528c0-4.142-3.357-7.5-7.5-7.5s-7.5 3.358-7.5 7.5v38.602a25.477 25.477 0 0 1 1.838-.074z" opacity="1" data-original="#dd7f66" class=""></path><path fill="#ffbd86" d="m457 314.815 9.399-1-110.621-110.622a25.86 25.86 0 0 0-18.285-7.574h-63.69a25.858 25.858 0 0 0-18.285 7.574l-41.594 41.594a25.86 25.86 0 0 1-18.285 7.574h-61.917a25.858 25.858 0 0 0-18.285 7.574l-53.88 53.88 9.684 1z" opacity="1" data-original="#ffbd86" class=""></path><path fill="#97d729" d="M433.89 183.13c0-9.844 4.209-18.769 11.034-25.316a25.79 25.79 0 0 1-1.566-8.841c0-15.214 13.247-27.547 29.587-27.547s29.587 12.333 29.587 27.547c0 3.094-.556 6.065-1.566 8.841C507.791 164.361 512 173.285 512 183.13c0 6.398-1.781 12.407-4.898 17.63 3.117 5.223 4.898 11.231 4.898 17.63 0 20.082-17.485 36.361-39.055 36.361-21.569 0-39.055-16.279-39.055-36.361 0-6.398 1.781-12.407 4.898-17.63-3.116-5.223-4.898-11.232-4.898-17.63z" opacity="1" data-original="#97d729" class=""></path><path fill="#8bc727" d="M512 183.13c0-9.844-4.209-18.769-11.034-25.316a25.79 25.79 0 0 0 1.566-8.841c0-15.214-13.246-27.547-29.587-27.547-1.938 0-3.83.179-5.664.51 8.709 13.558 14.329 34.873 14.329 58.861 0 32.935-10.588 60.84-25.233 70.521 5.031 2.198 10.644 3.433 16.569 3.433 21.569 0 39.055-16.279 39.055-36.361 0-6.398-1.781-12.407-4.898-17.63 3.116-5.223 4.897-11.232 4.897-17.63z" opacity="1" data-original="#8bc727" class=""></path><path fill="#dd7f66" d="M480.371 314.815c.044-.328.074-.66.074-1V194.249c0-4.142-3.357-7.5-7.5-7.5s-7.5 3.358-7.5 7.5v119.565c0 .34.031.672.074 1h14.852z" opacity="1" data-original="#dd7f66" class=""></path><path fill="#97d729" d="M324.267 183.13c0-9.844 4.209-18.769 11.034-25.316a25.79 25.79 0 0 1-1.566-8.841c0-15.214 13.247-27.547 29.587-27.547s29.587 12.333 29.587 27.547c0 3.094-.556 6.065-1.566 8.841 6.825 6.547 11.034 15.472 11.034 25.316 0 6.398-1.781 12.407-4.898 17.63 3.117 5.223 4.898 11.231 4.898 17.63 0 20.082-17.485 36.361-39.055 36.361-21.569 0-39.055-16.279-39.055-36.361 0-6.398 1.781-12.407 4.898-17.63-3.117-5.223-4.898-11.232-4.898-17.63z" opacity="1" data-original="#97d729" class=""></path><path fill="#8bc727" d="M402.376 183.13c0-9.844-4.209-18.769-11.034-25.316a25.79 25.79 0 0 0 1.566-8.841c0-15.214-13.246-27.547-29.587-27.547-1.938 0-3.83.179-5.664.51 8.709 13.558 14.329 34.873 14.329 58.861 0 32.935-10.588 60.84-25.233 70.521 5.031 2.198 10.644 3.433 16.569 3.433 21.569 0 39.055-16.279 39.055-36.361 0-6.398-1.781-12.407-4.898-17.63 3.116-5.223 4.897-11.232 4.897-17.63z" opacity="1" data-original="#8bc727" class=""></path><path fill="#dd7f66" d="M370.821 314.815V194.249c0-4.142-3.357-7.5-7.5-7.5s-7.5 3.358-7.5 7.5v120.565h15z" opacity="1" data-original="#dd7f66" class=""></path><path fill="#97d729" d="M366.029 492.328v-56.855H211.792l1.968 1.748c7.475 6.638 11.762 16.095 11.762 25.945v29.162z" opacity="1" data-original="#97d729" class=""></path><path fill="#8bc727" d="M225.521 492.328h140.508v-32.185H225.375c.089 1.002.146 2.009.146 3.023zM0 343.815h512v92.659H0z" opacity="1" data-original="#8bc727" class=""></path><path fill="#81b823" d="M480.579 343.815v44.823a27.104 27.104 0 0 1 5.398-.377c14.605.454 26.023 12.837 26.023 27.449v-71.895z" opacity="1" data-original="#81b823"></path><path fill="#a2e62e" d="M15.453 492.328h211.068v-29.163c0-19.155-15.668-35.502-34.822-35.408a34.489 34.489 0 0 0-21.131 7.332c-1.279-17.972-16.254-32.157-34.551-32.157-7.1 0-13.698 2.139-19.193 5.802-1.014-18.227-16.112-32.695-34.592-32.695-18.766 0-34.037 14.92-34.622 33.544a34.544 34.544 0 0 0-13.895-2.501C14.831 407.586 0 423.516 0 442.405v34.471c0 8.534 6.919 15.452 15.453 15.452z" opacity="1" data-original="#a2e62e" class=""></path><path fill="#97d729" d="M0 460.143v16.732c0 8.534 6.919 15.453 15.453 15.453h211.068v-29.163a35.21 35.21 0 0 0-.14-3.023H0z" opacity="1" data-original="#97d729" class=""></path><path fill="#a2e62e" d="M485.978 388.261c-9.297-.289-17.569 4.149-22.61 11.087-.479-14.362-12.218-25.873-26.674-25.968-14.884-.098-27.059 12.581-27.059 27.465v10.1a26.774 26.774 0 0 0-17.906-6.684c-14.874.096-26.7 12.602-26.7 27.476v60.592h131.519c8.534 0 15.453-6.918 15.453-15.453V415.71c-.001-14.612-11.419-26.995-26.023-27.449z" opacity="1" data-original="#a2e62e" class=""></path><path fill="#97d729" d="M485.978 388.261a27.104 27.104 0 0 0-5.398.377v56.053c0 8.534-6.918 15.453-15.453 15.453H365.029v32.185h131.519c8.534 0 15.453-6.918 15.453-15.453V415.71c-.001-14.612-11.419-26.995-26.023-27.449z" opacity="1" data-original="#97d729" class=""></path><path fill="#dff6fd" d="M268.638 92.696c-2.414-11.596-12.689-20.308-25-20.308s-22.587 8.713-25 20.308c-10.26.716-18.367 9.244-18.367 19.686 0 10.911 8.845 19.756 19.756 19.756h47.222c10.911 0 19.756-8.845 19.756-19.756 0-10.442-8.107-18.97-18.367-19.686z" opacity="1" data-original="#dff6fd"></path><path fill="#c8effe" d="M275.28 94.369c-1.083 9.888-9.455 17.583-19.631 17.583h-55.358c-.003.144-.021.285-.021.43 0 10.911 8.845 19.756 19.756 19.756h47.222c10.911 0 19.756-8.845 19.756-19.756.001-8.046-4.821-14.938-11.724-18.013z" opacity="1" data-original="#c8effe" class=""></path><path fill="#dff6fd" d="M119.501 43.543h-12.985c-2.609-12.357-13.573-21.634-26.707-21.634s-24.098 9.276-26.707 21.634h-5.713c-11.663 0-21.119 9.455-21.119 21.119S35.725 85.78 47.388 85.78h72.113c11.663 0 21.119-9.455 21.119-21.119s-9.456-21.118-21.119-21.118z" opacity="1" data-original="#dff6fd"></path><path fill="#c8effe" d="M128.953 45.796c-.685 11.045-9.835 19.798-21.052 19.798H26.317c.491 11.228 9.723 20.187 21.072 20.187h72.113c11.663 0 21.119-9.455 21.119-21.119-.001-8.261-4.756-15.395-11.668-18.866z" opacity="1" data-original="#c8effe" class=""></path><path fill="#dff6fd" d="M382.521 40.097h12.26c2.463-11.667 12.815-20.425 25.216-20.425 12.4 0 22.752 8.758 25.216 20.425h5.394c11.012 0 19.939 8.927 19.939 19.939s-8.927 19.939-19.939 19.939h-68.085c-11.012 0-19.939-8.927-19.939-19.939s8.926-19.939 19.938-19.939z" opacity="1" data-original="#dff6fd"></path><path fill="#c8effe" d="M458.842 41.893c-1.023 10.052-9.513 17.896-19.836 17.896h-76.412c-.001.083-.013.164-.013.247 0 11.012 8.927 19.939 19.939 19.939h68.085c11.012 0 19.939-8.927 19.939-19.939.001-8.071-4.804-15.006-11.702-18.143z" opacity="1" data-original="#c8effe" class=""></path><path fill="#f6a96c" d="M0 344.845v-15.578c0-8.534 6.918-15.453 15.453-15.453h481.095c8.534 0 15.453 6.918 15.453 15.453v15.578z" opacity="1" data-original="#f6a96c" class=""></path><path fill="#ea9b58" d="M496.547 313.815h-15.968v31.03H512v-15.578c0-8.534-6.919-15.452-15.453-15.452z" opacity="1" data-original="#ea9b58"></path><g fill="#09a76d"><path d="M326.335 410.65c-2.685 0-5.221-.621-7.5-1.7v83.378h15V408.95a17.471 17.471 0 0 1-7.5 1.7zM271.378 443.514c-2.685 0-5.221-.621-7.5-1.7v50.514h15v-50.514a17.475 17.475 0 0 1-7.5 1.7z" fill="#09a76d" opacity="1" data-original="#09a76d"></path></g><circle cx="326.335" cy="393.031" r="18.618" fill="#fedf30" opacity="1" data-original="#fedf30"></circle><circle cx="271.378" cy="425.896" r="18.618" fill="#fedf30" opacity="1" data-original="#fedf30"></circle><g fill="#02905d"><path d="M263.878 460.143h15v32.185h-15zM318.835 460.143h15v32.185h-15z" fill="#02905d" opacity="1" data-original="#02905d"></path></g></g></svg>