<svg xmlns="http://www.w3.org/2000/svg" version="1.1" xmlns:xlink="http://www.w3.org/1999/xlink" width="512" height="512" x="0" y="0" viewBox="0 0 512 512" style="enable-background:new 0 0 512 512" xml:space="preserve" class=""><g><path fill="#22b27f" d="M388.631 135.312h13.841c2.285 0 3.665 2.528 2.429 4.449l-36.971 57.502h132.576l-36.971-57.502c-1.236-1.922.144-4.449 2.429-4.449h13.84c2.285 0 3.665-2.528 2.429-4.45l-28.182-43.831c-1.236-1.922.144-4.45 2.429-4.45h8.187c2.285 0 3.665-2.528 2.429-4.45l-30.449-47.359c-1.137-1.768-3.721-1.768-4.858 0L401.34 78.131c-1.236 1.922.144 4.45 2.429 4.45h8.187c2.285 0 3.665 2.528 2.429 4.45l-28.182 43.831c-1.236 1.922.144 4.45 2.428 4.45z" opacity="1" data-original="#22b27f"></path><path fill="#09a76d" d="M463.535 139.761c-1.236-1.922.144-4.449 2.429-4.449h13.841c2.285 0 3.665-2.528 2.429-4.449l-28.182-43.831c-1.236-1.922.144-4.45 2.429-4.45h8.187c2.285 0 3.665-2.528 2.429-4.45l-30.45-47.359c-1.137-1.768-3.721-1.768-4.858 0l-10.783 16.771 22.527 35.037c-8.106 0-13.001 8.967-8.617 15.785l23.754 36.945h-5.653c-8.106 0-13.001 8.967-8.617 15.785l29.683 46.166h26.425z" opacity="1" data-original="#09a76d"></path><path fill="#22b27f" d="M253.386 135.312h13.84c2.285 0 3.665 2.528 2.429 4.449l-36.971 57.502H365.26l-36.971-57.502c-1.236-1.922.144-4.449 2.429-4.449h13.841c2.285 0 3.665-2.528 2.429-4.45l-28.182-43.831c-1.236-1.922.144-4.45 2.429-4.45h8.187c2.285 0 3.665-2.528 2.429-4.45l-30.45-47.359c-1.137-1.768-3.721-1.768-4.858 0l-30.45 47.359c-1.236 1.922.144 4.45 2.429 4.45h8.187c2.285 0 3.665 2.528 2.429 4.45l-28.182 43.831c-1.234 1.922.145 4.45 2.43 4.45z" opacity="1" data-original="#22b27f"></path><path fill="#09a76d" d="M328.289 139.761c-1.236-1.922.144-4.449 2.429-4.449h13.84c2.285 0 3.665-2.528 2.429-4.45l-28.182-43.831c-1.236-1.922.144-4.45 2.429-4.45h8.187c2.285 0 3.665-2.528 2.429-4.45L301.4 30.772c-1.137-1.768-3.721-1.768-4.858 0L285.76 47.545l22.527 35.037c-8.106 0-13.001 8.967-8.617 15.785l23.754 36.945h-5.653c-8.106 0-13.001 8.967-8.617 15.785l29.682 46.165h26.425z" opacity="1" data-original="#09a76d"></path><path fill="#f6a96c" d="m306.946 197.263-20.138-26.855a38.292 38.292 0 0 0-30.635-15.319h-42.848c-12.053 0-23.403-5.676-30.635-15.319s-18.581-15.319-30.635-15.319H93.953a38.294 38.294 0 0 0-30.635 15.319l-43.112 57.492h286.74z" opacity="1" data-original="#f6a96c"></path><path fill="#ea9b58" d="M144.107 139.771a38.292 38.292 0 0 0 30.635 15.319h38.584a38.294 38.294 0 0 1-30.635-15.319 38.292 38.292 0 0 0-30.635-15.319h-15.832c3.256 7.097 6.008 12.818 7.883 15.319zM286.808 170.408a38.292 38.292 0 0 0-30.635-15.319H217.59a38.293 38.293 0 0 1 30.635 15.319l20.138 26.855h38.584z" opacity="1" data-original="#ea9b58"></path><path fill="#97d729" d="M501.698 196.233h-85.624v1h1c25.377 0 46.022 20.646 46.022 46.022s-20.646 46.022-46.022 46.022h-86.588c-8.553 0-16.581 3.344-22.604 9.414-6.137 6.185-9.479 14.431-9.411 23.219l.001.362c0 25.377-20.646 46.022-46.022 46.022H0V472.25c0 5.69 4.612 10.302 10.302 10.302h491.396c5.689 0 10.302-4.612 10.302-10.302V206.534c0-5.689-4.612-10.301-10.302-10.301z" opacity="1" data-original="#97d729"></path><path fill="#8bc727" d="M501.698 196.233h-21.119v237.989c0 5.69-4.612 10.302-10.302 10.302H0v27.728c0 5.69 4.612 10.302 10.302 10.302h491.396c5.69 0 10.302-4.612 10.302-10.302V206.534c0-5.689-4.612-10.301-10.302-10.301z" opacity="1" data-original="#8bc727"></path><path fill="#22b27f" d="M512 332.146H356.637c-9.233 0-16.974 6.976-17.931 16.159-1.786 17.127-9.852 32.984-22.714 44.65-12.944 11.741-29.673 18.208-47.107 18.208H0v36.056h268.885c26.408 0 51.74-9.787 71.332-27.558 15.336-13.91 26.164-31.786 31.383-51.459H512z" opacity="1" data-original="#22b27f"></path><path fill="#09a76d" d="M480.579 332.146H512v36.056h-31.421z" opacity="1" data-original="#09a76d"></path><path fill="#99e6fc" d="M252.449 369.295c25.97 0 47.022-21.053 47.022-47.022l-.001-.371c-.134-17.37 13.646-31.625 31.016-31.625h86.588c25.97 0 47.022-21.053 47.022-47.022 0-25.97-21.053-47.022-47.022-47.022H10.302C4.612 196.233 0 200.845 0 206.535v162.761h252.449z" opacity="1" data-original="#99e6fc"></path><path fill="#62dbfb" d="m267.02 321.902.001.37c0 25.97-21.053 47.022-47.022 47.022h32.451c25.97 0 47.022-21.053 47.022-47.022l-.001-.37c-.134-17.37 13.646-31.625 31.016-31.625h-32.451c-17.371 0-31.151 14.255-31.016 31.625zM417.074 196.233h-32.451c25.97 0 47.022 21.053 47.022 47.022 0 25.97-21.053 47.022-47.022 47.022h32.451c25.97 0 47.022-21.053 47.022-47.022.001-25.97-21.052-47.022-47.022-47.022z" opacity="1" data-original="#62dbfb"></path><path fill="#c8effe" d="M153.002 259.446c-9.146 0-14.095-3.978-17.708-6.882-2.867-2.305-4.447-3.574-8.312-3.574-3.863 0-5.442 1.27-8.309 3.573-3.614 2.905-8.562 6.883-17.708 6.883-9.145 0-14.093-3.978-17.706-6.882-2.867-2.305-4.446-3.574-8.311-3.574-3.863 0-5.442 1.27-8.309 3.573-3.613 2.905-8.562 6.883-17.707 6.883-4.143 0-7.5-3.357-7.5-7.5s3.357-7.5 7.5-7.5c3.863 0 5.442-1.27 8.309-3.573 3.613-2.905 8.562-6.883 17.707-6.883 9.146 0 14.094 3.978 17.708 6.883 2.866 2.304 4.445 3.573 8.309 3.573s5.443-1.27 8.311-3.574c3.613-2.904 8.562-6.882 17.706-6.882 9.146 0 14.095 3.978 17.708 6.882 2.867 2.305 4.447 3.574 8.312 3.574 1.261 0 2.335-.205 3.382-.646a7.5 7.5 0 1 1 5.814 13.828c-2.869 1.207-5.963 1.818-9.196 1.818zM395.095 259.446c-9.146 0-14.095-3.978-17.708-6.882-2.867-2.305-4.447-3.574-8.312-3.574s-5.443 1.27-8.311 3.574c-3.613 2.904-8.562 6.882-17.706 6.882s-14.093-3.978-17.706-6.882c-2.867-2.305-4.446-3.574-8.311-3.574-3.863 0-5.442 1.27-8.309 3.573-3.613 2.905-8.562 6.883-17.707 6.883-4.143 0-7.5-3.357-7.5-7.5s3.357-7.5 7.5-7.5c3.863 0 5.442-1.27 8.309-3.573 3.613-2.905 8.562-6.883 17.707-6.883 9.146 0 14.094 3.978 17.708 6.883 2.866 2.304 4.445 3.573 8.309 3.573s5.442-1.27 8.309-3.573c3.614-2.905 8.562-6.883 17.708-6.883s14.095 3.978 17.708 6.882c2.867 2.305 4.447 3.574 8.312 3.574 1.26 0 2.335-.205 3.384-.646 3.814-1.608 8.215.189 9.819 4.009a7.499 7.499 0 0 1-4.009 9.819c-2.909 1.224-5.917 1.818-9.194 1.818zM212.624 318.179c-9.146 0-14.095-3.978-17.708-6.882-2.867-2.305-4.447-3.574-8.312-3.574-3.863 0-5.442 1.27-8.309 3.573-3.614 2.905-8.562 6.883-17.708 6.883-9.145 0-14.093-3.978-17.706-6.882-2.867-2.305-4.446-3.574-8.311-3.574-3.863 0-5.442 1.27-8.309 3.573-3.613 2.905-8.562 6.883-17.707 6.883-4.143 0-7.5-3.357-7.5-7.5s3.357-7.5 7.5-7.5c3.863 0 5.442-1.27 8.309-3.573 3.613-2.905 8.562-6.883 17.707-6.883 9.146 0 14.094 3.978 17.708 6.883 2.866 2.304 4.445 3.573 8.309 3.573s5.443-1.27 8.311-3.574c3.613-2.904 8.562-6.882 17.706-6.882 9.146 0 14.095 3.978 17.708 6.882 2.867 2.305 4.447 3.574 8.312 3.574 1.261 0 2.335-.205 3.382-.646a7.5 7.5 0 1 1 5.814 13.828c-2.869 1.206-5.963 1.818-9.196 1.818z" opacity="1" data-original="#c8effe"></path></g></svg>