<svg xmlns="http://www.w3.org/2000/svg" version="1.1" xmlns:xlink="http://www.w3.org/1999/xlink" width="512" height="512" x="0" y="0" viewBox="0 0 512 512" style="enable-background:new 0 0 512 512" xml:space="preserve" class=""><g><g fill="#02905d"><path d="M412.296 124.979h-29.373v-31.57c0-7.925-6.425-14.35-14.35-14.35s-14.35 6.425-14.35 14.35v45.92c0 7.925 6.425 14.35 14.35 14.35h43.723zM497.65 42.502c-7.925 0-14.35 6.425-14.35 14.35v38.266h-29.372v28.7h43.722c7.925 0 14.35-6.425 14.35-14.35V56.852c0-7.925-6.425-14.35-14.35-14.35z" fill="#02905d" opacity="1" data-original="#02905d"></path></g><path fill="#22b27f" d="M419.42 195.118h35.538V64.348c0-12.065-9.781-21.846-21.846-21.846s-21.846 9.781-21.846 21.846v130.88c2.716-.066 5.434-.11 8.154-.11z" opacity="1" data-original="#22b27f"></path><path fill="#09a76d" d="M433.569 42.526c.014.321.047.639.047.963v118c0 6.763-5.483 12.246-12.246 12.246h-10.104v21.494c2.717-.066 5.434-.11 8.154-.11h35.538V64.348c-.001-11.91-9.537-21.576-21.389-21.822z" opacity="1" data-original="#09a76d"></path><path fill="#ffbd86" d="m258.126 303.102 11.701 6.558a341.69 341.69 0 0 0 41.288 19.605l.35.138.356-.119a337.962 337.962 0 0 1 107.599-17.561H512V209.541c0-8.534-6.919-15.453-15.453-15.453H419.42a339.61 339.61 0 0 0-166.05 43.363l-11.701 6.558a339.587 339.587 0 0 1-62.454 27.165c27.46 7.269 54.012 17.972 78.911 31.928z" opacity="1" data-original="#ffbd86" class=""></path><path fill="#f6a96c" d="M496.547 194.088h-15.968v117.635H512V209.541c0-8.534-6.919-15.453-15.453-15.453z" opacity="1" data-original="#f6a96c"></path><path fill="#ea9b58" d="M269.812 309.686a339.512 339.512 0 0 0 40.157 19.139l1.875.474a339.71 339.71 0 0 1 79.073-16.358l.972-1.127c-35.625-8.392-71.481-23.592-100.825-40.039l-11.701-6.559a380.569 380.569 0 0 0-40.531-19.645 339.822 339.822 0 0 1-59.675 25.62c27.476 7.268 54.044 17.974 78.956 31.937z" opacity="1" data-original="#ea9b58" class=""></path><circle cx="135.791" cy="98.26" r="47.277" fill="#fedf30" opacity="1" data-original="#fedf30"></circle><path fill="#fed402" d="M143.787 51.67a47.044 47.044 0 0 1 7.135 24.968c0 26.111-21.167 47.277-47.277 47.277-2.727 0-5.395-.244-7.996-.687 8.347 13.392 23.2 22.309 40.143 22.309 26.111 0 47.277-21.167 47.277-47.277-.001-23.384-16.982-42.79-39.282-46.59z" opacity="1" data-original="#fed402"></path><path fill="#ffbd86" d="M75.62 405.007c58.196 0 115.79-15.04 166.553-43.494l11.701-6.558a338.102 338.102 0 0 1 59.122-26.046 339.508 339.508 0 0 1-42.665-20.147l-11.701-6.558a339.608 339.608 0 0 0-166.05-43.363H15.453C6.918 258.84 0 265.759 0 274.293v130.714z" opacity="1" data-original="#ffbd86" class=""></path><path fill="#fed2a4" d="m241.669 360.614 11.701-6.558a339.608 339.608 0 0 1 166.05-43.363H512v143.352c0 8.534-6.918 15.453-15.453 15.453H15.453C6.918 469.498 0 462.579 0 454.045v-50.068h75.62a339.604 339.604 0 0 0 166.049-43.363z" opacity="1" data-original="#fed2a4"></path><path fill="#ffbd86" d="M480.579 310.693v111.166c0 8.534-6.918 15.453-15.453 15.453H0v16.733c0 8.534 6.918 15.453 15.453 15.453h481.095c8.534 0 15.453-6.918 15.453-15.453V310.693z" opacity="1" data-original="#ffbd86" class=""></path></g></svg>