<svg xmlns="http://www.w3.org/2000/svg" version="1.1" xmlns:xlink="http://www.w3.org/1999/xlink" width="512" height="512" x="0" y="0" viewBox="0 0 512 512" style="enable-background:new 0 0 512 512" xml:space="preserve" class=""><g><path fill="#22b27f" d="m411.461 295.352-39.706-54.28c-1.494-2.042-.035-4.915 2.494-4.915h10.598c2.53 0 3.988-2.873 2.494-4.915l-26.031-35.585c-1.494-2.042-.035-4.915 2.494-4.915h6.97c2.53 0 3.988-2.873 2.494-4.915l-27.136-37.096a3.09 3.09 0 0 0-4.989 0l-27.136 37.096c-1.494 2.042-.035 4.915 2.494 4.915h6.97c2.53 0 3.988 2.873 2.494 4.915l-26.031 35.585c-1.494 2.042-.035 4.915 2.494 4.915h10.598c2.53 0 3.988 2.873 2.494 4.915l-39.706 54.28z" opacity="1" data-original="#22b27f"></path><path fill="#09a76d" d="m347.387 206.197 21.916 29.96h-3.629c-7.955 0-12.54 9.035-7.844 15.456l31.242 42.709h21.634l-38.952-53.249c-1.494-2.042-.035-4.915 2.494-4.915h10.598c2.53 0 3.988-2.873 2.494-4.915l-26.031-35.586c-1.494-2.042-.035-4.915 2.494-4.915h6.97c2.53 0 3.988-2.873 2.494-4.915l-27.136-37.096a3.09 3.09 0 0 0-4.989 0l-8.323 11.377 22.409 30.635c-7.952-.002-12.537 9.034-7.841 15.454z" opacity="1" data-original="#09a76d"></path><path fill="#22b27f" d="M396.284 295.352h94.598l-29.627-40.501c-1.494-2.042-.035-4.915 2.494-4.915h6.97c2.53 0 3.988-2.873 2.494-4.915l-27.136-37.096a3.09 3.09 0 0 0-4.989 0l-27.136 37.096c-1.494 2.042-.035 4.915 2.494 4.915h6.97c2.53 0 3.988 2.873 2.494 4.915z" opacity="1" data-original="#22b27f"></path><path fill="#09a76d" d="m447.331 265.392 21.163 28.93h21.634l-28.873-39.47c-1.494-2.042-.035-4.915 2.494-4.915h6.97c2.53 0 3.988-2.873 2.494-4.915l-27.136-37.096a3.09 3.09 0 0 0-4.989 0l-8.322 11.377 22.409 30.635c-7.955-.002-12.54 9.034-7.844 15.454z" opacity="1" data-original="#09a76d"></path><path fill="#ffbd86" d="M121.811 233.787v-67.111c0-3.019 1.324-5.885 3.622-7.843l38.614-32.89 1.105-3.803H89.614c-2.448 0-4.816.872-6.68 2.459l-39.011 33.228a10.302 10.302 0 0 0-3.622 7.843v68.118h81.51z" opacity="1" data-original="#ffbd86"></path><path fill="#fe646f" d="M43.924 157.827a10.292 10.292 0 0 0-2.441 3.085h81.51l41.054-34.969 1.105-3.803H89.614c-2.448 0-4.816.872-6.68 2.459z" opacity="1" data-original="#fe646f"></path><path fill="#fed2a4" d="M210.672 233.787V165.67c0-3.019-1.324-5.885-3.622-7.843l-41.898-35.687-41.898 35.687a10.302 10.302 0 0 0-3.622 7.843v68.118h91.04z" opacity="1" data-original="#fed2a4"></path><path fill="#fed2a4" d="M210.672 233.787V165.67c0-3.019-1.324-5.885-3.622-7.843l-41.898-35.687-41.898 35.687a10.302 10.302 0 0 0-3.622 7.843v68.118h91.04z" opacity="1" data-original="#fed2a4"></path><path fill="#ffbd86" d="m207.05 157.827-41.898-35.687-16.288 13.873 25.61 21.814a10.302 10.302 0 0 1 3.622 7.843v68.118h32.575V165.67a10.297 10.297 0 0 0-3.621-7.843z" opacity="1" data-original="#ffbd86"></path><path fill="#fe646f" d="M180.177 233.787v-49.66a3.091 3.091 0 0 0-3.091-3.091h-23.868a3.091 3.091 0 0 0-3.091 3.091v49.66z" opacity="1" data-original="#fe646f"></path><path fill="#97d729" d="M105.469 295.352h200.775l3.02-1.03c-13.718-36.567-48.992-62.595-90.35-62.595H25.755C11.531 231.727 0 243.258 0 257.481v142.31l1.035-.353c.191-57.426 46.964-104.086 104.434-104.086z" opacity="1" data-original="#97d729" class=""></path><path fill="#8bc727" d="M218.913 231.727h-42.962c41.358 0 76.633 26.028 90.35 62.595l-3.02 1.03h42.962l3.02-1.03c-13.717-36.567-48.991-62.595-90.35-62.595z" opacity="1" data-original="#8bc727"></path><circle cx="428.555" cy="89.69" r="36.056" fill="#fedf30" opacity="1" data-original="#fedf30"></circle><path fill="#fed402" d="M441.508 56.04a35.887 35.887 0 0 1 4.045 16.588c0 19.913-16.143 36.056-36.056 36.056-4.567 0-8.932-.858-12.953-2.407 6.005 11.564 18.081 19.469 32.011 19.469 19.913 0 36.056-16.143 36.056-36.056.001-15.347-9.591-28.445-23.103-33.65z" opacity="1" data-original="#fed402"></path><path fill="#a2e62e" d="M0 399.791v43.123c0 8.534 6.918 15.453 15.453 15.453h481.095c8.534 0 15.453-6.918 15.453-15.453V309.775c0-8.534-6.918-15.453-15.453-15.453H105.469C47.22 294.322 0 341.542 0 399.791z" opacity="1" data-original="#a2e62e" class=""></path><path fill="#97d729" d="M496.547 294.322h-15.968v116.451c0 8.534-6.918 15.453-15.453 15.453H195.005a111.977 111.977 0 0 1-78.503 32.141h380.045c8.534 0 15.453-6.918 15.453-15.453V309.775c0-8.534-6.918-15.453-15.453-15.453z" opacity="1" data-original="#97d729" class=""></path><path fill="#8bc727" d="M15.451 458.367h101.051a111.978 111.978 0 0 0 84.171-38.131 60.462 60.462 0 0 1 45.449-20.59h59.893c20.887 0 41.307-5.823 59.052-16.839s32.023-26.733 41.291-45.451l21.304-43.034h-57.477l-9.991 20.181c-10.271 20.746-31.031 33.634-54.18 33.634h-59.893a111.978 111.978 0 0 0-84.171 38.131 60.462 60.462 0 0 1-45.449 20.59H0v36.056c0 8.534 6.918 15.452 15.451 15.453z" opacity="1" data-original="#8bc727"></path><path fill="#81b823" d="M0 426.226v16.688c0 8.534 6.918 15.452 15.451 15.453h101.051a111.977 111.977 0 0 0 78.503-32.141z" opacity="1" data-original="#81b823"></path></g></svg>