<svg xmlns="http://www.w3.org/2000/svg" version="1.1" xmlns:xlink="http://www.w3.org/1999/xlink" width="512" height="512" x="0" y="0" viewBox="0 0 512 512" style="enable-background:new 0 0 512 512" xml:space="preserve" class=""><g><path fill="#ea9b58" d="M501.698 77.975H421.36a15.454 15.454 0 0 0-10.927 4.526l-51.483 51.483a10.404 10.404 0 0 0-3.048 7.358v68.907c0 2.76-1.096 5.407-3.048 7.358l-51.66 51.66a10.407 10.407 0 0 0-3.048 7.359v45.6H505.05l6.95-1V88.277c0-5.689-4.612-10.302-10.302-10.302z" opacity="1" data-original="#ea9b58" class=""></path><path fill="#f6a96c" d="M461.013 322.228c-.223-27.33-12.239-49.36-39.667-49.36h-28.845c-27.428 0-39.431 22.03-39.653 49.36z" opacity="1" data-original="#f6a96c"></path><path fill="#d88a55" d="M501.698 77.975h-21.119v243.252H512V88.277c0-5.689-4.612-10.302-10.302-10.302z" opacity="1" data-original="#d88a55"></path><path fill="#ea9b58" d="M213.854 322.228v-65.027c0-3.549-1.809-6.854-4.799-8.767l-48.158-30.804a10.407 10.407 0 0 1-4.799-8.767v-25.895c0-2.76-1.096-5.407-3.048-7.358l-52.961-52.961a10.406 10.406 0 0 1-3.048-7.358V67.152c0-8.534-6.918-15.453-15.453-15.453H10.302C4.612 51.699 0 56.311 0 62.001v259.227l10.296 1z" opacity="1" data-original="#ea9b58" class=""></path><path fill="#f6a96c" d="M132.899 322.228c-.223-27.33-12.239-49.36-39.667-49.36H64.386c-27.428 0-39.431 22.03-39.653 49.36z" opacity="1" data-original="#f6a96c"></path><path fill="#d88a55" d="m209.055 248.434-48.158-30.804a10.405 10.405 0 0 1-4.799-8.766v-25.895c0-2.76-1.096-5.407-3.048-7.359l-52.961-52.961a10.41 10.41 0 0 1-3.048-7.358V67.152c0-8.534-6.918-15.453-15.453-15.453H65.014v74.219c0 2.76 1.096 5.407 3.048 7.358l52.961 52.961a10.407 10.407 0 0 1 3.048 7.359v25.895c0 3.549 1.809 6.854 4.799 8.766l48.158 30.804a10.407 10.407 0 0 1 4.799 8.767v53.4h32.027v-64.027c0-3.55-1.809-6.854-4.799-8.767z" opacity="1" data-original="#d88a55"></path><path fill="#ffbd86" d="M242.479 322.228c-2.792-16.71-3.375-30.133-20.185-30.133h-26.785c-16.81 0-19.911 13.423-20.002 30.133z" opacity="1" data-original="#ffbd86" class=""></path><circle cx="235.781" cy="65.821" r="36.87" fill="#fedf30" opacity="1" data-original="#fedf30"></circle><path fill="#fed402" d="M240.235 29.229a36.696 36.696 0 0 1 7.903 22.795c0 20.363-16.507 36.87-36.87 36.87-1.509 0-2.993-.101-4.455-.277 6.751 8.567 17.213 14.074 28.967 14.074 20.363 0 36.87-16.507 36.87-36.87 0-18.853-14.154-34.391-32.415-36.592z" opacity="1" data-original="#fed402"></path><path fill="#fed2a4" d="M501.698 483.049H10.302C4.612 483.049 0 478.436 0 472.747v-151.52h512v151.519c0 5.69-4.612 10.303-10.302 10.303z" opacity="1" data-original="#fed2a4" class=""></path><g fill="#ffbd86"><path d="M0 450.916v21.83c0 5.689 4.612 10.302 10.302 10.302h170.251l32.132-32.132zM480.579 321.227v119.387c0 5.689-4.612 10.302-10.302 10.302H350.524l-32.132 32.132h183.306c5.689 0 10.302-4.613 10.302-10.302V321.227z" fill="#ffbd86" opacity="1" data-original="#ffbd86" class=""></path></g><path fill="#f6a96c" d="m375.351 378.789-77.204-57.562h-84.293l43.591 43.591c11.415 11.415 11.415 29.923 0 41.338l-76.892 76.892h137.839l60.156-60.156c12.602-12.602 11.09-33.45-3.197-44.103z" opacity="1" data-original="#f6a96c"></path><path fill="#ea9b58" d="m212.685 450.916-32.132 32.133h137.839l32.132-32.133zM109.874 401.256H83.089c-15.246 0-19.218 11.04-19.892 25.561-.135 2.917 2.227 5.344 5.147 5.344h55.791c3.167 0 5.585-2.834 5.087-5.961-2.262-14.217-4.319-24.944-19.348-24.944zM456.179 419.799h-26.785c-15.246 0-19.218 11.04-19.892 25.561-.135 2.917 2.227 5.344 5.147 5.344h55.791c3.167 0 5.585-2.834 5.087-5.961-2.262-14.216-4.319-24.944-19.348-24.944z" opacity="1" data-original="#ea9b58" class=""></path><path fill="#f6a96c" d="M166.504 375.557h-19.772c-4.143 0-7.5-3.357-7.5-7.5s3.357-7.5 7.5-7.5h19.772c4.143 0 7.5 3.357 7.5 7.5s-3.358 7.5-7.5 7.5zM443.317 370.354h-19.772c-4.143 0-7.5-3.357-7.5-7.5s3.357-7.5 7.5-7.5h19.772c4.143 0 7.5 3.357 7.5 7.5s-3.357 7.5-7.5 7.5z" opacity="1" data-original="#f6a96c"></path></g></svg>