<svg xmlns="http://www.w3.org/2000/svg" version="1.1" xmlns:xlink="http://www.w3.org/1999/xlink" width="512" height="512" x="0" y="0" viewBox="0 0 512 512" style="enable-background:new 0 0 512 512" xml:space="preserve" class=""><g><circle cx="183.375" cy="90.224" r="46.358" fill="#fedf30" opacity="1" data-original="#fedf30"></circle><path fill="#fed402" d="M189.074 44.227c8.858 8.443 14.387 20.348 14.387 33.551 0 25.603-20.755 46.358-46.358 46.358a46.8 46.8 0 0 1-5.699-.361c8.318 7.929 19.572 12.807 31.971 12.807 25.603 0 46.358-20.755 46.358-46.358 0-23.672-17.747-43.186-40.659-45.997z" opacity="1" data-original="#fed402"></path><path fill="#8bc727" d="M69.59 271.959c4.78 0 9.25 2.369 11.934 6.325l9.31 13.722h91.608l-31.055-42.461a25.755 25.755 0 0 0-20.788-10.551H98.916a15.454 15.454 0 0 1-12.967-7.048L73.766 213.15a25.755 25.755 0 0 0-21.612-11.746H25.755C11.531 201.402 0 212.933 0 227.157v44.802z" opacity="1" data-original="#8bc727" class=""></path><path fill="#99e6fc" d="M349.584 356.512c-1.882.64-3.804.952-5.876.952-7.328 0-10.926-2.892-14.736-5.954-3.92-3.15-7.973-6.408-16.027-6.408-8.052 0-12.105 3.258-16.025 6.408-3.809 3.062-7.407 5.954-14.733 5.954-7.327 0-10.925-2.892-14.734-5.954-3.92-3.15-7.972-6.408-16.025-6.408-.344 0-.684.007-1.025.02l17.515-54.147H90.135l38.838 57.242c-1.639 1.011-3.079 2.169-4.48 3.294-3.81 3.062-7.408 5.954-14.736 5.954-7.326 0-10.925-2.892-14.733-5.954-3.92-3.15-7.972-6.408-16.025-6.408-8.058 0-12.117 3.257-16.043 6.406-1.497 1.202-2.912 2.336-4.554 3.314l-.034.02-.077 1.72L85.11 397.94a16.395 16.395 0 0 0 13.807 7.503h37.613a14.43 14.43 0 0 1 11.006 5.086l48.175 56.605 120.558-2.375 35.027-108.284z" opacity="1" data-original="#99e6fc" class=""></path><path fill="#c8effe" d="M333.186 407.771c.458.179.923.306 1.39.391l4.572-14.135c-.168-.08-.335-.161-.512-.23-1.975-.771-3.577-2.056-5.606-3.685-4.117-3.304-9.755-7.829-20.084-7.829-10.331 0-15.964 4.529-20.078 7.835-3.512 2.823-5.631 4.527-10.68 4.527s-7.169-1.704-10.681-4.527c-4.114-3.307-9.748-7.835-20.078-7.835s-15.964 4.529-20.078 7.835c-3.512 2.823-5.631 4.527-10.68 4.527a7.5 7.5 0 0 0 0 15c10.33 0 15.964-4.529 20.078-7.835 3.512-2.823 5.631-4.527 10.68-4.527s7.169 1.704 10.681 4.527c4.114 3.307 9.748 7.835 20.079 7.835 10.33 0 15.964-4.529 20.078-7.835 3.512-2.823 5.632-4.527 10.681-4.527 5.055 0 7.178 1.704 10.696 4.527 2.541 2.042 5.423 4.356 9.542 5.961z" opacity="1" data-original="#c8effe" class=""></path><path fill="#62dbfb" d="m168.576 435.252 27.134 31.882 2.164 1h116.252l2.142-3.375 9.545-29.507z" opacity="1" data-original="#62dbfb"></path><path fill="#97d729" d="M82.377 277.705a15.452 15.452 0 0 0-12.787-6.777H0v69.308h39.833c4.908 0 9.433 2.459 12.103 6.578l6.097 9.406c6.732-3.569 9.793-10.089 20.965-10.089 15.379 0 15.379 12.362 30.758 12.362 11.019 0 14.145-6.345 20.687-9.944z" opacity="1" data-original="#97d729" class=""></path><path fill="#c8effe" d="M62.13 362.487a7.5 7.5 0 0 0 .632-.334c2.154-1.282 3.948-2.721 5.531-3.991 3.521-2.825 5.646-4.53 10.705-4.53 5.049 0 7.168 1.704 10.68 4.527 4.114 3.307 9.748 7.835 20.078 7.835s15.964-4.529 20.078-7.835c3.512-2.823 5.632-4.527 10.681-4.527s7.168 1.704 10.68 4.527c4.113 3.307 9.748 7.835 20.078 7.835a7.5 7.5 0 0 0 0-15c-5.049 0-7.168-1.704-10.68-4.527-4.114-3.307-9.748-7.835-20.078-7.835-10.331 0-15.965 4.529-20.079 7.835-3.512 2.823-5.632 4.527-10.681 4.527s-7.169-1.704-10.681-4.527c-4.114-3.307-9.748-7.835-20.078-7.835-10.333 0-15.973 4.526-20.092 7.83-1.316 1.056-2.56 2.054-3.814 2.8a7.537 7.537 0 0 0-1.043.757z" opacity="1" data-original="#c8effe" class=""></path><path fill="#97d729" d="M453.795 129.892H402.05a30.906 30.906 0 0 0-27.794 17.39l-19.038 39.151a15.452 15.452 0 0 1-13.897 8.695h-24.746c-11.17 0-21.067 7.2-24.504 17.828l-43.117 133.295a25.73 25.73 0 0 1 2.474-.12c15.38 0 15.38 12.362 30.759 12.362s15.379-12.362 30.758-12.362c15.381 0 15.381 12.362 30.763 12.362 2.896 0 5.315-.565 7.436-1.456v.001l14.706-45.465a14.422 14.422 0 0 1 13.722-9.984h33.512a16.48 16.48 0 0 0 13.831-7.518l33.148-51.141a14.37 14.37 0 0 1 12.103-6.578H484.7v-75.555c0-17.068-13.837-30.905-30.905-30.905z" opacity="1" data-original="#97d729" class=""></path><path fill="#8bc727" d="M453.795 129.892h-1.196v59.705a36.305 36.305 0 0 1-8.267 23.064l-49.518 60.202a16.483 16.483 0 0 1-13.831 7.518h-22.995a14.422 14.422 0 0 0-13.722 9.984l-21.168 58.231c6.489 3.606 9.635 9.898 20.611 9.898 2.896 0 5.315-.565 7.436-1.456l14.706-45.465a14.422 14.422 0 0 1 13.722-9.984h33.512a16.48 16.48 0 0 0 13.831-7.518l33.148-51.141a14.37 14.37 0 0 1 12.103-6.578H484.7v-75.555c0-17.068-13.837-30.905-30.905-30.905z" opacity="1" data-original="#8bc727" class=""></path><path fill="#c8effe" d="M343.708 365.994c1.595 0 3.131-.144 4.638-.404l4.81-14.87c-.037-.018-.071-.04-.108-.057-1.815-.859-3.897-.788-5.814-.189-1.118.35-2.275.52-3.526.52-5.05 0-7.17-1.704-10.683-4.527-4.114-3.307-9.749-7.835-20.08-7.835s-15.964 4.529-20.078 7.835c-3.512 2.823-5.631 4.527-10.68 4.527s-7.169-1.704-10.681-4.527c-4.114-3.307-9.748-7.835-20.078-7.835s-15.964 4.529-20.078 7.835c-3.512 2.823-5.631 4.527-10.68 4.527a7.502 7.502 0 0 0-7.455 8.332c.42 3.903 3.946 6.712 7.871 6.665 10.066-.12 15.603-4.571 19.661-7.833 3.512-2.823 5.631-4.527 10.68-4.527s7.169 1.704 10.681 4.527c4.114 3.307 9.748 7.835 20.079 7.835 10.33 0 15.964-4.529 20.078-7.835 3.512-2.823 5.631-4.527 10.681-4.527s7.17 1.704 10.683 4.527c4.114 3.307 9.748 7.836 20.079 7.836z" opacity="1" data-original="#c8effe" class=""></path><path fill="#a2e62e" d="M136.529 404.443H98.916a15.454 15.454 0 0 1-12.967-7.048L52.8 346.254a15.454 15.454 0 0 0-12.967-7.048H0v113.475c0 8.534 6.918 15.453 15.453 15.453h182.422l-49.577-58.253a15.456 15.456 0 0 0-11.769-5.438z" opacity="1" data-original="#a2e62e" class=""></path><path fill="#97d729" d="M0 435.251v17.43c0 8.534 6.918 15.453 15.453 15.453h182.422l-27.985-32.882H0z" opacity="1" data-original="#97d729" class=""></path><path fill="#a2e62e" d="M379.573 300.559h33.511a15.454 15.454 0 0 0 12.967-7.048L459.2 242.37a15.454 15.454 0 0 1 12.967-7.048h24.38c8.534 0 15.453 6.918 15.453 15.453v201.906c0 8.534-6.918 15.453-15.453 15.453H314.126l50.745-156.878a15.451 15.451 0 0 1 14.702-10.697z" opacity="1" data-original="#a2e62e" class=""></path><path fill="#97d729" d="M496.547 235.322h-16.918v184.476c0 8.534-6.918 15.453-15.453 15.453H324.762l-10.636 32.882h182.422c8.534 0 15.453-6.918 15.453-15.453V250.775c-.001-8.534-6.919-15.453-15.454-15.453z" opacity="1" data-original="#97d729" class=""></path></g></svg>