<svg xmlns="http://www.w3.org/2000/svg" version="1.1" xmlns:xlink="http://www.w3.org/1999/xlink" width="512" height="512" x="0" y="0" viewBox="0 0 512 512" style="enable-background:new 0 0 512 512" xml:space="preserve" class=""><g><path fill="#02905d" d="m223.391 224.639.425-.115 22.948-39.748-35.948-62.264c-2.165-3.751-7.579-3.751-9.745 0l-46.117 79.876c7.391-6.081 16.843-9.727 27.109-9.727 19.961.001 36.612 13.454 41.328 31.978z" opacity="1" data-original="#02905d"></path><path fill="#017b4e" d="M210.816 122.513c-2.166-3.751-7.58-3.751-9.745 0l-5.9 10.22 24.478 42.397a19.292 19.292 0 0 1 0 19.294l-6.618 11.462a42.391 42.391 0 0 1 10.36 18.754l.425-.115 22.948-39.748z" opacity="1" data-original="#017b4e"></path><path fill="#22b27f" d="m224.72 233.989.046 1.476 1.368-.553a42.458 42.458 0 0 1 16.673-3.091c14.001.229 27.023 7.509 34.835 19.473l1.892 2.899v-21.288c0-10.793 8.781-19.573 19.573-19.573h7.397l-33.837-58.607c-2.166-3.751-7.58-3.751-9.745 0l-39.788 68.915a43.23 43.23 0 0 1 1.586 10.349z" opacity="1" data-original="#22b27f"></path><path fill="#09a76d" d="M272.669 154.725c-2.166-3.751-7.58-3.751-9.745 0l-8.465 14.662 29.515 51.122c3.593-4.378 9.042-7.178 15.134-7.178h7.397z" opacity="1" data-original="#09a76d"></path><path fill="#02905d" d="M383.354 175.448c22.817 0 41.25 17.86 41.966 40.659l.047 1.475 1.368-.552a41.78 41.78 0 0 1 16.403-3.041c9.18.15 17.668 3.362 24.533 8.66L417.923 98.318c-1.886-4.715-8.561-4.715-10.447 0l-31.099 77.721a42.074 42.074 0 0 1 6.977-.591z" opacity="1" data-original="#02905d"></path><path fill="#017b4e" d="M417.923 98.318c-1.886-4.715-8.561-4.715-10.447 0l-9.199 22.991 37.311 93.245a42.067 42.067 0 0 1 7.552-.565c9.18.15 17.668 3.362 24.533 8.66z" opacity="1" data-original="#017b4e"></path><path fill="#22b27f" d="M44.747 198.197H65.47c3.047 0 4.803 3.461 3.004 5.92l-42.14 57.607a41.546 41.546 0 0 1 17.056-3.804l.331-.001c9.603 0 18.678 3.124 26.246 9.034l1.524 1.191.137-1.93c1.581-22.216 20.28-39.618 42.568-39.618a42.495 42.495 0 0 1 23.647 7.148l1.5 1 .1-1.8c1.225-22.009 19.031-39.363 40.888-40.239a3.74 3.74 0 0 0-.268-.427l-42.958-58.725c-1.799-2.459-.043-5.92 3.004-5.92h15.084c3.047 0 4.803-3.461 3.004-5.92l-44.291-60.547c-1.487-2.033-4.522-2.033-6.009 0l-44.291 60.547c-1.799 2.459-.043 5.92 3.004 5.92h15.084c3.047 0 4.803 3.461 3.004 5.92L41.74 192.278c-1.796 2.458-.039 5.919 3.007 5.919z" opacity="1" data-original="#22b27f"></path><path fill="#09a76d" d="M135.68 127.631c-12.29 0-19.326 14.009-11.988 23.868l35.565 47.78a42.496 42.496 0 0 1 20.59-6.552l.217-.45-42.958-58.725c-1.799-2.459-.043-5.92 3.004-5.92h15.084c3.047 0 4.803-3.461 3.004-5.92l-44.291-60.547c-1.487-2.033-4.522-2.033-6.009 0L97.478 75.41z" opacity="1" data-original="#09a76d"></path><path fill="#97d729" d="M1.03 398.567v-1.03c0-20.473 16.304-37.564 36.343-38.1a37.164 37.164 0 0 1 14.981 2.696l1.368.552.047-1.475c.637-20.277 17.032-36.161 37.324-36.161 19.812 0 36.192 15.482 37.293 35.246l.1 1.8 1.5-1a37.178 37.178 0 0 1 20.69-6.255 37.052 37.052 0 0 1 14.89 3.098l1.442.628v-5.632c0-10.793 8.781-19.573 19.573-19.573h36.69V292.92c0-10.793 8.781-19.573 19.573-19.573h36.691l-.001-20.955c-7.509-12.669-21.043-21.344-36.71-21.601a43.6 43.6 0 0 0-17.076 3.166c-.739-23.499-20.008-42.325-43.686-42.325-23.318 0-42.368 18.256-43.648 41.254a43.516 43.516 0 0 0-24.218-7.321c-23.087 0-41.982 17.899-43.596 40.575-7.499-5.856-16.949-9.329-27.219-9.251C19.221 257.072 0 277.338 0 301.5v97.067z" opacity="1" data-original="#97d729"></path><path fill="#d6694b" d="M341.426 273.347v-58.326c.051-.916.142-1.82.251-2.719H299.11c-11.379 0-20.604 9.225-20.604 20.604v39.411l4.214 1.03z" opacity="1" data-original="#d6694b"></path><path fill="#c4573a" d="M310.172 212.302h31.254v61.045h-31.254z" opacity="1" data-original="#c4573a"></path><path fill="#a2e62e" d="M110.744 412.949c0-10.793 8.781-19.573 19.573-19.573h36.69v-35.918a38.212 38.212 0 0 0-16.332-3.647 38.201 38.201 0 0 0-21.262 6.428c-1.124-20.191-17.848-36.219-38.321-36.219-20.788 0-37.705 16.529-38.354 37.16a38.273 38.273 0 0 0-15.393-2.771C16.429 358.966 0 376.613 0 397.537v39.371c0 8.534 6.918 15.453 15.453 15.453h95.292v-39.412z" opacity="1" data-original="#a2e62e"></path><path fill="#97d729" d="M0 420.398v16.51c0 8.534 6.918 15.453 15.453 15.453h95.292v-31.963z" opacity="1" data-original="#97d729"></path><path fill="#dd7f66" d="M341.426 333.361v-61.045h-98.58c-11.379 0-20.604 9.225-20.604 20.604v39.411l6.755 1.03z" opacity="1" data-original="#dd7f66"></path><path fill="#d6694b" d="M310.172 272.317h31.254v61.045h-31.254z" opacity="1" data-original="#d6694b"></path><path fill="#d6694b" d="m299.159 382.342.289-.001c8.402 0 16.344 2.733 22.967 7.905l1.524 1.191.137-1.93c.868-12.187 7.624-22.718 17.35-28.879v-28.296H186.582c-11.379 0-20.604 9.225-20.604 20.604v39.411l5.69 1.03h101.564c6.69-6.749 15.842-10.959 25.927-11.035z" opacity="1" data-original="#d6694b"></path><path fill="#c4573a" d="M299.448 382.341c8.402 0 16.344 2.733 22.967 7.905l1.524 1.191.137-1.93c.868-12.187 7.624-22.718 17.35-28.879v-27.266h-31.254v12.599c0 8.534-6.919 15.453-15.453 15.453H165.978v30.933l5.69 1.03h101.564c6.69-6.748 15.842-10.957 25.927-11.034z" opacity="1" data-original="#c4573a"></path><path fill="#dd7f66" d="M262.094 420.478a38.433 38.433 0 0 1 12.191-28.133H130.318c-11.379 0-20.604 9.225-20.604 20.604v39.411h152.379v-31.882z" opacity="1" data-original="#dd7f66"></path><path fill="#d6694b" d="M230.848 392.346v12.599c0 8.534-6.919 15.453-15.453 15.453H109.714v31.963h152.379v-31.882a38.433 38.433 0 0 1 12.191-28.133z" opacity="1" data-original="#d6694b"></path><path fill="#97d729" d="M361.324 354.841a37.178 37.178 0 0 1 20.69 6.255l1.5 1 .1-1.8c1.101-19.765 17.481-35.246 37.293-35.246 20.292 0 36.687 15.884 37.325 36.161l.046 1.475 1.368-.552a37.165 37.165 0 0 1 14.982-2.696c3.776.101 7.418.791 10.845 1.979V256.782c0-23.621-18.699-43.437-42.317-43.823a42.923 42.923 0 0 0-16.805 3.116c-.727-23.128-19.692-41.657-42.996-41.657-22.95 0-41.699 17.968-42.959 40.603v146.291c5.998-4.082 13.215-6.471 20.928-6.471z" opacity="1" data-original="#97d729"></path><path fill="#8bc727" d="M443.156 212.959a43.064 43.064 0 0 0-8.104.642 44.19 44.19 0 0 1 17.713 35.392v93.822c3.28 5.36 5.254 11.631 5.467 18.395l.046 1.475 1.368-.552a37.165 37.165 0 0 1 14.982-2.696c3.776.101 7.418.791 10.845 1.979V256.782c0-23.621-18.699-43.437-42.317-43.823z" opacity="1" data-original="#8bc727"></path><path fill="#a2e62e" d="M512 436.908v-39.371c0-20.924-16.429-38.571-37.345-39.129a38.281 38.281 0 0 0-15.394 2.771c-.649-20.631-17.566-37.16-38.354-37.16-20.472 0-37.197 16.028-38.321 36.219a38.201 38.201 0 0 0-21.262-6.428c-20.27 0-36.858 15.714-38.275 35.623a38.216 38.216 0 0 0-23.897-8.122c-21.213.161-38.088 17.953-38.088 39.167v31.882h235.484c8.534 0 15.452-6.918 15.452-15.452z" opacity="1" data-original="#a2e62e"></path><path fill="#97d729" d="M479.549 358.87v46.075c0 8.534-6.918 15.453-15.453 15.453h-203.03l-.002.081v31.882h235.484c8.534 0 15.453-6.918 15.453-15.453v-39.371c-.001-19.26-13.925-35.732-32.452-38.667z" opacity="1" data-original="#97d729"></path></g></svg>