<svg xmlns="http://www.w3.org/2000/svg" version="1.1" xmlns:xlink="http://www.w3.org/1999/xlink" width="512" height="512" x="0" y="0" viewBox="0 0 512 512" style="enable-background:new 0 0 512 512" xml:space="preserve" class=""><g><path fill="#a2e62e" d="M503.443 248.798H8.49l-8.49 1v219.594c0 5.69 4.612 10.302 10.302 10.302h491.396c5.69 0 10.302-4.612 10.302-10.302V249.798z" opacity="1" data-original="#a2e62e"></path><path fill="#a2e62e" d="M480.579 249.798v187.308c0 5.69-4.612 10.302-10.302 10.302H0v21.984c0 5.69 4.612 10.302 10.302 10.302h491.396c5.69 0 10.302-4.612 10.302-10.302V249.798z" opacity="1" data-original="#a2e62e"></path><path fill="#97d729" d="M480.579 249.798v187.308c0 5.69-4.612 10.302-10.302 10.302H0v21.984c0 5.69 4.612 10.302 10.302 10.302h491.396c5.69 0 10.302-4.612 10.302-10.302V249.798z" opacity="1" data-original="#97d729"></path><path fill="#97d729" d="M292.218 366.536a9.208 9.208 0 0 1 0-13.022l79.13-79.13c11.73-11.73 11.73-30.748 0-42.477l-28.621-28.621h-52.398l39.031 39.031a8.167 8.167 0 0 1 0 11.551l-98.517 78.64c-20.98 16.747-22.728 48.017-3.747 66.999l80.187 80.188h98.093z" opacity="1" data-original="#97d729"></path><path fill="#8bc727" d="m292.218 353.514 79.13-79.13c6.974-6.974 9.8-16.523 8.482-25.586h-48.112a8.133 8.133 0 0 1-2.359 5.069l-98.517 78.64c-20.98 16.747-22.728 48.018-3.747 66.999l80.187 80.188h98.093L292.218 366.536a9.208 9.208 0 0 1 0-13.022z" opacity="1" data-original="#8bc727"></path><path fill="#81b823" d="m274.997 447.408 32.286 32.286h98.093l-32.285-32.286z" opacity="1" data-original="#81b823"></path><path fill="#fedf30" d="M243.698 170.485c7.979 0 15.482 3.108 21.125 8.751l25.079 25.079h53.325l10.083-12.844a14.34 14.34 0 0 1 11.344-5.516h7.219a68.303 68.303 0 0 0 2.314-17.638c0-37.695-30.558-68.254-68.254-68.254-37.695 0-68.254 30.558-68.254 68.254 0 .727.032 1.446.055 2.168z" opacity="1" data-original="#fedf30"></path><path fill="#fed402" d="M341.782 110.237a67.977 67.977 0 0 1 6.108 28.213c0 31.499-21.343 57.999-50.352 65.865h45.691l10.083-12.844a14.34 14.34 0 0 1 11.344-5.516h7.219a68.303 68.303 0 0 0 2.314-17.638c-.002-24.543-12.963-46.052-32.407-58.08z" opacity="1" data-original="#fed402"></path><path fill="#ffbd86" d="m504.209 190.37-28.83-32.482a30.907 30.907 0 0 0-23.114-10.39h-19.697a30.903 30.903 0 0 0-24.108 11.568l-16.102 20.075a15.454 15.454 0 0 1-12.054 5.784h-15.648a15.453 15.453 0 0 0-12.155 5.911l-9.774 12.45h-1.036l.051.472 28.878 28.878c4.681 4.681 7.558 10.682 8.298 17.163H512v-38.913a30.907 30.907 0 0 0-7.791-20.516z" opacity="1" data-original="#ffbd86"></path><path fill="#ffbd86" d="m504.209 190.37-28.83-32.482a30.907 30.907 0 0 0-23.114-10.39h-19.697a30.903 30.903 0 0 0-24.108 11.568l-16.102 20.075a15.454 15.454 0 0 1-12.054 5.784h-15.648a15.453 15.453 0 0 0-12.155 5.911l-9.774 12.45h-1.036l.051.472 28.878 28.878c4.681 4.681 7.558 10.682 8.298 17.163H512v-38.913a30.907 30.907 0 0 0-7.791-20.516z" opacity="1" data-original="#ffbd86"></path><path fill="#f6a96c" d="m504.209 190.37-21.239-23.929v46.951c0 5.69-4.612 10.302-10.302 10.302h-110.99l8.942 8.942c4.681 4.681 7.558 10.682 8.298 17.163H512v-38.913a30.907 30.907 0 0 0-7.791-20.516z" opacity="1" data-original="#f6a96c"></path><path fill="#ffbd86" d="m330.088 241.587-36.146-36.146-3.612-2.155-24.778-24.778a30.905 30.905 0 0 0-21.853-9.052H209.85a15.454 15.454 0 0 1-10.927-4.526l-34.827-34.828a30.905 30.905 0 0 0-21.853-9.052H15.453C6.918 121.05 0 127.968 0 136.502v113.296h332.617a9.192 9.192 0 0 0-2.529-8.211z" opacity="1" data-original="#ffbd86"></path><path fill="#ffbd86" d="m330.088 241.587-36.146-36.146-3.612-2.155-24.778-24.778a30.905 30.905 0 0 0-21.853-9.052H209.85a15.454 15.454 0 0 1-10.927-4.526l-34.827-34.828a30.905 30.905 0 0 0-21.853-9.052H15.453C6.918 121.05 0 127.968 0 136.502v113.296h332.617a9.192 9.192 0 0 0-2.529-8.211z" opacity="1" data-original="#ffbd86"></path><path fill="#f6a96c" d="M312.195 223.694H0v26.105h332.617a9.194 9.194 0 0 0-2.529-8.211z" opacity="1" data-original="#f6a96c"></path><path fill="#22b27f" d="M32.451 354.818c0-11.316 4.838-21.575 12.684-29.101a29.646 29.646 0 0 1-1.801-10.163c0-17.488 15.227-31.665 34.011-31.665s34.011 14.177 34.011 31.665c0 3.557-.639 6.972-1.801 10.163 7.846 7.526 12.684 17.785 12.684 29.101 0 7.355-2.047 14.262-5.63 20.266 3.583 6.004 5.63 12.911 5.63 20.266 0 23.084-20.1 41.798-44.894 41.798s-44.894-18.714-44.894-41.798c0-7.355 2.047-14.262 5.63-20.266-3.583-6.004-5.63-12.911-5.63-20.266z" opacity="1" data-original="#22b27f"></path><path fill="#09a76d" d="M122.239 354.818c0-11.316-4.838-21.575-12.684-29.101a29.646 29.646 0 0 0 1.801-10.163c0-17.488-15.227-31.665-34.011-31.665-3.783 0-7.418.584-10.817 1.645 13.478 4.208 23.194 16.054 23.194 30.02 0 2.595-.34 5.115-.976 7.528-.443 1.683.059 3.458 1.231 4.746 6.626 7.282 10.628 16.699 10.628 26.991 0 6.397-1.549 12.455-4.31 17.875a5.248 5.248 0 0 0 0 4.781c2.761 5.42 4.31 11.478 4.31 17.875 0 19.611-14.51 36.061-34.077 40.569a48.154 48.154 0 0 0 10.817 1.229c24.794 0 44.894-18.714 44.894-41.798 0-7.355-2.047-14.262-5.63-20.266 3.583-6.004 5.63-12.911 5.63-20.266z" opacity="1" data-original="#09a76d"></path><path fill="#22b27f" d="M137.367 250.129c0-8.2 3.506-15.634 9.191-21.088a21.47 21.47 0 0 1-1.305-7.365c0-12.673 11.034-22.946 24.645-22.946s24.645 10.273 24.645 22.946a21.47 21.47 0 0 1-1.305 7.365c5.685 5.454 9.191 12.888 9.191 21.088 0 5.33-1.484 10.335-4.08 14.685 2.596 4.351 4.08 9.356 4.08 14.685 0 16.728-14.565 30.288-32.532 30.288s-32.532-13.561-32.532-30.288c0-5.33 1.484-10.335 4.08-14.685-2.595-4.35-4.078-9.355-4.078-14.685z" opacity="1" data-original="#22b27f"></path><path fill="#09a76d" d="M202.431 250.129c0-8.2-3.506-15.634-9.191-21.088a21.466 21.466 0 0 0 1.305-7.365c0-12.673-11.034-22.946-24.645-22.946-3.881 0-7.551.838-10.817 2.326 8.188 3.73 13.829 11.561 13.829 20.62 0 1.685-.198 3.326-.57 4.907-.378 1.605.14 3.268 1.222 4.513 4.522 5.201 7.234 11.821 7.234 19.033 0 4.441-1.03 8.657-2.876 12.457a5.124 5.124 0 0 0 0 4.457 28.402 28.402 0 0 1 2.876 12.457c0 13.196-9.067 24.415-21.715 28.567a34.645 34.645 0 0 0 10.817 1.722c17.967 0 32.532-13.561 32.532-30.288 0-5.33-1.484-10.335-4.08-14.685 2.595-4.352 4.079-9.357 4.079-14.687z" opacity="1" data-original="#09a76d"></path><path fill="#dd7f66" d="M331.567 249.798h48.385a29.903 29.903 0 0 0-8.604-17.892l-28.621-28.621h-52.398l39.031 39.031a8.157 8.157 0 0 1 2.207 7.482z" opacity="1" data-original="#dd7f66"></path><path fill="#dd7f66" d="M331.567 249.798h48.385a29.903 29.903 0 0 0-8.604-17.892l-28.621-28.621h-52.398l39.031 39.031a8.157 8.157 0 0 1 2.207 7.482z" opacity="1" data-original="#dd7f66"></path><path fill="#d6694b" d="M363.135 223.694h-52.398l18.622 18.622a8.154 8.154 0 0 1 2.207 7.482h48.385a29.903 29.903 0 0 0-8.604-17.892z" opacity="1" data-original="#d6694b"></path><path fill="#22b27f" d="M400.225 307.898c0-10.387 4.441-19.804 11.642-26.711a27.202 27.202 0 0 1-1.653-9.329c0-16.052 13.977-29.065 31.218-29.065s31.218 13.013 31.218 29.065c0 3.264-.587 6.4-1.653 9.329 7.201 6.908 11.642 16.324 11.642 26.711 0 6.751-1.879 13.091-5.168 18.601 3.288 5.511 5.168 11.85 5.168 18.601 0 21.189-18.449 38.365-41.207 38.365s-41.207-17.177-41.207-38.365c0-6.751 1.879-13.091 5.168-18.601-3.288-5.51-5.168-11.85-5.168-18.601z" opacity="1" data-original="#22b27f"></path><path fill="#09a76d" d="M482.64 307.898c0-10.387-4.441-19.803-11.642-26.711a27.202 27.202 0 0 0 1.653-9.329c0-16.052-13.977-29.065-31.218-29.065-4.593 0-8.95.931-12.877 2.59 10.814 4.567 18.34 14.699 18.34 26.475 0 2.332-.299 4.598-.859 6.769-.425 1.65.094 3.386 1.234 4.652 5.998 6.662 9.614 15.245 9.614 24.618a36.01 36.01 0 0 1-3.878 16.255 5.2 5.2 0 0 0 0 4.693 35.997 35.997 0 0 1 3.878 16.255c0 17-11.881 31.408-28.33 36.444a43.93 43.93 0 0 0 12.877 1.921c22.758 0 41.207-17.177 41.207-38.365 0-6.751-1.879-13.091-5.168-18.601 3.29-5.51 5.169-11.85 5.169-18.601z" opacity="1" data-original="#09a76d"></path><path fill="#fed402" d="M305.934 71.323a7.5 7.5 0 0 1-7.5-7.5V39.806c0-4.143 3.358-7.5 7.5-7.5s7.5 3.357 7.5 7.5v24.017a7.5 7.5 0 0 1-7.5 7.5zM355.922 82.953a7.467 7.467 0 0 1-3.37-.805 7.5 7.5 0 0 1-3.321-10.073l10.811-21.445a7.499 7.499 0 0 1 10.073-3.321 7.5 7.5 0 0 1 3.321 10.073l-10.811 21.445a7.5 7.5 0 0 1-6.703 4.126zM395.342 115.839a7.501 7.501 0 0 1-4.467-13.529l19.307-14.284a7.5 7.5 0 0 1 8.922 12.058l-19.307 14.284a7.469 7.469 0 0 1-4.455 1.471zM255.946 82.953a7.5 7.5 0 0 1-6.703-4.126l-10.811-21.445a7.5 7.5 0 0 1 13.394-6.752l10.811 21.445a7.5 7.5 0 0 1-6.691 10.878zM216.525 115.839a7.471 7.471 0 0 1-4.455-1.471l-19.307-14.284a7.5 7.5 0 1 1 8.922-12.058l19.307 14.284a7.5 7.5 0 0 1-4.467 13.529z" opacity="1" data-original="#fed402"></path><path fill="#f6a96c" d="M77.345 360.396a7.5 7.5 0 0 0-7.5 7.5v111.797h15V367.896a7.5 7.5 0 0 0-7.5-7.5zM169.898 348.119a7.5 7.5 0 0 1-7.5-7.5v-81.012c0-4.143 3.358-7.5 7.5-7.5s7.5 3.357 7.5 7.5v81.012c0 4.143-3.357 7.5-7.5 7.5zM441.433 430.018a7.5 7.5 0 0 1-7.5-7.5V319.903c0-4.143 3.358-7.5 7.5-7.5s7.5 3.357 7.5 7.5v102.615a7.5 7.5 0 0 1-7.5 7.5z" opacity="1" data-original="#f6a96c"></path><path fill="#ea9b58" d="M69.845 447.408h15v32.286h-15z" opacity="1" data-original="#ea9b58"></path></g></svg>