<svg xmlns="http://www.w3.org/2000/svg" version="1.1" xmlns:xlink="http://www.w3.org/1999/xlink" width="512" height="512" x="0" y="0" viewBox="0 0 512 512" style="enable-background:new 0 0 512 512" xml:space="preserve" class=""><g><path fill="#fedf30" d="M296.253 202.95h38.241l23.097-36.913c-7.442-18.621-25.634-31.783-46.911-31.783-19.539 0-36.474 11.101-44.876 27.333z" opacity="1" data-original="#fedf30"></path><path fill="#fed402" d="m339.758 143.474-15.448 24.689A25.21 25.21 0 0 1 302.94 180h-23.582l16.895 22.95h38.241l23.097-36.913c-3.654-9.143-9.904-16.964-17.833-22.563z" opacity="1" data-original="#fed402"></path><path fill="#22b27f" d="M401.033 121.596c-3.635-6.351-12.729-6.53-16.611-.327l-50.482 80.68L316 212l-19.241-10.05-50.904-69.148-1.447.033-34.689 34.689c-1.64 1.64-3.82 2.542-6.139 2.542s-4.499-.903-6.139-2.542l-26.004-26.004c-2.017-2.018-4.7-3.129-7.553-3.129s-5.536 1.111-7.553 3.129l-11.965 11.965c-1.64 1.64-3.82 2.543-6.139 2.543s-4.499-.903-6.139-2.543l-17.655-17.655-1.382.032L22.18 276.738h467.64z" opacity="1" data-original="#22b27f"></path><path fill="#09a76d" d="m335.157 257.553-38.398-55.603-50.904-69.148-22.636 22.636 87.138 120.092 21.06-6.885c4.641-1.518 6.515-7.074 3.74-11.092z" opacity="1" data-original="#09a76d"></path><path fill="#02905d" d="M331.728 269.595c.313-.102.617-.222.911-.357H7.5a7.5 7.5 0 0 0 0 15h279.437z" opacity="1" data-original="#02905d"></path><path fill="#09a76d" d="M401.033 121.596c-3.635-6.351-12.729-6.53-16.611-.327l-13.974 22.334 76.193 133.135h43.18z" opacity="1" data-original="#09a76d"></path><path fill="#02905d" d="M504.5 269.238h-84.01a19.716 19.716 0 0 1-.056 4.352c-.514 4.14-2.248 7.803-4.916 10.648H504.5c4.143 0 7.5-3.358 7.5-7.5s-3.357-7.5-7.5-7.5z" opacity="1" data-original="#02905d"></path><path fill="#dff6fd" d="M131.38 154.192a9.682 9.682 0 0 0 13.692 0l11.965-11.965a9.682 9.682 0 0 1 13.692 0l26.004 26.004a9.682 9.682 0 0 0 13.692 0l35.429-35.43-61.409-83.418c-4.019-5.459-12.259-5.205-15.933.492l-55.464 85.987z" opacity="1" data-original="#dff6fd"></path><path fill="#c8effe" d="m223.219 155.438 22.636-22.636-61.409-83.418c-4.019-5.459-12.259-5.205-15.933.492l-10.301 15.971z" opacity="1" data-original="#c8effe"></path><path fill="#a2e62e" d="m451.631 457.463-160.733-112.55c-5.16-3.621-4.083-11.556 1.855-13.671l115.538-41.154c15.488-5.517 18.074-26.325 4.407-35.465L333.94 201.95h-37.181l38.398 55.603c2.775 4.018.901 9.575-3.74 11.092l-128.807 42.11c-28.376 9.277-36.333 45.633-14.425 65.914l93.805 87.213a10 10 0 0 0 6.809 2.676h159.964c4.888.001 6.872-6.291 2.868-9.095z" opacity="1" data-original="#a2e62e"></path><path fill="#97d729" d="M391.887 264.673c10.646 7.12 11.427 21.321 3.93 29.858l12.473-4.443c15.488-5.517 18.074-26.325 4.407-35.465L333.94 201.95h-29.813zM451.631 457.463l-160.733-112.55c-5.16-3.621-4.083-11.556 1.855-13.671-17.868 6.964-20.762 31.033-5.053 42.033l78.637 55.064c7.602 5.323 3.836 17.27-5.445 17.27h-98.557l19.655 18.273a10 10 0 0 0 6.809 2.676h159.964c4.888.001 6.872-6.291 2.868-9.095z" opacity="1" data-original="#97d729"></path><path fill="#7a6d79" d="M436.77 331.813h-5.785c-18.28 0-33.43 13.396-36.171 30.906-.47 3.005 1.912 5.707 4.954 5.707h68.219c3.042 0 5.424-2.701 4.954-5.707-2.741-17.51-17.892-30.906-36.171-30.906z" opacity="1" data-original="#7a6d79"></path><path fill="#685e68" d="M472.941 362.72c-2.234-14.277-12.721-25.816-26.425-29.592a36.396 36.396 0 0 1 5.425 14.165c.47 3.005-1.912 5.707-4.954 5.707h-49.209a36.314 36.314 0 0 0-2.964 9.72c-.47 3.005 1.912 5.707 4.954 5.707h68.219c3.042 0 5.424-2.702 4.954-5.707z" opacity="1" data-original="#685e68"></path><path fill="#7a6d79" d="M88.845 412.748h-7.69c-24.296 0-44.434 17.805-48.076 41.079-.625 3.995 2.541 7.585 6.584 7.585h90.673c4.043 0 7.21-3.59 6.584-7.585-3.641-23.274-23.779-41.079-48.075-41.079z" opacity="1" data-original="#7a6d79"></path><path fill="#918291" d="M87.314 316.426h-4.74c-14.978 0-27.392 10.976-29.638 25.324-.385 2.463 1.567 4.676 4.059 4.676h55.898c2.493 0 4.444-2.213 4.059-4.676-2.246-14.347-14.66-25.324-29.638-25.324z" opacity="1" data-original="#918291"></path><path fill="#7a6d79" d="M116.951 341.751c-2.156-13.776-13.688-24.438-27.862-25.266a29.88 29.88 0 0 1 6.862 14.84c.385 2.463-1.567 4.676-4.059 4.676h-37.45a29.757 29.757 0 0 0-1.507 5.751c-.385 2.463 1.567 4.676 4.059 4.676h55.898c2.493-.001 4.445-2.215 4.059-4.677z" opacity="1" data-original="#7a6d79"></path><path fill="#918291" d="M88.845 412.748h-7.69c-24.296 0-44.434 17.805-48.076 41.079-.625 3.995 2.541 7.585 6.584 7.585h90.673c4.043 0 7.21-3.59 6.584-7.585-3.641-23.274-23.779-41.079-48.075-41.079z" opacity="1" data-original="#918291"></path><path fill="#7a6d79" d="M135.222 446.664H34.778a48.26 48.26 0 0 0-1.699 7.163c-.625 3.995 2.541 7.585 6.584 7.585h90.673c4.043 0 7.21-3.59 6.584-7.585a48.134 48.134 0 0 0-1.698-7.163z" opacity="1" data-original="#7a6d79"></path><path fill="#7a6d79" d="M149.314 431.412h-4.74c-16.569 0-30 13.431-30 30h60.319c2.516 0 4.444-2.251 4.05-4.736-2.272-14.319-14.672-25.264-29.629-25.264z" opacity="1" data-original="#7a6d79"></path><path fill="#685e68" d="M178.942 456.676c-2.007-12.654-11.928-22.668-24.531-24.826a29.818 29.818 0 0 1 3.538 10.079c.394 2.485-1.534 4.736-4.05 4.736h-35.448a29.848 29.848 0 0 0-3.878 14.748h60.319c2.516-.001 4.444-2.252 4.05-4.737z" opacity="1" data-original="#685e68"></path></g></svg>